<svg data-v-528fb24a="" viewBox="0 0 36 36" fill="none" xmlns="http://www.w3.org/2000/svg" width="256" height="256" id="avatar"><title data-v-528fb24a="">Simple Avatar</title><desc data-v-528fb24a="">CREATED BY XUAN TANG, MORE INFO AT TXSTC55.GITHUB.IO</desc><rect data-v-528fb24a="" width="36" height="36" fill="#471069"></rect><mask data-v-528fb24a="" id="mask__foreground" maskUnits="userSpaceOnUse" x="0" y="0" width="100" height="100"><rect data-v-528fb24a="" x="0" y="0" width="36" height="36" transform="translate(-2.068386811284786 3.8229539866641655) rotate(11.011888620794021 1.122687405421317 16.423580824487736)scale(1.1407705492450833)" rx="32.754253967508916" fill="white"></rect><!----></mask><mask data-v-528fb24a="" id="mask__background" maskUnits="userSpaceOnUse" x="0" y="0" width="100" height="100"><rect data-v-528fb24a="" id="test" x="0" y="0" width="36" height="36" fill="white"></rect><rect data-v-528fb24a="" x="3" y="3" width="30" height="30" transform="translate(-2.068386811284786 3.8229539866641655) rotate(11.011888620794021 1.122687405421317 16.423580824487736)scale(1.1407705492450833)" rx="32.754253967508916" fill="black"></rect><!----></mask><rect data-v-528fb24a="" x="0" y="0" width="36" height="36" fill="#19376D" mask="url(#mask__foreground)"></rect><g data-v-528fb24a="" mask="url(#mask__foreground)"><g data-v-528fb24a="" transform="translate(4.642174873049216 2.322867933649455) rotate(-1.8352981923115372 24.554710631473725 23.76445854296284)"><g data-v-528fb24a="" transform=""><path data-v-528fb24a="" d="M15.314238572813561 21.86126116762422c0.6563562487749399 4.985648567809277 3.469619576646144 4.534289433428685 5.371522854372876 0" stroke="#ffffee" fill="none" stroke-linecap="round"></path><!----></g><rect data-v-528fb24a="" x="6.4041400461840094" y="13.36320550407519" width="5.300934593606904" height="0.7642345031063181" rx="1" stroke="none" fill="#ffffee"></rect><rect data-v-528fb24a="" x="24.294925360209085" y="13.36320550407519" width="5.300934593606904" height="0.7642345031063181" rx="1" stroke="none" fill="#ffffee"></rect></g></g><g data-v-528fb24a="" mask="url(#mask__background)"><g data-v-528fb24a="" transform="translate(4.642174873049216 2.322867933649455) rotate(-1.8352981923115372 24.554710631473725 23.76445854296284)"><g data-v-528fb24a="" transform=""><path data-v-528fb24a="" d="M15.314238572813561 21.86126116762422c0.6563562487749399 4.985648567809277 3.469619576646144 4.534289433428685 5.371522854372876 0" stroke="#ffffee" fill="none" stroke-linecap="round"></path><!----></g><rect data-v-528fb24a="" x="6.4041400461840094" y="13.36320550407519" width="5.300934593606904" height="0.7642345031063181" rx="1" stroke="none" fill="#ffffee"></rect><rect data-v-528fb24a="" x="24.294925360209085" y="13.36320550407519" width="5.300934593606904" height="0.7642345031063181" rx="1" stroke="none" fill="#ffffee"></rect></g></g></svg>