<svg data-v-528fb24a="" viewBox="0 0 36 36" fill="none" xmlns="http://www.w3.org/2000/svg" width="256" height="256" id="avatar"><title data-v-528fb24a="">Simple Avatar</title><desc data-v-528fb24a="">CREATED BY XUAN TANG, MORE INFO AT TXSTC55.GITHUB.IO</desc><rect data-v-528fb24a="" width="36" height="36" fill="#ef476f"></rect><mask data-v-528fb24a="" id="mask__foreground" maskUnits="userSpaceOnUse" x="0" y="0" width="100" height="100"><rect data-v-528fb24a="" x="0" y="0" width="36" height="36" transform="translate(2.115598641211964 4.798748233579174) rotate(1.2271489793385442 2.110381130290314 2.0895460658409934)scale(1.0109626784754981)" rx="4.975452529156755" fill="white"></rect><!----></mask><mask data-v-528fb24a="" id="mask__background" maskUnits="userSpaceOnUse" x="0" y="0" width="100" height="100"><rect data-v-528fb24a="" id="test" x="0" y="0" width="36" height="36" fill="white"></rect><rect data-v-528fb24a="" x="3" y="3" width="30" height="30" transform="translate(2.115598641211964 4.798748233579174) rotate(1.2271489793385442 2.110381130290314 2.0895460658409934)scale(1.0109626784754981)" rx="4.975452529156755" fill="black"></rect><!----></mask><rect data-v-528fb24a="" x="0" y="0" width="36" height="36" fill="#274c77" mask="url(#mask__foreground)"></rect><g data-v-528fb24a="" mask="url(#mask__foreground)"><g data-v-528fb24a="" transform="translate(0.015391345353212849 -2.160726201879497) rotate(-2.1658809804245482 21.702439988317504 22.932468843683793)"><g data-v-528fb24a="" transform=""><path data-v-528fb24a="" d="M10.223098333548215 19.981001859364188c0.9516750415092208 5.439257009934293 14.864234930037206 4.111148866709984 15.55380333290357 0" stroke="#ffffee" fill="none" stroke-linecap="round"></path><!----></g><rect data-v-528fb24a="" x="10.814100906309568" y="13.365795578851163" width="4.341653022049584" height="1.3181749766595026" rx="1" stroke="none" fill="#ffffee"></rect><rect data-v-528fb24a="" x="20.844246071640846" y="13.365795578851163" width="4.341653022049584" height="1.3181749766595026" rx="1" stroke="none" fill="#ffffee"></rect></g></g><g data-v-528fb24a="" mask="url(#mask__background)"><g data-v-528fb24a="" transform="translate(0.015391345353212849 -2.160726201879497) rotate(-2.1658809804245482 21.702439988317504 22.932468843683793)"><g data-v-528fb24a="" transform=""><path data-v-528fb24a="" d="M10.223098333548215 19.981001859364188c0.9516750415092208 5.439257009934293 14.864234930037206 4.111148866709984 15.55380333290357 0" stroke="#ffffee" fill="none" stroke-linecap="round"></path><!----></g><rect data-v-528fb24a="" x="10.814100906309568" y="13.365795578851163" width="4.341653022049584" height="1.3181749766595026" rx="1" stroke="none" fill="#ffffee"></rect><rect data-v-528fb24a="" x="20.844246071640846" y="13.365795578851163" width="4.341653022049584" height="1.3181749766595026" rx="1" stroke="none" fill="#ffffee"></rect></g></g></svg>