<svg data-v-528fb24a="" viewBox="0 0 36 36" fill="none" xmlns="http://www.w3.org/2000/svg" width="256" height="256" id="avatar"><title data-v-528fb24a="">Simple Avatar</title><desc data-v-528fb24a="">CREATED BY XUAN TANG, MORE INFO AT TXSTC55.GITHUB.IO</desc><rect data-v-528fb24a="" width="36" height="36" fill="#C8E0F4"></rect><mask data-v-528fb24a="" id="mask__foreground" maskUnits="userSpaceOnUse" x="0" y="0" width="100" height="100"><!----><path data-v-528fb24a="" stroke-width="10.195584373397102" stroke-linecap="round" stroke-linejoin="round" stroke="white" fill="white" d="M 18,7.75128869404 32,32 4,32 z" transform="translate(0.2302611547536788 -5.553972036237145) rotate(6.822380475679807 18 18)"></path></mask><mask data-v-528fb24a="" id="mask__background" maskUnits="userSpaceOnUse" x="0" y="0" width="100" height="100"><rect data-v-528fb24a="" id="test" x="0" y="0" width="36" height="36" fill="white"></rect><!----><path data-v-528fb24a="" stroke-width="10.195584373397102" stroke-linecap="round" stroke-linejoin="round" stroke="black" fill="black" d="M 18,7.75128869404 32,32 4,32 z" transform="translate(0.2302611547536788 -5.553972036237145) rotate(6.822380475679807 18 18)"></path></mask><rect data-v-528fb24a="" x="0" y="0" width="36" height="36" fill="#FFF2CC" mask="url(#mask__foreground)"></rect><g data-v-528fb24a="" mask="url(#mask__foreground)"><g data-v-528fb24a="" transform="translate(1.0054896736294872 -1.0553248209617427) rotate(-1.963621120825545 26.758567918485596 34.62927739059501)"><g data-v-528fb24a="" transform="rotate(180 18 22.101327541899245)"><!----><path data-v-528fb24a="" d="M9.233818933044311,21.984981228562894 a0.6047915248088926, 0.6369466782122011 0 0,0 16.723474380518986, -1.0412006828825764" fill="hsl(207, 44.46666666666667%, 100%)"></path></g><rect data-v-528fb24a="" x="11.923576854711985" y="11.295265806004998" width="2.5981617143703133" height="1.313034329076714" rx="1" stroke="none" fill="hsl(207, 44.46666666666667%, 100%)"></rect><rect data-v-528fb24a="" x="21.4782614309177" y="11.295265806004998" width="2.5981617143703133" height="1.313034329076714" rx="1" stroke="none" fill="hsl(207, 44.46666666666667%, 100%)"></rect></g></g><g data-v-528fb24a="" mask="url(#mask__background)"><g data-v-528fb24a="" transform="translate(1.0054896736294872 -1.0553248209617427) rotate(-1.963621120825545 26.758567918485596 34.62927739059501)"><g data-v-528fb24a="" transform="rotate(180 18 22.101327541899245)"><!----><path data-v-528fb24a="" d="M9.233818933044311,21.984981228562894 a0.6047915248088926, 0.6369466782122011 0 0,0 16.723474380518986, -1.0412006828825764" fill="hsl(45, 66.66666666666667%, 100%)"></path></g><rect data-v-528fb24a="" x="11.923576854711985" y="11.295265806004998" width="2.5981617143703133" height="1.313034329076714" rx="1" stroke="none" fill="hsl(45, 66.66666666666667%, 100%)"></rect><rect data-v-528fb24a="" x="21.4782614309177" y="11.295265806004998" width="2.5981617143703133" height="1.313034329076714" rx="1" stroke="none" fill="hsl(45, 66.66666666666667%, 100%)"></rect></g></g></svg>