<svg data-v-528fb24a="" viewBox="0 0 36 36" fill="none" xmlns="http://www.w3.org/2000/svg" width="256" height="256" id="avatar"><title data-v-528fb24a="">Simple Avatar</title><desc data-v-528fb24a="">CREATED BY XUAN TANG, MORE INFO AT TXSTC55.GITHUB.IO</desc><rect data-v-528fb24a="" width="36" height="36" fill="#e63946"></rect><mask data-v-528fb24a="" id="mask__foreground" maskUnits="userSpaceOnUse" x="0" y="0" width="100" height="100"><rect data-v-528fb24a="" x="0" y="0" width="36" height="36" transform="translate(2.8755558387470526 -4.387303480206299) rotate(7.965972214693117 20.02612009106142 3.4558016136300553)scale(1.0537317710222638)" rx="14.623531470605428" fill="white"></rect><!----></mask><mask data-v-528fb24a="" id="mask__background" maskUnits="userSpaceOnUse" x="0" y="0" width="100" height="100"><rect data-v-528fb24a="" id="test" x="0" y="0" width="36" height="36" fill="white"></rect><rect data-v-528fb24a="" x="3" y="3" width="30" height="30" transform="translate(2.8755558387470526 -4.387303480206299) rotate(7.965972214693117 20.02612009106142 3.4558016136300553)scale(1.0537317710222638)" rx="14.623531470605428" fill="black"></rect><!----></mask><rect data-v-528fb24a="" x="0" y="0" width="36" height="36" fill="#464249" mask="url(#mask__foreground)"></rect><g data-v-528fb24a="" mask="url(#mask__foreground)"><g data-v-528fb24a="" transform="translate(2.303137753860356 2.838069679417865) rotate(5.197560049896488 30.435304063217554 28.15314792474634)"><g data-v-528fb24a="" transform="rotate(180 18 21.97820098332619)"><path data-v-528fb24a="" d="M11.437510354218231 19.241889391883355c3.472623182885669 2.6820318909741 12.879566729480977 5.01672960397904 13.124979291563537 0" stroke="#ffffee" fill="none" stroke-linecap="round"></path><!----></g><rect data-v-528fb24a="" x="6.93533611591107" y="10.03613963623761" width="4.348651671804082" height="1.790211807448876" rx="1" stroke="none" fill="#ffffee"></rect><rect data-v-528fb24a="" x="24.71601221228485" y="10.03613963623761" width="4.348651671804082" height="1.790211807448876" rx="1" stroke="none" fill="#ffffee"></rect></g></g><g data-v-528fb24a="" mask="url(#mask__background)"><g data-v-528fb24a="" transform="translate(2.303137753860356 2.838069679417865) rotate(5.197560049896488 30.435304063217554 28.15314792474634)"><g data-v-528fb24a="" transform="rotate(180 18 21.97820098332619)"><path data-v-528fb24a="" d="M11.437510354218231 19.241889391883355c3.472623182885669 2.6820318909741 12.879566729480977 5.01672960397904 13.124979291563537 0" stroke="#ffffee" fill="none" stroke-linecap="round"></path><!----></g><rect data-v-528fb24a="" x="6.93533611591107" y="10.03613963623761" width="4.348651671804082" height="1.790211807448876" rx="1" stroke="none" fill="#ffffee"></rect><rect data-v-528fb24a="" x="24.71601221228485" y="10.03613963623761" width="4.348651671804082" height="1.790211807448876" rx="1" stroke="none" fill="#ffffee"></rect></g></g></svg>