<svg data-v-528fb24a="" viewBox="0 0 36 36" fill="none" xmlns="http://www.w3.org/2000/svg" width="256" height="256" id="avatar"><title data-v-528fb24a="">Simple Avatar</title><desc data-v-528fb24a="">CREATED BY XUAN TANG, MORE INFO AT TXSTC55.GITHUB.IO</desc><rect data-v-528fb24a="" width="36" height="36" fill="#f0f0d8"></rect><mask data-v-528fb24a="" id="mask__foreground" maskUnits="userSpaceOnUse" x="0" y="0" width="100" height="100"><rect data-v-528fb24a="" x="0" y="0" width="36" height="36" transform="translate(-2.1103154432607196 0.6151431254477906) rotate(-11.701269385343886 19.445235118389114 5.515156439407035)scale(1.1456991455518017)" rx="17.34454333080304" fill="white"></rect><!----></mask><mask data-v-528fb24a="" id="mask__background" maskUnits="userSpaceOnUse" x="0" y="0" width="100" height="100"><rect data-v-528fb24a="" id="test" x="0" y="0" width="36" height="36" fill="white"></rect><rect data-v-528fb24a="" x="3" y="3" width="30" height="30" transform="translate(-2.1103154432607196 0.6151431254477906) rotate(-11.701269385343886 19.445235118389114 5.515156439407035)scale(1.1456991455518017)" rx="17.34454333080304" fill="black"></rect><!----></mask><rect data-v-528fb24a="" x="0" y="0" width="36" height="36" fill="#95f9c3" mask="url(#mask__foreground)"></rect><g data-v-528fb24a="" mask="url(#mask__foreground)"><g data-v-528fb24a="" transform="translate(3.0079186839778593 -4.9670392610252545) rotate(0.24912669237901142 25.19126178616176 29.28422771148205)"><g data-v-528fb24a="" transform=""><!----><path data-v-528fb24a="" d="M11.0627610035894,22.004149767310906 a0.7312356427859091, 0.6171628673107179 0 0,0 15.328095925131539, 0.5863090611939379" fill="hsl(60, 29.599999999999998%, 100%)"></path></g><rect data-v-528fb24a="" x="10.255357961488006" y="16.12396636855864" width="3.4060183774860873" height="0.6159942175911594" rx="1" stroke="none" fill="hsl(60, 29.599999999999998%, 100%)"></rect><rect data-v-528fb24a="" x="22.338623661025906" y="16.12396636855864" width="3.4060183774860873" height="0.6159942175911594" rx="1" stroke="none" fill="hsl(60, 29.599999999999998%, 100%)"></rect></g></g><g data-v-528fb24a="" mask="url(#mask__background)"><g data-v-528fb24a="" transform="translate(3.0079186839778593 -4.9670392610252545) rotate(0.24912669237901142 25.19126178616176 29.28422771148205)"><g data-v-528fb24a="" transform=""><!----><path data-v-528fb24a="" d="M11.0627610035894,22.004149767310906 a0.7312356427859091, 0.6171628673107179 0 0,0 15.328095925131539, 0.5863090611939379" fill="hsl(148, 59.53333333333333%, 100%)"></path></g><rect data-v-528fb24a="" x="10.255357961488006" y="16.12396636855864" width="3.4060183774860873" height="0.6159942175911594" rx="1" stroke="none" fill="hsl(148, 59.53333333333333%, 100%)"></rect><rect data-v-528fb24a="" x="22.338623661025906" y="16.12396636855864" width="3.4060183774860873" height="0.6159942175911594" rx="1" stroke="none" fill="hsl(148, 59.53333333333333%, 100%)"></rect></g></g></svg>