<svg data-v-528fb24a="" viewBox="0 0 36 36" fill="none" xmlns="http://www.w3.org/2000/svg" width="256" height="256" id="avatar"><title data-v-528fb24a="">Simple Avatar</title><desc data-v-528fb24a="">CREATED BY XUAN TANG, MORE INFO AT TXSTC55.GITHUB.IO</desc><rect data-v-528fb24a="" width="36" height="36" fill="#464249"></rect><mask data-v-528fb24a="" id="mask__foreground" maskUnits="userSpaceOnUse" x="0" y="0" width="100" height="100"><rect data-v-528fb24a="" x="0" y="0" width="36" height="36" transform="translate(-0.6280588786567698 -1.3356055250768795) rotate(8.560497852491196 10.083662544038134 17.267514663677932)scale(1.1032485896104214)" rx="7.026649100014531" fill="white"></rect><!----></mask><mask data-v-528fb24a="" id="mask__background" maskUnits="userSpaceOnUse" x="0" y="0" width="100" height="100"><rect data-v-528fb24a="" id="test" x="0" y="0" width="36" height="36" fill="white"></rect><rect data-v-528fb24a="" x="3" y="3" width="30" height="30" transform="translate(-0.6280588786567698 -1.3356055250768795) rotate(8.560497852491196 10.083662544038134 17.267514663677932)scale(1.1032485896104214)" rx="7.026649100014531" fill="black"></rect><!----></mask><rect data-v-528fb24a="" x="0" y="0" width="36" height="36" fill="#264653" mask="url(#mask__foreground)"></rect><g data-v-528fb24a="" mask="url(#mask__foreground)"><g data-v-528fb24a="" transform="translate(4.703214625609618 2.618788150642553) rotate(3.5961927975809402 29.14968957014556 35.904212534460086)"><g data-v-528fb24a="" transform=""><path data-v-528fb24a="" d="M12.766521865133047 22.21345506753539c2.5829470927484923 3.6528856475075946 7.933216482665339 3.9445923482162106 10.466956269733908 0" stroke="#ffffee" fill="none" stroke-linecap="round"></path><!----></g><rect data-v-528fb24a="" x="6.537129274912149" y="10.336263788618652" width="4.657760394632558" height="2.9680527993024546" rx="1" stroke="none" fill="#ffffee"></rect><rect data-v-528fb24a="" x="24.805110330455292" y="10.336263788618652" width="4.657760394632558" height="2.9680527993024546" rx="1" stroke="none" fill="#ffffee"></rect></g></g><g data-v-528fb24a="" mask="url(#mask__background)"><g data-v-528fb24a="" transform="translate(4.703214625609618 2.618788150642553) rotate(3.5961927975809402 29.14968957014556 35.904212534460086)"><g data-v-528fb24a="" transform=""><path data-v-528fb24a="" d="M12.766521865133047 22.21345506753539c2.5829470927484923 3.6528856475075946 7.933216482665339 3.9445923482162106 10.466956269733908 0" stroke="#ffffee" fill="none" stroke-linecap="round"></path><!----></g><rect data-v-528fb24a="" x="6.537129274912149" y="10.336263788618652" width="4.657760394632558" height="2.9680527993024546" rx="1" stroke="none" fill="#ffffee"></rect><rect data-v-528fb24a="" x="24.805110330455292" y="10.336263788618652" width="4.657760394632558" height="2.9680527993024546" rx="1" stroke="none" fill="#ffffee"></rect></g></g></svg>