<svg data-v-528fb24a="" viewBox="0 0 36 36" fill="none" xmlns="http://www.w3.org/2000/svg" width="256" height="256" id="avatar"><title data-v-528fb24a="">Simple Avatar</title><desc data-v-528fb24a="">CREATED BY XUAN TANG, MORE INFO AT TXSTC55.GITHUB.IO</desc><rect data-v-528fb24a="" width="36" height="36" fill="#26547c"></rect><mask data-v-528fb24a="" id="mask__foreground" maskUnits="userSpaceOnUse" x="0" y="0" width="100" height="100"><rect data-v-528fb24a="" x="0" y="0" width="36" height="36" transform="translate(-3.0260731654054562 -4.203918195584397) rotate(1.7988809461695965 26.498144268865378 4.117882489808638)scale(1.1720084783671758)" rx="15.52136083366419" fill="white"></rect><!----></mask><mask data-v-528fb24a="" id="mask__background" maskUnits="userSpaceOnUse" x="0" y="0" width="100" height="100"><rect data-v-528fb24a="" id="test" x="0" y="0" width="36" height="36" fill="white"></rect><rect data-v-528fb24a="" x="3" y="3" width="30" height="30" transform="translate(-3.0260731654054562 -4.203918195584397) rotate(1.7988809461695965 26.498144268865378 4.117882489808638)scale(1.1720084783671758)" rx="15.52136083366419" fill="black"></rect><!----></mask><rect data-v-528fb24a="" x="0" y="0" width="36" height="36" fill="#e63946" mask="url(#mask__foreground)"></rect><g data-v-528fb24a="" mask="url(#mask__foreground)"><g data-v-528fb24a="" transform="translate(2.769930666319227 2.9113171604689914) rotate(6.072627919068147 30.62906035188223 20.063956379337434)"><g data-v-528fb24a="" transform="rotate(180 18 22.4747766505361)"><!----><path data-v-528fb24a="" d="M11.021410191432256,20.950220663325805 a0.7574359584645322, 0.8252811994756456 0 0,0 14.278982431321056, 1.398549575469295" fill="#ffffee"></path></g><rect data-v-528fb24a="" x="9.895174378160274" y="11.142981400905988" width="2.2004005069528754" height="2.8495290386576535" rx="1" stroke="none" fill="#ffffee"></rect><rect data-v-528fb24a="" x="23.904425114886852" y="11.142981400905988" width="2.2004005069528754" height="2.8495290386576535" rx="1" stroke="none" fill="#ffffee"></rect></g></g><g data-v-528fb24a="" mask="url(#mask__background)"><g data-v-528fb24a="" transform="translate(2.769930666319227 2.9113171604689914) rotate(6.072627919068147 30.62906035188223 20.063956379337434)"><g data-v-528fb24a="" transform="rotate(180 18 22.4747766505361)"><!----><path data-v-528fb24a="" d="M11.021410191432256,20.950220663325805 a0.7574359584645322, 0.8252811994756456 0 0,0 14.278982431321056, 1.398549575469295" fill="#ffffee"></path></g><rect data-v-528fb24a="" x="9.895174378160274" y="11.142981400905988" width="2.2004005069528754" height="2.8495290386576535" rx="1" stroke="none" fill="#ffffee"></rect><rect data-v-528fb24a="" x="23.904425114886852" y="11.142981400905988" width="2.2004005069528754" height="2.8495290386576535" rx="1" stroke="none" fill="#ffffee"></rect></g></g></svg>