<svg data-v-528fb24a="" viewBox="0 0 36 36" fill="none" xmlns="http://www.w3.org/2000/svg" width="256" height="256" id="avatar"><title data-v-528fb24a="">Simple Avatar</title><desc data-v-528fb24a="">CREATED BY XUAN TANG, MORE INFO AT TXSTC55.GITHUB.IO</desc><rect data-v-528fb24a="" width="36" height="36" fill="#ef476f"></rect><mask data-v-528fb24a="" id="mask__foreground" maskUnits="userSpaceOnUse" x="0" y="0" width="100" height="100"><rect data-v-528fb24a="" x="0" y="0" width="36" height="36" transform="translate(2.161876874473723 -0.5806982744079869) rotate(1.474744361630023 3.952129376224261 11.834514519845566)scale(1.1995825461365301)" rx="17.19368271272719" fill="white"></rect><!----></mask><mask data-v-528fb24a="" id="mask__background" maskUnits="userSpaceOnUse" x="0" y="0" width="100" height="100"><rect data-v-528fb24a="" id="test" x="0" y="0" width="36" height="36" fill="white"></rect><rect data-v-528fb24a="" x="3" y="3" width="30" height="30" transform="translate(2.161876874473723 -0.5806982744079869) rotate(1.474744361630023 3.952129376224261 11.834514519845566)scale(1.1995825461365301)" rx="17.19368271272719" fill="black"></rect><!----></mask><rect data-v-528fb24a="" x="0" y="0" width="36" height="36" fill="#471069" mask="url(#mask__foreground)"></rect><g data-v-528fb24a="" mask="url(#mask__foreground)"><g data-v-528fb24a="" transform="translate(1.7490273048170257 3.3107647904868305) rotate(7.399717929669123 21.510434888724674 30.912714988917678)"><g data-v-528fb24a="" transform="rotate(180 18 19.953155612882217)"><!----><path data-v-528fb24a="" d="M14.69299234495984,19.716393077645215 a0.6272590942981949, 0.5032461875667321 0 0,0 5.354141615642858, -0.7809931181223875" fill="#ffffee"></path></g><rect data-v-528fb24a="" x="7.932102905196798" y="10.88134253185687" width="3.4729736426119064" height="0.8570513943400794" rx="1" stroke="none" fill="#ffffee"></rect><rect data-v-528fb24a="" x="24.594923452191296" y="10.88134253185687" width="3.4729736426119064" height="0.8570513943400794" rx="1" stroke="none" fill="#ffffee"></rect></g></g><g data-v-528fb24a="" mask="url(#mask__background)"><g data-v-528fb24a="" transform="translate(1.7490273048170257 3.3107647904868305) rotate(7.399717929669123 21.510434888724674 30.912714988917678)"><g data-v-528fb24a="" transform="rotate(180 18 19.953155612882217)"><!----><path data-v-528fb24a="" d="M14.69299234495984,19.716393077645215 a0.6272590942981949, 0.5032461875667321 0 0,0 5.354141615642858, -0.7809931181223875" fill="#ffffee"></path></g><rect data-v-528fb24a="" x="7.932102905196798" y="10.88134253185687" width="3.4729736426119064" height="0.8570513943400794" rx="1" stroke="none" fill="#ffffee"></rect><rect data-v-528fb24a="" x="24.594923452191296" y="10.88134253185687" width="3.4729736426119064" height="0.8570513943400794" rx="1" stroke="none" fill="#ffffee"></rect></g></g></svg>