<svg data-v-528fb24a="" viewBox="0 0 36 36" fill="none" xmlns="http://www.w3.org/2000/svg" width="256" height="256" id="avatar"><title data-v-528fb24a="">Simple Avatar</title><desc data-v-528fb24a="">CREATED BY XUAN TANG, MORE INFO AT TXSTC55.GITHUB.IO</desc><rect data-v-528fb24a="" width="36" height="36" fill="#000000"></rect><mask data-v-528fb24a="" id="mask__foreground" maskUnits="userSpaceOnUse" x="0" y="0" width="100" height="100"><rect data-v-528fb24a="" x="0" y="0" width="36" height="36" transform="translate(2.1291371282688676 -0.7265847237314427) rotate(-18.846340840279918 13.715782835967252 21.226765842875356)scale(1.035204144796168)" rx="8.44545210045193" fill="white"></rect><!----></mask><mask data-v-528fb24a="" id="mask__background" maskUnits="userSpaceOnUse" x="0" y="0" width="100" height="100"><rect data-v-528fb24a="" id="test" x="0" y="0" width="36" height="36" fill="white"></rect><rect data-v-528fb24a="" x="3" y="3" width="30" height="30" transform="translate(2.1291371282688676 -0.7265847237314427) rotate(-18.846340840279918 13.715782835967252 21.226765842875356)scale(1.035204144796168)" rx="8.44545210045193" fill="black"></rect><!----></mask><rect data-v-528fb24a="" x="0" y="0" width="36" height="36" fill="#2a9d8f" mask="url(#mask__foreground)"></rect><g data-v-528fb24a="" mask="url(#mask__foreground)"><g data-v-528fb24a="" transform="translate(-3.399137596378181 -4.126095162975969) rotate(-1.8974081326863477 31.877220953220696 26.78824682421748)"><g data-v-528fb24a="" transform=""><!----><path data-v-528fb24a="" d="M11.023226631922931,22.650382734652823 a0.6138404334169858, 0.503525918676193 0 0,0 14.69771534392082, -0.49991955547270606" fill="#ffffee"></path></g><rect data-v-528fb24a="" x="13.05184463444182" y="15.673543011922492" width="2.3266862778582764" height="0.7912018253021348" rx="1" stroke="none" fill="#ffffee"></rect><rect data-v-528fb24a="" x="20.621469087699904" y="15.673543011922492" width="2.3266862778582764" height="0.7912018253021348" rx="1" stroke="none" fill="#ffffee"></rect></g></g><g data-v-528fb24a="" mask="url(#mask__background)"><g data-v-528fb24a="" transform="translate(-3.399137596378181 -4.126095162975969) rotate(-1.8974081326863477 31.877220953220696 26.78824682421748)"><g data-v-528fb24a="" transform=""><!----><path data-v-528fb24a="" d="M11.023226631922931,22.650382734652823 a0.6138404334169858, 0.503525918676193 0 0,0 14.69771534392082, -0.49991955547270606" fill="#ffffee"></path></g><rect data-v-528fb24a="" x="13.05184463444182" y="15.673543011922492" width="2.3266862778582764" height="0.7912018253021348" rx="1" stroke="none" fill="#ffffee"></rect><rect data-v-528fb24a="" x="20.621469087699904" y="15.673543011922492" width="2.3266862778582764" height="0.7912018253021348" rx="1" stroke="none" fill="#ffffee"></rect></g></g></svg>