<svg data-v-528fb24a="" viewBox="0 0 36 36" fill="none" xmlns="http://www.w3.org/2000/svg" width="256" height="256" id="avatar"><title data-v-528fb24a="">Simple Avatar</title><desc data-v-528fb24a="">CREATED BY XUAN TANG, MORE INFO AT TXSTC55.GITHUB.IO</desc><rect data-v-528fb24a="" width="36" height="36" fill="#508AA8"></rect><mask data-v-528fb24a="" id="mask__foreground" maskUnits="userSpaceOnUse" x="0" y="0" width="100" height="100"><!----><path data-v-528fb24a="" stroke-width="10.352140374364229" stroke-linecap="round" stroke-linejoin="round" stroke="white" fill="white" d="M 18,7.75128869404 32,32 4,32 z" transform="translate(-0.3443604931103934 -0.3251869613673559) rotate(-11.915843758410887 18 18)"></path></mask><mask data-v-528fb24a="" id="mask__background" maskUnits="userSpaceOnUse" x="0" y="0" width="100" height="100"><rect data-v-528fb24a="" id="test" x="0" y="0" width="36" height="36" fill="white"></rect><!----><path data-v-528fb24a="" stroke-width="10.352140374364229" stroke-linecap="round" stroke-linejoin="round" stroke="black" fill="black" d="M 18,7.75128869404 32,32 4,32 z" transform="translate(-0.3443604931103934 -0.3251869613673559) rotate(-11.915843758410887 18 18)"></path></mask><rect data-v-528fb24a="" x="0" y="0" width="36" height="36" fill="#408E91" mask="url(#mask__foreground)"></rect><g data-v-528fb24a="" mask="url(#mask__foreground)"><g data-v-528fb24a="" transform="translate(3.7843935712640313 2.8062908822680495) rotate(-3.637551159835759 32.3008783570595 24.872821533195598)"><g data-v-528fb24a="" transform=""><!----><path data-v-528fb24a="" d="M14.05382681298578,22.826594747574593 a0.601565076418873, 0.7851586610122083 0 0,0 8.893494353096196, 0.4603853850102795" fill="#ffffee"></path></g><rect data-v-528fb24a="" x="11.947539363148088" y="9.552819874479077" width="2.769168707615089" height="2.669058962245211" rx="1" stroke="none" fill="#ffffee"></rect><rect data-v-528fb24a="" x="21.283291929236825" y="9.552819874479077" width="2.769168707615089" height="2.669058962245211" rx="1" stroke="none" fill="#ffffee"></rect></g></g><g data-v-528fb24a="" mask="url(#mask__background)"><g data-v-528fb24a="" transform="translate(3.7843935712640313 2.8062908822680495) rotate(-3.637551159835759 32.3008783570595 24.872821533195598)"><g data-v-528fb24a="" transform=""><!----><path data-v-528fb24a="" d="M14.05382681298578,22.826594747574593 a0.601565076418873, 0.7851586610122083 0 0,0 8.893494353096196, 0.4603853850102795" fill="#ffffee"></path></g><rect data-v-528fb24a="" x="11.947539363148088" y="9.552819874479077" width="2.769168707615089" height="2.669058962245211" rx="1" stroke="none" fill="#ffffee"></rect><rect data-v-528fb24a="" x="21.283291929236825" y="9.552819874479077" width="2.769168707615089" height="2.669058962245211" rx="1" stroke="none" fill="#ffffee"></rect></g></g></svg>