<svg data-v-528fb24a="" viewBox="0 0 36 36" fill="none" xmlns="http://www.w3.org/2000/svg" width="256" height="256" id="avatar"><title data-v-528fb24a="">Simple Avatar</title><desc data-v-528fb24a="">CREATED BY XUAN TANG, MORE INFO AT TXSTC55.GITHUB.IO</desc><rect data-v-528fb24a="" width="36" height="36" fill="#748CAB"></rect><mask data-v-528fb24a="" id="mask__foreground" maskUnits="userSpaceOnUse" x="0" y="0" width="100" height="100"><rect data-v-528fb24a="" x="0" y="0" width="36" height="36" transform="translate(-3.7405676667676624 0.8111782443542754) rotate(1.8522655803399424 30.13092235527799 20.091169561292766)scale(1.0401887040513722)" rx="26.319359051151352" fill="white"></rect><!----></mask><mask data-v-528fb24a="" id="mask__background" maskUnits="userSpaceOnUse" x="0" y="0" width="100" height="100"><rect data-v-528fb24a="" id="test" x="0" y="0" width="36" height="36" fill="white"></rect><rect data-v-528fb24a="" x="3" y="3" width="30" height="30" transform="translate(-3.7405676667676624 0.8111782443542754) rotate(1.8522655803399424 30.13092235527799 20.091169561292766)scale(1.0401887040513722)" rx="26.319359051151352" fill="black"></rect><!----></mask><rect data-v-528fb24a="" x="0" y="0" width="36" height="36" fill="#fe7f2d" mask="url(#mask__foreground)"></rect><g data-v-528fb24a="" mask="url(#mask__foreground)"><g data-v-528fb24a="" transform="translate(0.5788525901166741 4.466526507927886) rotate(-7.975701341082955 30.409560495862436 35.69950101114188)"><g data-v-528fb24a="" transform="rotate(180 18 20.94565093318259)"><!----><path data-v-528fb24a="" d="M13.691572705298679,20.993687226130213 a0.5763365778134057, 0.5588627516132879 0 0,0 8.680531307604461, -1.2487457346387312" fill="#ffffee"></path></g><rect data-v-528fb24a="" x="8.846722097224179" y="12.89564041834739" width="4.612455894418714" height="2.796491415708754" rx="1" stroke="none" fill="#ffffee"></rect><rect data-v-528fb24a="" x="22.540822008357107" y="12.89564041834739" width="4.612455894418714" height="2.796491415708754" rx="1" stroke="none" fill="#ffffee"></rect></g></g><g data-v-528fb24a="" mask="url(#mask__background)"><g data-v-528fb24a="" transform="translate(0.5788525901166741 4.466526507927886) rotate(-7.975701341082955 30.409560495862436 35.69950101114188)"><g data-v-528fb24a="" transform="rotate(180 18 20.94565093318259)"><!----><path data-v-528fb24a="" d="M13.691572705298679,20.993687226130213 a0.5763365778134057, 0.5588627516132879 0 0,0 8.680531307604461, -1.2487457346387312" fill="#ffffee"></path></g><rect data-v-528fb24a="" x="8.846722097224179" y="12.89564041834739" width="4.612455894418714" height="2.796491415708754" rx="1" stroke="none" fill="#ffffee"></rect><rect data-v-528fb24a="" x="22.540822008357107" y="12.89564041834739" width="4.612455894418714" height="2.796491415708754" rx="1" stroke="none" fill="#ffffee"></rect></g></g></svg>