<svg data-v-528fb24a="" viewBox="0 0 36 36" fill="none" xmlns="http://www.w3.org/2000/svg" width="256" height="256" id="avatar"><title data-v-528fb24a="">Simple Avatar</title><desc data-v-528fb24a="">CREATED BY XUAN TANG, MORE INFO AT TXSTC55.GITHUB.IO</desc><rect data-v-528fb24a="" width="36" height="36" fill="#F6F1E9"></rect><mask data-v-528fb24a="" id="mask__foreground" maskUnits="userSpaceOnUse" x="0" y="0" width="100" height="100"><rect data-v-528fb24a="" x="0" y="0" width="36" height="36" transform="translate(-0.21111928204031472 -4.685310404020592) rotate(10.863417220577727 17.452111359947736 32.135869633232616)scale(1.047900191491014)" rx="23.073502560880023" fill="white"></rect><!----></mask><mask data-v-528fb24a="" id="mask__background" maskUnits="userSpaceOnUse" x="0" y="0" width="100" height="100"><rect data-v-528fb24a="" id="test" x="0" y="0" width="36" height="36" fill="white"></rect><rect data-v-528fb24a="" x="3" y="3" width="30" height="30" transform="translate(-0.21111928204031472 -4.685310404020592) rotate(10.863417220577727 17.452111359947736 32.135869633232616)scale(1.047900191491014)" rx="23.073502560880023" fill="black"></rect><!----></mask><rect data-v-528fb24a="" x="0" y="0" width="36" height="36" fill="#F0EBD8" mask="url(#mask__foreground)"></rect><g data-v-528fb24a="" mask="url(#mask__foreground)"><g data-v-528fb24a="" transform="translate(-2.036793580518219 2.325552209373784) rotate(-6.36040956926593 19.69369601206093 26.424143146548808)"><g data-v-528fb24a="" transform=""><path data-v-528fb24a="" d="M9.773307055119442 20.419464554167863c3.463289118854397 3.188861380145451 16.353351069062654 3.7910494388685905 16.453385889761115 0" stroke="hsl(37, 27.933333333333334%, 100%)" fill="none" stroke-linecap="round"></path><!----></g><rect data-v-528fb24a="" x="8.5062422554608" y="14.147044747282267" width="3.499362150635223" height="2.4836236674829544" rx="1" stroke="none" fill="hsl(37, 27.933333333333334%, 100%)"></rect><rect data-v-528fb24a="" x="23.994395593903977" y="14.147044747282267" width="3.499362150635223" height="2.4836236674829544" rx="1" stroke="none" fill="hsl(37, 27.933333333333334%, 100%)"></rect></g></g><g data-v-528fb24a="" mask="url(#mask__background)"><g data-v-528fb24a="" transform="translate(-2.036793580518219 2.325552209373784) rotate(-6.36040956926593 19.69369601206093 26.424143146548808)"><g data-v-528fb24a="" transform=""><path data-v-528fb24a="" d="M9.773307055119442 20.419464554167863c3.463289118854397 3.188861380145451 16.353351069062654 3.7910494388685905 16.453385889761115 0" stroke="hsl(47, 29.599999999999998%, 100%)" fill="none" stroke-linecap="round"></path><!----></g><rect data-v-528fb24a="" x="8.5062422554608" y="14.147044747282267" width="3.499362150635223" height="2.4836236674829544" rx="1" stroke="none" fill="hsl(47, 29.599999999999998%, 100%)"></rect><rect data-v-528fb24a="" x="23.994395593903977" y="14.147044747282267" width="3.499362150635223" height="2.4836236674829544" rx="1" stroke="none" fill="hsl(47, 29.599999999999998%, 100%)"></rect></g></g></svg>