<svg data-v-528fb24a="" viewBox="0 0 36 36" fill="none" xmlns="http://www.w3.org/2000/svg" width="256" height="256" id="avatar"><title data-v-528fb24a="">Simple Avatar</title><desc data-v-528fb24a="">CREATED BY XUAN TANG, MORE INFO AT TXSTC55.GITHUB.IO</desc><rect data-v-528fb24a="" width="36" height="36" fill="#264653"></rect><mask data-v-528fb24a="" id="mask__foreground" maskUnits="userSpaceOnUse" x="0" y="0" width="100" height="100"><rect data-v-528fb24a="" x="0" y="0" width="36" height="36" transform="translate(-4.465560233380401 0.25506404420750073) rotate(3.6915641377757 20.86747678999454 5.760098227757101)scale(1.0747625085654686)" rx="27.247903320744754" fill="white"></rect><!----></mask><mask data-v-528fb24a="" id="mask__background" maskUnits="userSpaceOnUse" x="0" y="0" width="100" height="100"><rect data-v-528fb24a="" id="test" x="0" y="0" width="36" height="36" fill="white"></rect><rect data-v-528fb24a="" x="3" y="3" width="30" height="30" transform="translate(-4.465560233380401 0.25506404420750073) rotate(3.6915641377757 20.86747678999454 5.760098227757101)scale(1.0747625085654686)" rx="27.247903320744754" fill="black"></rect><!----></mask><rect data-v-528fb24a="" x="0" y="0" width="36" height="36" fill="#fe7f2d" mask="url(#mask__foreground)"></rect><g data-v-528fb24a="" mask="url(#mask__foreground)"><g data-v-528fb24a="" transform="translate(3.945683859355455 -3.423309226220501) rotate(2.95717575140249 24.874329878381076 25.57828049235525)"><g data-v-528fb24a="" transform=""><path data-v-528fb24a="" d="M12.109094943563283 20.99593029839712c2.5444644333045403 2.076155570404735 8.723430501048831 3.6248519962506838 11.781810112873433 0" stroke="#ffffee" fill="none" stroke-linecap="round"></path><!----></g><rect data-v-528fb24a="" x="10.804330656515788" y="13.447033393301007" width="2.066881512743797" height="2.769911331792801" rx="1" stroke="none" fill="#ffffee"></rect><rect data-v-528fb24a="" x="23.128787830740414" y="13.447033393301007" width="2.066881512743797" height="2.769911331792801" rx="1" stroke="none" fill="#ffffee"></rect></g></g><g data-v-528fb24a="" mask="url(#mask__background)"><g data-v-528fb24a="" transform="translate(3.945683859355455 -3.423309226220501) rotate(2.95717575140249 24.874329878381076 25.57828049235525)"><g data-v-528fb24a="" transform=""><path data-v-528fb24a="" d="M12.109094943563283 20.99593029839712c2.5444644333045403 2.076155570404735 8.723430501048831 3.6248519962506838 11.781810112873433 0" stroke="#ffffee" fill="none" stroke-linecap="round"></path><!----></g><rect data-v-528fb24a="" x="10.804330656515788" y="13.447033393301007" width="2.066881512743797" height="2.769911331792801" rx="1" stroke="none" fill="#ffffee"></rect><rect data-v-528fb24a="" x="23.128787830740414" y="13.447033393301007" width="2.066881512743797" height="2.769911331792801" rx="1" stroke="none" fill="#ffffee"></rect></g></g></svg>