<svg data-v-528fb24a="" viewBox="0 0 36 36" fill="none" xmlns="http://www.w3.org/2000/svg" width="256" height="256" id="avatar"><title data-v-528fb24a="">Simple Avatar</title><desc data-v-528fb24a="">CREATED BY XUAN TANG, MORE INFO AT TXSTC55.GITHUB.IO</desc><rect data-v-528fb24a="" width="36" height="36" fill="#000000"></rect><mask data-v-528fb24a="" id="mask__foreground" maskUnits="userSpaceOnUse" x="0" y="0" width="100" height="100"><rect data-v-528fb24a="" x="0" y="0" width="36" height="36" transform="translate(1.4751143442156671 1.768250197042689) rotate(7.909195580047026 14.59645539726681 26.190017660928106)scale(1.0971830280111816)" rx="27.648080758208458" fill="white"></rect><!----></mask><mask data-v-528fb24a="" id="mask__background" maskUnits="userSpaceOnUse" x="0" y="0" width="100" height="100"><rect data-v-528fb24a="" id="test" x="0" y="0" width="36" height="36" fill="white"></rect><rect data-v-528fb24a="" x="3" y="3" width="30" height="30" transform="translate(1.4751143442156671 1.768250197042689) rotate(7.909195580047026 14.59645539726681 26.190017660928106)scale(1.0971830280111816)" rx="27.648080758208458" fill="black"></rect><!----></mask><rect data-v-528fb24a="" x="0" y="0" width="36" height="36" fill="#508AA8" mask="url(#mask__foreground)"></rect><g data-v-528fb24a="" mask="url(#mask__foreground)"><g data-v-528fb24a="" transform="translate(4.272982503115939 -0.036135579562877496) rotate(-0.9291794298293041 24.63712906916237 29.232425544124027)"><g data-v-528fb24a="" transform="rotate(180 18 27.089942809647642)"><path data-v-528fb24a="" d="M11.907339496655688 25.90548196885255c0.36892168159018546 3.79475033177887 9.52171952561801 3.3793359787380273 12.185321006688627 0" stroke="#ffffee" fill="none" stroke-linecap="round"></path><!----></g><rect data-v-528fb24a="" x="9.541528215760374" y="9.003333848443202" width="2.1226669323510645" height="1.356550695634084" rx="1" stroke="none" fill="#ffffee"></rect><rect data-v-528fb24a="" x="24.33580485188856" y="9.003333848443202" width="2.1226669323510645" height="1.356550695634084" rx="1" stroke="none" fill="#ffffee"></rect></g></g><g data-v-528fb24a="" mask="url(#mask__background)"><g data-v-528fb24a="" transform="translate(4.272982503115939 -0.036135579562877496) rotate(-0.9291794298293041 24.63712906916237 29.232425544124027)"><g data-v-528fb24a="" transform="rotate(180 18 27.089942809647642)"><path data-v-528fb24a="" d="M11.907339496655688 25.90548196885255c0.36892168159018546 3.79475033177887 9.52171952561801 3.3793359787380273 12.185321006688627 0" stroke="#ffffee" fill="none" stroke-linecap="round"></path><!----></g><rect data-v-528fb24a="" x="9.541528215760374" y="9.003333848443202" width="2.1226669323510645" height="1.356550695634084" rx="1" stroke="none" fill="#ffffee"></rect><rect data-v-528fb24a="" x="24.33580485188856" y="9.003333848443202" width="2.1226669323510645" height="1.356550695634084" rx="1" stroke="none" fill="#ffffee"></rect></g></g></svg>