<svg data-v-528fb24a="" viewBox="0 0 36 36" fill="none" xmlns="http://www.w3.org/2000/svg" width="256" height="256" id="avatar"><title data-v-528fb24a="">Simple Avatar</title><desc data-v-528fb24a="">CREATED BY XUAN TANG, MORE INFO AT TXSTC55.GITHUB.IO</desc><rect data-v-528fb24a="" width="36" height="36" fill="#023d67"></rect><mask data-v-528fb24a="" id="mask__foreground" maskUnits="userSpaceOnUse" x="0" y="0" width="100" height="100"><!----><path data-v-528fb24a="" stroke-width="10.318262104525209" stroke-linecap="round" stroke-linejoin="round" stroke="white" fill="white" d="M 18,7.75128869404 32,32 4,32 z" transform="translate(-1.0817427330884555 1.7552966429136845) rotate(25.74952664454657 18 18)"></path></mask><mask data-v-528fb24a="" id="mask__background" maskUnits="userSpaceOnUse" x="0" y="0" width="100" height="100"><rect data-v-528fb24a="" id="test" x="0" y="0" width="36" height="36" fill="white"></rect><!----><path data-v-528fb24a="" stroke-width="10.318262104525209" stroke-linecap="round" stroke-linejoin="round" stroke="black" fill="black" d="M 18,7.75128869404 32,32 4,32 z" transform="translate(-1.0817427330884555 1.7552966429136845) rotate(25.74952664454657 18 18)"></path></mask><rect data-v-528fb24a="" x="0" y="0" width="36" height="36" fill="#748CAB" mask="url(#mask__foreground)"></rect><g data-v-528fb24a="" mask="url(#mask__foreground)"><g data-v-528fb24a="" transform="translate(2.2655663005294553 -3.9802452259392407) rotate(-2.422636122451336 28.765129331370378 25.154087900284154)"><g data-v-528fb24a="" transform="rotate(180 18 24.802478289133305)"><path data-v-528fb24a="" d="M9.665707486109108 23.050848363559638c1.5032598511473312 2.7834293809222705 14.081012387162485 2.6852808694503745 16.668585027781784 0" stroke="#ffffee" fill="none" stroke-linecap="round"></path><!----></g><rect data-v-528fb24a="" x="8.715563007849628" y="13.396285622856276" width="5.536452448863598" height="2.8812885414245706" rx="1" stroke="none" fill="#ffffee"></rect><rect data-v-528fb24a="" x="21.747984543286773" y="13.396285622856276" width="5.536452448863598" height="2.8812885414245706" rx="1" stroke="none" fill="#ffffee"></rect></g></g><g data-v-528fb24a="" mask="url(#mask__background)"><g data-v-528fb24a="" transform="translate(2.2655663005294553 -3.9802452259392407) rotate(-2.422636122451336 28.765129331370378 25.154087900284154)"><g data-v-528fb24a="" transform="rotate(180 18 24.802478289133305)"><path data-v-528fb24a="" d="M9.665707486109108 23.050848363559638c1.5032598511473312 2.7834293809222705 14.081012387162485 2.6852808694503745 16.668585027781784 0" stroke="#ffffee" fill="none" stroke-linecap="round"></path><!----></g><rect data-v-528fb24a="" x="8.715563007849628" y="13.396285622856276" width="5.536452448863598" height="2.8812885414245706" rx="1" stroke="none" fill="#ffffee"></rect><rect data-v-528fb24a="" x="21.747984543286773" y="13.396285622856276" width="5.536452448863598" height="2.8812885414245706" rx="1" stroke="none" fill="#ffffee"></rect></g></g></svg>