<svg data-v-528fb24a="" viewBox="0 0 36 36" fill="none" xmlns="http://www.w3.org/2000/svg" width="256" height="256" id="avatar"><title data-v-528fb24a="">Simple Avatar</title><desc data-v-528fb24a="">CREATED BY XUAN TANG, MORE INFO AT TXSTC55.GITHUB.IO</desc><rect data-v-528fb24a="" width="36" height="36" fill="#ebd1c4"></rect><mask data-v-528fb24a="" id="mask__foreground" maskUnits="userSpaceOnUse" x="0" y="0" width="100" height="100"><rect data-v-528fb24a="" x="0" y="0" width="36" height="36" transform="translate(-3.468181497766991 4.733623751931759) rotate(-0.12763199933762337 16.080533786006423 11.977193406321717)scale(1.0417491929613174)" rx="21.33860747417006" fill="white"></rect><!----></mask><mask data-v-528fb24a="" id="mask__background" maskUnits="userSpaceOnUse" x="0" y="0" width="100" height="100"><rect data-v-528fb24a="" id="test" x="0" y="0" width="36" height="36" fill="white"></rect><rect data-v-528fb24a="" x="3" y="3" width="30" height="30" transform="translate(-3.468181497766991 4.733623751931759) rotate(-0.12763199933762337 16.080533786006423 11.977193406321717)scale(1.0417491929613174)" rx="21.33860747417006" fill="black"></rect><!----></mask><rect data-v-528fb24a="" x="0" y="0" width="36" height="36" fill="#ebd1c4" mask="url(#mask__foreground)"></rect><g data-v-528fb24a="" mask="url(#mask__foreground)"><g data-v-528fb24a="" transform="translate(-4.852323896126853 -2.7532219752373632) rotate(-3.1448401697954065 22.30531094507971 27.099981854877285)"><g data-v-528fb24a="" transform="rotate(180 18 21.47894485095723)"><path data-v-528fb24a="" d="M10.280448783895167 20.418197795237905c0.12149411143864963 3.829376196337768 15.147545190759057 3.154844014607167 15.439102432209665 0" stroke="hsl(20, 32.93333333333333%, 100%)" fill="none" stroke-linecap="round"></path><!----></g><rect data-v-528fb24a="" x="10.70328557172755" y="12.887218075996053" width="2.892964787100338" height="2.7784429917896505" rx="1" stroke="none" fill="hsl(20, 32.93333333333333%, 100%)"></rect><rect data-v-528fb24a="" x="22.403749641172112" y="12.887218075996053" width="2.892964787100338" height="2.7784429917896505" rx="1" stroke="none" fill="hsl(20, 32.93333333333333%, 100%)"></rect></g></g><g data-v-528fb24a="" mask="url(#mask__background)"><g data-v-528fb24a="" transform="translate(-4.852323896126853 -2.7532219752373632) rotate(-3.1448401697954065 22.30531094507971 27.099981854877285)"><g data-v-528fb24a="" transform="rotate(180 18 21.47894485095723)"><path data-v-528fb24a="" d="M10.280448783895167 20.418197795237905c0.12149411143864963 3.829376196337768 15.147545190759057 3.154844014607167 15.439102432209665 0" stroke="hsl(20, 32.93333333333333%, 100%)" fill="none" stroke-linecap="round"></path><!----></g><rect data-v-528fb24a="" x="10.70328557172755" y="12.887218075996053" width="2.892964787100338" height="2.7784429917896505" rx="1" stroke="none" fill="hsl(20, 32.93333333333333%, 100%)"></rect><rect data-v-528fb24a="" x="22.403749641172112" y="12.887218075996053" width="2.892964787100338" height="2.7784429917896505" rx="1" stroke="none" fill="hsl(20, 32.93333333333333%, 100%)"></rect></g></g></svg>