<svg data-v-528fb24a="" viewBox="0 0 36 36" fill="none" xmlns="http://www.w3.org/2000/svg" width="256" height="256" id="avatar"><title data-v-528fb24a="">Simple Avatar</title><desc data-v-528fb24a="">CREATED BY XUAN TANG, MORE INFO AT TXSTC55.GITHUB.IO</desc><rect data-v-528fb24a="" width="36" height="36" fill="#ebd1c4"></rect><mask data-v-528fb24a="" id="mask__foreground" maskUnits="userSpaceOnUse" x="0" y="0" width="100" height="100"><!----><path data-v-528fb24a="" stroke-width="10.051089996454817" stroke-linecap="round" stroke-linejoin="round" stroke="white" fill="white" d="M 18,7.75128869404 32,32 4,32 z" transform="translate(-1.1031102511208735 -0.6058788117652192) rotate(13.46200623013911 18 18)"></path></mask><mask data-v-528fb24a="" id="mask__background" maskUnits="userSpaceOnUse" x="0" y="0" width="100" height="100"><rect data-v-528fb24a="" id="test" x="0" y="0" width="36" height="36" fill="white"></rect><!----><path data-v-528fb24a="" stroke-width="10.051089996454817" stroke-linecap="round" stroke-linejoin="round" stroke="black" fill="black" d="M 18,7.75128869404 32,32 4,32 z" transform="translate(-1.1031102511208735 -0.6058788117652192) rotate(13.46200623013911 18 18)"></path></mask><rect data-v-528fb24a="" x="0" y="0" width="36" height="36" fill="#9DD1F1" mask="url(#mask__foreground)"></rect><g data-v-528fb24a="" mask="url(#mask__foreground)"><g data-v-528fb24a="" transform="translate(4.041085455079065 3.654433931470763) rotate(0.6323258848724969 31.912471311673166 27.20761329764368)"><g data-v-528fb24a="" transform=""><!----><path data-v-528fb24a="" d="M13.701846909882155,20.64642081579484 a0.6475611438602911, 0.7633805702750145 0 0,0 9.668562384857719, 0.9415133964520743" fill="hsl(20, 32.93333333333333%, 100%)"></path></g><rect data-v-528fb24a="" x="9.10561146147278" y="15.073312721480828" width="2.7904811762705313" height="1.2298816516304103" rx="1" stroke="none" fill="hsl(20, 32.93333333333333%, 100%)"></rect><rect data-v-528fb24a="" x="24.103907362256688" y="15.073312721480828" width="2.7904811762705313" height="1.2298816516304103" rx="1" stroke="none" fill="hsl(20, 32.93333333333333%, 100%)"></rect></g></g><g data-v-528fb24a="" mask="url(#mask__background)"><g data-v-528fb24a="" transform="translate(4.041085455079065 3.654433931470763) rotate(0.6323258848724969 31.912471311673166 27.20761329764368)"><g data-v-528fb24a="" transform=""><!----><path data-v-528fb24a="" d="M13.701846909882155,20.64642081579484 a0.6475611438602911, 0.7633805702750145 0 0,0 9.668562384857719, 0.9415133964520743" fill="hsl(203, 50%, 100%)"></path></g><rect data-v-528fb24a="" x="9.10561146147278" y="15.073312721480828" width="2.7904811762705313" height="1.2298816516304103" rx="1" stroke="none" fill="hsl(203, 50%, 100%)"></rect><rect data-v-528fb24a="" x="24.103907362256688" y="15.073312721480828" width="2.7904811762705313" height="1.2298816516304103" rx="1" stroke="none" fill="hsl(203, 50%, 100%)"></rect></g></g></svg>