<svg data-v-528fb24a="" viewBox="0 0 36 36" fill="none" xmlns="http://www.w3.org/2000/svg" width="256" height="256" id="avatar"><title data-v-528fb24a="">Simple Avatar</title><desc data-v-528fb24a="">CREATED BY XUAN TANG, MORE INFO AT TXSTC55.GITHUB.IO</desc><rect data-v-528fb24a="" width="36" height="36" fill="#FFC1CF"></rect><mask data-v-528fb24a="" id="mask__foreground" maskUnits="userSpaceOnUse" x="0" y="0" width="100" height="100"><rect data-v-528fb24a="" x="0" y="0" width="36" height="36" transform="translate(-2.0298366289695946 4.451681484082783) rotate(17.173991031298712 16.224801636546804 31.32406103967818)scale(1.1825106207523919)" rx="24.829778932142858" fill="white"></rect><!----></mask><mask data-v-528fb24a="" id="mask__background" maskUnits="userSpaceOnUse" x="0" y="0" width="100" height="100"><rect data-v-528fb24a="" id="test" x="0" y="0" width="36" height="36" fill="white"></rect><rect data-v-528fb24a="" x="3" y="3" width="30" height="30" transform="translate(-2.0298366289695946 4.451681484082783) rotate(17.173991031298712 16.224801636546804 31.32406103967818)scale(1.1825106207523919)" rx="24.829778932142858" fill="black"></rect><!----></mask><rect data-v-528fb24a="" x="0" y="0" width="36" height="36" fill="#9DD1F1" mask="url(#mask__foreground)"></rect><g data-v-528fb24a="" mask="url(#mask__foreground)"><g data-v-528fb24a="" transform="translate(-1.1151993907962288 4.185893237247459) rotate(3.3399561290520943 31.348899332549976 19.250553188227492)"><g data-v-528fb24a="" transform=""><!----><path data-v-528fb24a="" d="M10.480168082575643,22.48912418755517 a0.5147059239227496, 0.5214753602590398 0 0,0 14.173270312506663, 0.5001782172596432" fill="hsl(346, 66.66666666666667%, 100%)"></path></g><rect data-v-528fb24a="" x="10.889307497320193" y="14.133457902996721" width="3.2104472453624275" height="2.522332691572682" rx="1" stroke="none" fill="hsl(346, 66.66666666666667%, 100%)"></rect><rect data-v-528fb24a="" x="21.90024525731738" y="14.133457902996721" width="3.2104472453624275" height="2.522332691572682" rx="1" stroke="none" fill="hsl(346, 66.66666666666667%, 100%)"></rect></g></g><g data-v-528fb24a="" mask="url(#mask__background)"><g data-v-528fb24a="" transform="translate(-1.1151993907962288 4.185893237247459) rotate(3.3399561290520943 31.348899332549976 19.250553188227492)"><g data-v-528fb24a="" transform=""><!----><path data-v-528fb24a="" d="M10.480168082575643,22.48912418755517 a0.5147059239227496, 0.5214753602590398 0 0,0 14.173270312506663, 0.5001782172596432" fill="hsl(203, 50%, 100%)"></path></g><rect data-v-528fb24a="" x="10.889307497320193" y="14.133457902996721" width="3.2104472453624275" height="2.522332691572682" rx="1" stroke="none" fill="hsl(203, 50%, 100%)"></rect><rect data-v-528fb24a="" x="21.90024525731738" y="14.133457902996721" width="3.2104472453624275" height="2.522332691572682" rx="1" stroke="none" fill="hsl(203, 50%, 100%)"></rect></g></g></svg>