<svg data-v-528fb24a="" viewBox="0 0 36 36" fill="none" xmlns="http://www.w3.org/2000/svg" width="256" height="256" id="avatar"><title data-v-528fb24a="">Simple Avatar</title><desc data-v-528fb24a="">CREATED BY XUAN TANG, MORE INFO AT TXSTC55.GITHUB.IO</desc><rect data-v-528fb24a="" width="36" height="36" fill="#30c5d2"></rect><mask data-v-528fb24a="" id="mask__foreground" maskUnits="userSpaceOnUse" x="0" y="0" width="100" height="100"><rect data-v-528fb24a="" x="0" y="0" width="36" height="36" transform="translate(0.19807900988267235 4.21368414241118) rotate(0.024156252277698798 14.706011352555603 4.004271796363012)scale(1.1091983317560652)" rx="21.799381641379988" fill="white"></rect><!----></mask><mask data-v-528fb24a="" id="mask__background" maskUnits="userSpaceOnUse" x="0" y="0" width="100" height="100"><rect data-v-528fb24a="" id="test" x="0" y="0" width="36" height="36" fill="white"></rect><rect data-v-528fb24a="" x="3" y="3" width="30" height="30" transform="translate(0.19807900988267235 4.21368414241118) rotate(0.024156252277698798 14.706011352555603 4.004271796363012)scale(1.1091983317560652)" rx="21.799381641379988" fill="black"></rect><!----></mask><rect data-v-528fb24a="" x="0" y="0" width="36" height="36" fill="#4F200D" mask="url(#mask__foreground)"></rect><g data-v-528fb24a="" mask="url(#mask__foreground)"><g data-v-528fb24a="" transform="translate(-4.024590179853737 -0.11316420223308654) rotate(-0.40378541485591946 24.38409382588447 26.29493165495904)"><g data-v-528fb24a="" transform="rotate(180 18 22.118785819625945)"><!----><path data-v-528fb24a="" d="M13.143756658583348,21.827527801323278 a0.6875504940464122, 0.8680070570199534 0 0,0 10.977989493972776, -1.1534980130513373" fill="#ffffee"></path></g><rect data-v-528fb24a="" x="9.19071452687512" y="16.24278055682759" width="2.1448991942037203" height="1.4149352580086678" rx="1" stroke="none" fill="#ffffee"></rect><rect data-v-528fb24a="" x="24.66438627892116" y="16.24278055682759" width="2.1448991942037203" height="1.4149352580086678" rx="1" stroke="none" fill="#ffffee"></rect></g></g><g data-v-528fb24a="" mask="url(#mask__background)"><g data-v-528fb24a="" transform="translate(-4.024590179853737 -0.11316420223308654) rotate(-0.40378541485591946 24.38409382588447 26.29493165495904)"><g data-v-528fb24a="" transform="rotate(180 18 22.118785819625945)"><!----><path data-v-528fb24a="" d="M13.143756658583348,21.827527801323278 a0.6875504940464122, 0.8680070570199534 0 0,0 10.977989493972776, -1.1534980130513373" fill="#ffffee"></path></g><rect data-v-528fb24a="" x="9.19071452687512" y="16.24278055682759" width="2.1448991942037203" height="1.4149352580086678" rx="1" stroke="none" fill="#ffffee"></rect><rect data-v-528fb24a="" x="24.66438627892116" y="16.24278055682759" width="2.1448991942037203" height="1.4149352580086678" rx="1" stroke="none" fill="#ffffee"></rect></g></g></svg>