<svg data-v-528fb24a="" viewBox="0 0 36 36" fill="none" xmlns="http://www.w3.org/2000/svg" width="256" height="256" id="avatar"><title data-v-528fb24a="">Simple Avatar</title><desc data-v-528fb24a="">CREATED BY XUAN TANG, MORE INFO AT TXSTC55.GITHUB.IO</desc><rect data-v-528fb24a="" width="36" height="36" fill="#30c5d2"></rect><mask data-v-528fb24a="" id="mask__foreground" maskUnits="userSpaceOnUse" x="0" y="0" width="100" height="100"><rect data-v-528fb24a="" x="0" y="0" width="36" height="36" transform="translate(0.44349551559766454 -3.8000438096254596) rotate(1.8443160911211365 33.67616190470147 0.046380303596532)scale(1.1210547080142437)" rx="4.8239426045021006" fill="white"></rect><!----></mask><mask data-v-528fb24a="" id="mask__background" maskUnits="userSpaceOnUse" x="0" y="0" width="100" height="100"><rect data-v-528fb24a="" id="test" x="0" y="0" width="36" height="36" fill="white"></rect><rect data-v-528fb24a="" x="3" y="3" width="30" height="30" transform="translate(0.44349551559766454 -3.8000438096254596) rotate(1.8443160911211365 33.67616190470147 0.046380303596532)scale(1.1210547080142437)" rx="4.8239426045021006" fill="black"></rect><!----></mask><rect data-v-528fb24a="" x="0" y="0" width="36" height="36" fill="#2a9d8f" mask="url(#mask__foreground)"></rect><g data-v-528fb24a="" mask="url(#mask__foreground)"><g data-v-528fb24a="" transform="translate(2.3780986490320615 -4.757188872498668) rotate(-4.098043578068125 28.818799130131136 30.33994565579487)"><g data-v-528fb24a="" transform=""><!----><path data-v-528fb24a="" d="M8.5694282409021,18.63875908096142 a0.6973513399406117, 0.5817579689218724 0 0,0 16.969324267507584, 0.37887058167612464" fill="#ffffee"></path></g><rect data-v-528fb24a="" x="8.77978819149073" y="9.526821267836233" width="3.4455835752112094" height="2.557002014557323" rx="1" stroke="none" fill="#ffffee"></rect><rect data-v-528fb24a="" x="23.77462823329806" y="9.526821267836233" width="3.4455835752112094" height="2.557002014557323" rx="1" stroke="none" fill="#ffffee"></rect></g></g><g data-v-528fb24a="" mask="url(#mask__background)"><g data-v-528fb24a="" transform="translate(2.3780986490320615 -4.757188872498668) rotate(-4.098043578068125 28.818799130131136 30.33994565579487)"><g data-v-528fb24a="" transform=""><!----><path data-v-528fb24a="" d="M8.5694282409021,18.63875908096142 a0.6973513399406117, 0.5817579689218724 0 0,0 16.969324267507584, 0.37887058167612464" fill="#ffffee"></path></g><rect data-v-528fb24a="" x="8.77978819149073" y="9.526821267836233" width="3.4455835752112094" height="2.557002014557323" rx="1" stroke="none" fill="#ffffee"></rect><rect data-v-528fb24a="" x="23.77462823329806" y="9.526821267836233" width="3.4455835752112094" height="2.557002014557323" rx="1" stroke="none" fill="#ffffee"></rect></g></g></svg>