<svg data-v-528fb24a="" viewBox="0 0 36 36" fill="none" xmlns="http://www.w3.org/2000/svg" width="256" height="256" id="avatar"><title data-v-528fb24a="">Simple Avatar</title><desc data-v-528fb24a="">CREATED BY XUAN TANG, MORE INFO AT TXSTC55.GITHUB.IO</desc><rect data-v-528fb24a="" width="36" height="36" fill="#C8E0F4"></rect><mask data-v-528fb24a="" id="mask__foreground" maskUnits="userSpaceOnUse" x="0" y="0" width="100" height="100"><rect data-v-528fb24a="" x="0" y="0" width="36" height="36" transform="translate(0.6271323954997214 4.2623195415331345) rotate(16.771805701329043 2.4770526113551927 34.3723199439711)scale(1.183397509093062)" rx="28.809405694421656" fill="white"></rect><!----></mask><mask data-v-528fb24a="" id="mask__background" maskUnits="userSpaceOnUse" x="0" y="0" width="100" height="100"><rect data-v-528fb24a="" id="test" x="0" y="0" width="36" height="36" fill="white"></rect><rect data-v-528fb24a="" x="3" y="3" width="30" height="30" transform="translate(0.6271323954997214 4.2623195415331345) rotate(16.771805701329043 2.4770526113551927 34.3723199439711)scale(1.183397509093062)" rx="28.809405694421656" fill="black"></rect><!----></mask><rect data-v-528fb24a="" x="0" y="0" width="36" height="36" fill="#FFD966" mask="url(#mask__foreground)"></rect><g data-v-528fb24a="" mask="url(#mask__foreground)"><g data-v-528fb24a="" transform="translate(0.10670618873886539 -0.3360890476449079) rotate(-3.743906861139572 26.312797274248048 30.403844662345023)"><g data-v-528fb24a="" transform="rotate(180 18 23.529418874033983)"><path data-v-528fb24a="" d="M12.546771446455317 20.621462252736105c3.8159132425957525 4.482644003581934 8.33361919948281 4.0165255336505705 10.906457107089368 0" stroke="hsl(207, 44.46666666666667%, 100%)" fill="none" stroke-linecap="round"></path><!----></g><rect data-v-528fb24a="" x="8.074214578354276" y="16.55871836914337" width="3.3848575907281377" height="1.0180604475452748" rx="1" stroke="none" fill="hsl(207, 44.46666666666667%, 100%)"></rect><rect data-v-528fb24a="" x="24.54092783091759" y="16.55871836914337" width="3.3848575907281377" height="1.0180604475452748" rx="1" stroke="none" fill="hsl(207, 44.46666666666667%, 100%)"></rect></g></g><g data-v-528fb24a="" mask="url(#mask__background)"><g data-v-528fb24a="" transform="translate(0.10670618873886539 -0.3360890476449079) rotate(-3.743906861139572 26.312797274248048 30.403844662345023)"><g data-v-528fb24a="" transform="rotate(180 18 23.529418874033983)"><path data-v-528fb24a="" d="M12.546771446455317 20.621462252736105c3.8159132425957525 4.482644003581934 8.33361919948281 4.0165255336505705 10.906457107089368 0" stroke="hsl(45, 66.66666666666667%, 100%)" fill="none" stroke-linecap="round"></path><!----></g><rect data-v-528fb24a="" x="8.074214578354276" y="16.55871836914337" width="3.3848575907281377" height="1.0180604475452748" rx="1" stroke="none" fill="hsl(45, 66.66666666666667%, 100%)"></rect><rect data-v-528fb24a="" x="24.54092783091759" y="16.55871836914337" width="3.3848575907281377" height="1.0180604475452748" rx="1" stroke="none" fill="hsl(45, 66.66666666666667%, 100%)"></rect></g></g></svg>