<svg data-v-528fb24a="" viewBox="0 0 36 36" fill="none" xmlns="http://www.w3.org/2000/svg" width="256" height="256" id="avatar"><title data-v-528fb24a="">Simple Avatar</title><desc data-v-528fb24a="">CREATED BY XUAN TANG, MORE INFO AT TXSTC55.GITHUB.IO</desc><rect data-v-528fb24a="" width="36" height="36" fill="#30c5d2"></rect><mask data-v-528fb24a="" id="mask__foreground" maskUnits="userSpaceOnUse" x="0" y="0" width="100" height="100"><rect data-v-528fb24a="" x="0" y="0" width="36" height="36" transform="translate(-3.7826725341305134 0.2332779342455149) rotate(13.686672696593448 5.567692826873691 34.590814690333616)scale(1.1815672451668797)" rx="10.004507457432624" fill="white"></rect><!----></mask><mask data-v-528fb24a="" id="mask__background" maskUnits="userSpaceOnUse" x="0" y="0" width="100" height="100"><rect data-v-528fb24a="" id="test" x="0" y="0" width="36" height="36" fill="white"></rect><rect data-v-528fb24a="" x="3" y="3" width="30" height="30" transform="translate(-3.7826725341305134 0.2332779342455149) rotate(13.686672696593448 5.567692826873691 34.590814690333616)scale(1.1815672451668797)" rx="10.004507457432624" fill="black"></rect><!----></mask><rect data-v-528fb24a="" x="0" y="0" width="36" height="36" fill="#e63946" mask="url(#mask__foreground)"></rect><g data-v-528fb24a="" mask="url(#mask__foreground)"><g data-v-528fb24a="" transform="translate(2.268661899122093 2.627268407190244) rotate(-1.5043733461170472 31.053809353345052 28.292842510440146)"><g data-v-528fb24a="" transform=""><!----><path data-v-528fb24a="" d="M14.14265583861874,21.141728194416206 a0.5148307656696282, 0.7243982867242081 0 0,0 7.2213509913300955, -0.9815645557267787" fill="#ffffee"></path></g><rect data-v-528fb24a="" x="10.328154847491502" y="14.566009055708133" width="5.198564237677825" height="0.6713880541844703" rx="1" stroke="none" fill="#ffffee"></rect><rect data-v-528fb24a="" x="20.473280914830674" y="14.566009055708133" width="5.198564237677825" height="0.6713880541844703" rx="1" stroke="none" fill="#ffffee"></rect></g></g><g data-v-528fb24a="" mask="url(#mask__background)"><g data-v-528fb24a="" transform="translate(2.268661899122093 2.627268407190244) rotate(-1.5043733461170472 31.053809353345052 28.292842510440146)"><g data-v-528fb24a="" transform=""><!----><path data-v-528fb24a="" d="M14.14265583861874,21.141728194416206 a0.5148307656696282, 0.7243982867242081 0 0,0 7.2213509913300955, -0.9815645557267787" fill="#ffffee"></path></g><rect data-v-528fb24a="" x="10.328154847491502" y="14.566009055708133" width="5.198564237677825" height="0.6713880541844703" rx="1" stroke="none" fill="#ffffee"></rect><rect data-v-528fb24a="" x="20.473280914830674" y="14.566009055708133" width="5.198564237677825" height="0.6713880541844703" rx="1" stroke="none" fill="#ffffee"></rect></g></g></svg>