<svg data-v-528fb24a="" viewBox="0 0 36 36" fill="none" xmlns="http://www.w3.org/2000/svg" width="256" height="256" id="avatar"><title data-v-528fb24a="">Simple Avatar</title><desc data-v-528fb24a="">CREATED BY XUAN TANG, MORE INFO AT TXSTC55.GITHUB.IO</desc><rect data-v-528fb24a="" width="36" height="36" fill="#245953"></rect><mask data-v-528fb24a="" id="mask__foreground" maskUnits="userSpaceOnUse" x="0" y="0" width="100" height="100"><rect data-v-528fb24a="" x="0" y="0" width="36" height="36" transform="translate(-4.260025442551376 -2.6504638204670328) rotate(-6.609413709402006 5.20919451406719 27.68494908441044)scale(1.1237496971807017)" rx="9.756891082423863" fill="white"></rect><!----></mask><mask data-v-528fb24a="" id="mask__background" maskUnits="userSpaceOnUse" x="0" y="0" width="100" height="100"><rect data-v-528fb24a="" id="test" x="0" y="0" width="36" height="36" fill="white"></rect><rect data-v-528fb24a="" x="3" y="3" width="30" height="30" transform="translate(-4.260025442551376 -2.6504638204670328) rotate(-6.609413709402006 5.20919451406719 27.68494908441044)scale(1.1237496971807017)" rx="9.756891082423863" fill="black"></rect><!----></mask><rect data-v-528fb24a="" x="0" y="0" width="36" height="36" fill="#26547c" mask="url(#mask__foreground)"></rect><g data-v-528fb24a="" mask="url(#mask__foreground)"><g data-v-528fb24a="" transform="translate(2.5629822732455416 2.884266059425391) rotate(8.05750116153888 34.214676152832055 24.079165240928717)"><g data-v-528fb24a="" transform=""><!----><path data-v-528fb24a="" d="M12.224714463403542,23.061006875644324 a0.5972040537017196, 0.7703235605648329 0 0,0 10.867265088905604, 1.1515139522080036" fill="#ffffee"></path></g><rect data-v-528fb24a="" x="9.368892711809771" y="12.724762384034308" width="5.290326827045863" height="2.045089422819678" rx="1" stroke="none" fill="#ffffee"></rect><rect data-v-528fb24a="" x="21.340780461144366" y="12.724762384034308" width="5.290326827045863" height="2.045089422819678" rx="1" stroke="none" fill="#ffffee"></rect></g></g><g data-v-528fb24a="" mask="url(#mask__background)"><g data-v-528fb24a="" transform="translate(2.5629822732455416 2.884266059425391) rotate(8.05750116153888 34.214676152832055 24.079165240928717)"><g data-v-528fb24a="" transform=""><!----><path data-v-528fb24a="" d="M12.224714463403542,23.061006875644324 a0.5972040537017196, 0.7703235605648329 0 0,0 10.867265088905604, 1.1515139522080036" fill="#ffffee"></path></g><rect data-v-528fb24a="" x="9.368892711809771" y="12.724762384034308" width="5.290326827045863" height="2.045089422819678" rx="1" stroke="none" fill="#ffffee"></rect><rect data-v-528fb24a="" x="21.340780461144366" y="12.724762384034308" width="5.290326827045863" height="2.045089422819678" rx="1" stroke="none" fill="#ffffee"></rect></g></g></svg>