<svg data-v-528fb24a="" viewBox="0 0 36 36" fill="none" xmlns="http://www.w3.org/2000/svg" width="256" height="256" id="avatar"><title data-v-528fb24a="">Simple Avatar</title><desc data-v-528fb24a="">CREATED BY XUAN TANG, MORE INFO AT TXSTC55.GITHUB.IO</desc><rect data-v-528fb24a="" width="36" height="36" fill="#000000"></rect><mask data-v-528fb24a="" id="mask__foreground" maskUnits="userSpaceOnUse" x="0" y="0" width="100" height="100"><rect data-v-528fb24a="" x="0" y="0" width="36" height="36" transform="translate(-2.683254788170577 -3.7975820205213395) rotate(14.67320904948133 2.4912735956541683 16.99035088904155)scale(1.122325991648983)" rx="5.0825535792012815" fill="white"></rect><!----></mask><mask data-v-528fb24a="" id="mask__background" maskUnits="userSpaceOnUse" x="0" y="0" width="100" height="100"><rect data-v-528fb24a="" id="test" x="0" y="0" width="36" height="36" fill="white"></rect><rect data-v-528fb24a="" x="3" y="3" width="30" height="30" transform="translate(-2.683254788170577 -3.7975820205213395) rotate(14.67320904948133 2.4912735956541683 16.99035088904155)scale(1.122325991648983)" rx="5.0825535792012815" fill="black"></rect><!----></mask><rect data-v-528fb24a="" x="0" y="0" width="36" height="36" fill="#000000" mask="url(#mask__foreground)"></rect><g data-v-528fb24a="" mask="url(#mask__foreground)"><g data-v-528fb24a="" transform="translate(2.933973802532166 -1.3161029919490819) rotate(4.915066172657738 25.17338031130942 21.75336297784401)"><g data-v-528fb24a="" transform="rotate(180 18 24.875990762535984)"><path data-v-528fb24a="" d="M12.168751218702107 23.456111901488054c0.8397577220958627 3.2136273842642225 8.781095528251917 1.6854641430009303 11.662497562595785 0" stroke="#ffffee" fill="none" stroke-linecap="round"></path><!----></g><rect data-v-528fb24a="" x="9.859520682378196" y="12.628919994403864" width="4.856130618016155" height="1.85134398397394" rx="1" stroke="none" fill="#ffffee"></rect><rect data-v-528fb24a="" x="21.284348699605648" y="12.628919994403864" width="4.856130618016155" height="1.85134398397394" rx="1" stroke="none" fill="#ffffee"></rect></g></g><g data-v-528fb24a="" mask="url(#mask__background)"><g data-v-528fb24a="" transform="translate(2.933973802532166 -1.3161029919490819) rotate(4.915066172657738 25.17338031130942 21.75336297784401)"><g data-v-528fb24a="" transform="rotate(180 18 24.875990762535984)"><path data-v-528fb24a="" d="M12.168751218702107 23.456111901488054c0.8397577220958627 3.2136273842642225 8.781095528251917 1.6854641430009303 11.662497562595785 0" stroke="#ffffee" fill="none" stroke-linecap="round"></path><!----></g><rect data-v-528fb24a="" x="9.859520682378196" y="12.628919994403864" width="4.856130618016155" height="1.85134398397394" rx="1" stroke="none" fill="#ffffee"></rect><rect data-v-528fb24a="" x="21.284348699605648" y="12.628919994403864" width="4.856130618016155" height="1.85134398397394" rx="1" stroke="none" fill="#ffffee"></rect></g></g></svg>