<svg data-v-528fb24a="" viewBox="0 0 36 36" fill="none" xmlns="http://www.w3.org/2000/svg" width="256" height="256" id="avatar"><title data-v-528fb24a="">Simple Avatar</title><desc data-v-528fb24a="">CREATED BY XUAN TANG, MORE INFO AT TXSTC55.GITHUB.IO</desc><rect data-v-528fb24a="" width="36" height="36" fill="#464249"></rect><mask data-v-528fb24a="" id="mask__foreground" maskUnits="userSpaceOnUse" x="0" y="0" width="100" height="100"><!----><path data-v-528fb24a="" stroke-width="9.613073893028236" stroke-linecap="round" stroke-linejoin="round" stroke="white" fill="white" d="M 18,7.75128869404 32,32 4,32 z" transform="translate(-2.706349721884096 -1.0374121432693144) rotate(21.84091631310445 18 18)"></path></mask><mask data-v-528fb24a="" id="mask__background" maskUnits="userSpaceOnUse" x="0" y="0" width="100" height="100"><rect data-v-528fb24a="" id="test" x="0" y="0" width="36" height="36" fill="white"></rect><!----><path data-v-528fb24a="" stroke-width="9.613073893028236" stroke-linecap="round" stroke-linejoin="round" stroke="black" fill="black" d="M 18,7.75128869404 32,32 4,32 z" transform="translate(-2.706349721884096 -1.0374121432693144) rotate(21.84091631310445 18 18)"></path></mask><rect data-v-528fb24a="" x="0" y="0" width="36" height="36" fill="#4F200D" mask="url(#mask__foreground)"></rect><g data-v-528fb24a="" mask="url(#mask__foreground)"><g data-v-528fb24a="" transform="translate(-0.04227726652669794 -3.997966374803865) rotate(7.098574019643586 31.885695269538214 29.73278630282526)"><g data-v-528fb24a="" transform=""><!----><path data-v-528fb24a="" d="M10.475122736774795,23.435092042166186 a0.5250772209642147, 0.6391301750102499 0 0,0 16.359851365719422, -1.4840026452486432" fill="#ffffee"></path></g><rect data-v-528fb24a="" x="10.679763476537314" y="14.28646909308624" width="3.7725268420683156" height="2.683309497287453" rx="1" stroke="none" fill="#ffffee"></rect><rect data-v-528fb24a="" x="21.54770968139437" y="14.28646909308624" width="3.7725268420683156" height="2.683309497287453" rx="1" stroke="none" fill="#ffffee"></rect></g></g><g data-v-528fb24a="" mask="url(#mask__background)"><g data-v-528fb24a="" transform="translate(-0.04227726652669794 -3.997966374803865) rotate(7.098574019643586 31.885695269538214 29.73278630282526)"><g data-v-528fb24a="" transform=""><!----><path data-v-528fb24a="" d="M10.475122736774795,23.435092042166186 a0.5250772209642147, 0.6391301750102499 0 0,0 16.359851365719422, -1.4840026452486432" fill="#ffffee"></path></g><rect data-v-528fb24a="" x="10.679763476537314" y="14.28646909308624" width="3.7725268420683156" height="2.683309497287453" rx="1" stroke="none" fill="#ffffee"></rect><rect data-v-528fb24a="" x="21.54770968139437" y="14.28646909308624" width="3.7725268420683156" height="2.683309497287453" rx="1" stroke="none" fill="#ffffee"></rect></g></g></svg>