<svg data-v-528fb24a="" viewBox="0 0 36 36" fill="none" xmlns="http://www.w3.org/2000/svg" width="256" height="256" id="avatar"><title data-v-528fb24a="">Simple Avatar</title><desc data-v-528fb24a="">CREATED BY XUAN TANG, MORE INFO AT TXSTC55.GITHUB.IO</desc><rect data-v-528fb24a="" width="36" height="36" fill="#000000"></rect><mask data-v-528fb24a="" id="mask__foreground" maskUnits="userSpaceOnUse" x="0" y="0" width="100" height="100"><rect data-v-528fb24a="" x="0" y="0" width="36" height="36" transform="translate(-3.331527843938311 -4.334736309159757) rotate(13.097443140824375 29.165075054741926 16.85567272971403)scale(1.0410780321972561)" rx="29.60018371823741" fill="white"></rect><!----></mask><mask data-v-528fb24a="" id="mask__background" maskUnits="userSpaceOnUse" x="0" y="0" width="100" height="100"><rect data-v-528fb24a="" id="test" x="0" y="0" width="36" height="36" fill="white"></rect><rect data-v-528fb24a="" x="3" y="3" width="30" height="30" transform="translate(-3.331527843938311 -4.334736309159757) rotate(13.097443140824375 29.165075054741926 16.85567272971403)scale(1.0410780321972561)" rx="29.60018371823741" fill="black"></rect><!----></mask><rect data-v-528fb24a="" x="0" y="0" width="36" height="36" fill="#000000" mask="url(#mask__foreground)"></rect><g data-v-528fb24a="" mask="url(#mask__foreground)"><g data-v-528fb24a="" transform="translate(0.3356910207712964 -2.8573871223993152) rotate(-4.231374342023004 27.244744032705448 30.52747279102391)"><g data-v-528fb24a="" transform=""><path data-v-528fb24a="" d="M9.56546373993625 24.803481427414056c0.09804047552651518 1.4913584285183723 16.16532202571178 2.317326248622224 16.8690725201275 0" stroke="#ffffee" fill="none" stroke-linecap="round"></path><!----></g><rect data-v-528fb24a="" x="11.974266908446689" y="10.575692586592567" width="3.213579280057674" height="2.2563221463063847" rx="1" stroke="none" fill="#ffffee"></rect><rect data-v-528fb24a="" x="20.812153811495637" y="10.575692586592567" width="3.213579280057674" height="2.2563221463063847" rx="1" stroke="none" fill="#ffffee"></rect></g></g><g data-v-528fb24a="" mask="url(#mask__background)"><g data-v-528fb24a="" transform="translate(0.3356910207712964 -2.8573871223993152) rotate(-4.231374342023004 27.244744032705448 30.52747279102391)"><g data-v-528fb24a="" transform=""><path data-v-528fb24a="" d="M9.56546373993625 24.803481427414056c0.09804047552651518 1.4913584285183723 16.16532202571178 2.317326248622224 16.8690725201275 0" stroke="#ffffee" fill="none" stroke-linecap="round"></path><!----></g><rect data-v-528fb24a="" x="11.974266908446689" y="10.575692586592567" width="3.213579280057674" height="2.2563221463063847" rx="1" stroke="none" fill="#ffffee"></rect><rect data-v-528fb24a="" x="20.812153811495637" y="10.575692586592567" width="3.213579280057674" height="2.2563221463063847" rx="1" stroke="none" fill="#ffffee"></rect></g></g></svg>