<svg data-v-528fb24a="" viewBox="0 0 36 36" fill="none" xmlns="http://www.w3.org/2000/svg" width="256" height="256" id="avatar"><title data-v-528fb24a="">Simple Avatar</title><desc data-v-528fb24a="">CREATED BY XUAN TANG, MORE INFO AT TXSTC55.GITHUB.IO</desc><rect data-v-528fb24a="" width="36" height="36" fill="#408E91"></rect><mask data-v-528fb24a="" id="mask__foreground" maskUnits="userSpaceOnUse" x="0" y="0" width="100" height="100"><rect data-v-528fb24a="" x="0" y="0" width="36" height="36" transform="translate(-4.251951281056274 -4.301055663255182) rotate(10.70207489164817 33.91143526644734 13.230265985778416)scale(1.0112656266758766)" rx="11.421903299128978" fill="white"></rect><!----></mask><mask data-v-528fb24a="" id="mask__background" maskUnits="userSpaceOnUse" x="0" y="0" width="100" height="100"><rect data-v-528fb24a="" id="test" x="0" y="0" width="36" height="36" fill="white"></rect><rect data-v-528fb24a="" x="3" y="3" width="30" height="30" transform="translate(-4.251951281056274 -4.301055663255182) rotate(10.70207489164817 33.91143526644734 13.230265985778416)scale(1.0112656266758766)" rx="11.421903299128978" fill="black"></rect><!----></mask><rect data-v-528fb24a="" x="0" y="0" width="36" height="36" fill="#2a9d8f" mask="url(#mask__foreground)"></rect><g data-v-528fb24a="" mask="url(#mask__foreground)"><g data-v-528fb24a="" transform="translate(-1.918692255992016 1.430046374505391) rotate(-2.4811970230184643 31.14331232071769 30.020294890991558)"><g data-v-528fb24a="" transform=""><!----><path data-v-528fb24a="" d="M15.18786202821703,21.24545081750375 a0.611741433736327, 0.595907120412849 0 0,0 6.490764721326967, -1.457333635622366" fill="#ffffee"></path></g><rect data-v-528fb24a="" x="12.030117779453661" y="15.348238567046042" width="2.3893544392684447" height="1.8720222583532315" rx="1" stroke="none" fill="#ffffee"></rect><rect data-v-528fb24a="" x="21.580527781277894" y="15.348238567046042" width="2.3893544392684447" height="1.8720222583532315" rx="1" stroke="none" fill="#ffffee"></rect></g></g><g data-v-528fb24a="" mask="url(#mask__background)"><g data-v-528fb24a="" transform="translate(-1.918692255992016 1.430046374505391) rotate(-2.4811970230184643 31.14331232071769 30.020294890991558)"><g data-v-528fb24a="" transform=""><!----><path data-v-528fb24a="" d="M15.18786202821703,21.24545081750375 a0.611741433736327, 0.595907120412849 0 0,0 6.490764721326967, -1.457333635622366" fill="#ffffee"></path></g><rect data-v-528fb24a="" x="12.030117779453661" y="15.348238567046042" width="2.3893544392684447" height="1.8720222583532315" rx="1" stroke="none" fill="#ffffee"></rect><rect data-v-528fb24a="" x="21.580527781277894" y="15.348238567046042" width="2.3893544392684447" height="1.8720222583532315" rx="1" stroke="none" fill="#ffffee"></rect></g></g></svg>