<svg data-v-528fb24a="" viewBox="0 0 36 36" fill="none" xmlns="http://www.w3.org/2000/svg" width="256" height="256" id="avatar"><title data-v-528fb24a="">Simple Avatar</title><desc data-v-528fb24a="">CREATED BY XUAN TANG, MORE INFO AT TXSTC55.GITHUB.IO</desc><rect data-v-528fb24a="" width="36" height="36" fill="#ef476f"></rect><mask data-v-528fb24a="" id="mask__foreground" maskUnits="userSpaceOnUse" x="0" y="0" width="100" height="100"><!----><path data-v-528fb24a="" stroke-width="9.37863628067109" stroke-linecap="round" stroke-linejoin="round" stroke="white" fill="white" d="M 18,7.75128869404 32,32 4,32 z" transform="translate(1.455919503329424 -2.790474280673438) rotate(0.05429325850801803 18 18)"></path></mask><mask data-v-528fb24a="" id="mask__background" maskUnits="userSpaceOnUse" x="0" y="0" width="100" height="100"><rect data-v-528fb24a="" id="test" x="0" y="0" width="36" height="36" fill="white"></rect><!----><path data-v-528fb24a="" stroke-width="9.37863628067109" stroke-linecap="round" stroke-linejoin="round" stroke="black" fill="black" d="M 18,7.75128869404 32,32 4,32 z" transform="translate(1.455919503329424 -2.790474280673438) rotate(0.05429325850801803 18 18)"></path></mask><rect data-v-528fb24a="" x="0" y="0" width="36" height="36" fill="#FF8400" mask="url(#mask__foreground)"></rect><g data-v-528fb24a="" mask="url(#mask__foreground)"><g data-v-528fb24a="" transform="translate(-0.19191271788528041 3.6678876298658274) rotate(2.033227057752441 28.549048275715453 23.476326368615165)"><g data-v-528fb24a="" transform=""><path data-v-528fb24a="" d="M11.439701043010974 20.40529244287971c0.27407040603044486 3.625513007912212 12.543156895858996 4.090103900455895 13.120597913978052 0" stroke="#ffffee" fill="none" stroke-linecap="round"></path><!----></g><rect data-v-528fb24a="" x="10.556286238130188" y="13.062497444439195" width="4.475850225607464" height="2.1525250911107685" rx="1" stroke="none" fill="#ffffee"></rect><rect data-v-528fb24a="" x="20.96786353626235" y="13.062497444439195" width="4.475850225607464" height="2.1525250911107685" rx="1" stroke="none" fill="#ffffee"></rect></g></g><g data-v-528fb24a="" mask="url(#mask__background)"><g data-v-528fb24a="" transform="translate(-0.19191271788528041 3.6678876298658274) rotate(2.033227057752441 28.549048275715453 23.476326368615165)"><g data-v-528fb24a="" transform=""><path data-v-528fb24a="" d="M11.439701043010974 20.40529244287971c0.27407040603044486 3.625513007912212 12.543156895858996 4.090103900455895 13.120597913978052 0" stroke="#ffffee" fill="none" stroke-linecap="round"></path><!----></g><rect data-v-528fb24a="" x="10.556286238130188" y="13.062497444439195" width="4.475850225607464" height="2.1525250911107685" rx="1" stroke="none" fill="#ffffee"></rect><rect data-v-528fb24a="" x="20.96786353626235" y="13.062497444439195" width="4.475850225607464" height="2.1525250911107685" rx="1" stroke="none" fill="#ffffee"></rect></g></g></svg>