<svg data-v-528fb24a="" viewBox="0 0 36 36" fill="none" xmlns="http://www.w3.org/2000/svg" width="256" height="256" id="avatar"><title data-v-528fb24a="">Simple Avatar</title><desc data-v-528fb24a="">CREATED BY XUAN TANG, MORE INFO AT TXSTC55.GITHUB.IO</desc><rect data-v-528fb24a="" width="36" height="36" fill="#ef476f"></rect><mask data-v-528fb24a="" id="mask__foreground" maskUnits="userSpaceOnUse" x="0" y="0" width="100" height="100"><rect data-v-528fb24a="" x="0" y="0" width="36" height="36" transform="translate(-4.197132871141511 0.5734351956032153) rotate(-6.459895138692193 9.289410789137865 28.11043378222699)scale(1.0878367175834565)" rx="31.561578451970774" fill="white"></rect><!----></mask><mask data-v-528fb24a="" id="mask__background" maskUnits="userSpaceOnUse" x="0" y="0" width="100" height="100"><rect data-v-528fb24a="" id="test" x="0" y="0" width="36" height="36" fill="white"></rect><rect data-v-528fb24a="" x="3" y="3" width="30" height="30" transform="translate(-4.197132871141511 0.5734351956032153) rotate(-6.459895138692193 9.289410789137865 28.11043378222699)scale(1.0878367175834565)" rx="31.561578451970774" fill="black"></rect><!----></mask><rect data-v-528fb24a="" x="0" y="0" width="36" height="36" fill="#26547c" mask="url(#mask__foreground)"></rect><g data-v-528fb24a="" mask="url(#mask__foreground)"><g data-v-528fb24a="" transform="translate(3.0099295870536054 -2.3334212192597303) rotate(6.480742355131952 33.35755913309944 20.523486978726766)"><g data-v-528fb24a="" transform=""><path data-v-528fb24a="" d="M12.492237365037617 19.97914997845039c0.8531461182705673 1.1096905085102817 9.262691312650032 3.5648056062223334 11.015525269924767 0" stroke="#ffffee" fill="none" stroke-linecap="round"></path><!----></g><rect data-v-528fb24a="" x="9.955956506891873" y="10.774787999894386" width="3.246658167365865" height="2.9744831041772066" rx="1" stroke="none" fill="#ffffee"></rect><rect data-v-528fb24a="" x="22.797385325742262" y="10.774787999894386" width="3.246658167365865" height="2.9744831041772066" rx="1" stroke="none" fill="#ffffee"></rect></g></g><g data-v-528fb24a="" mask="url(#mask__background)"><g data-v-528fb24a="" transform="translate(3.0099295870536054 -2.3334212192597303) rotate(6.480742355131952 33.35755913309944 20.523486978726766)"><g data-v-528fb24a="" transform=""><path data-v-528fb24a="" d="M12.492237365037617 19.97914997845039c0.8531461182705673 1.1096905085102817 9.262691312650032 3.5648056062223334 11.015525269924767 0" stroke="#ffffee" fill="none" stroke-linecap="round"></path><!----></g><rect data-v-528fb24a="" x="9.955956506891873" y="10.774787999894386" width="3.246658167365865" height="2.9744831041772066" rx="1" stroke="none" fill="#ffffee"></rect><rect data-v-528fb24a="" x="22.797385325742262" y="10.774787999894386" width="3.246658167365865" height="2.9744831041772066" rx="1" stroke="none" fill="#ffffee"></rect></g></g></svg>