<svg data-v-528fb24a="" viewBox="0 0 36 36" fill="none" xmlns="http://www.w3.org/2000/svg" width="256" height="256" id="avatar"><title data-v-528fb24a="">Simple Avatar</title><desc data-v-528fb24a="">CREATED BY XUAN TANG, MORE INFO AT TXSTC55.GITHUB.IO</desc><rect data-v-528fb24a="" width="36" height="36" fill="#f0f0d8"></rect><mask data-v-528fb24a="" id="mask__foreground" maskUnits="userSpaceOnUse" x="0" y="0" width="100" height="100"><rect data-v-528fb24a="" x="0" y="0" width="36" height="36" transform="translate(2.1652905225051233 -0.7406018573330737) rotate(14.528260354373337 34.20468060881507 15.304454020626858)scale(1.1814597479692182)" rx="8.273424725974408" fill="white"></rect><!----></mask><mask data-v-528fb24a="" id="mask__background" maskUnits="userSpaceOnUse" x="0" y="0" width="100" height="100"><rect data-v-528fb24a="" id="test" x="0" y="0" width="36" height="36" fill="white"></rect><rect data-v-528fb24a="" x="3" y="3" width="30" height="30" transform="translate(2.1652905225051233 -0.7406018573330737) rotate(14.528260354373337 34.20468060881507 15.304454020626858)scale(1.1814597479692182)" rx="8.273424725974408" fill="black"></rect><!----></mask><rect data-v-528fb24a="" x="0" y="0" width="36" height="36" fill="#FFC1CF" mask="url(#mask__foreground)"></rect><g data-v-528fb24a="" mask="url(#mask__foreground)"><g data-v-528fb24a="" transform="translate(-0.4319434852411552 -1.8858767705996682) rotate(1.5019861649546193 33.94175700851148 33.506783028456354)"><g data-v-528fb24a="" transform=""><path data-v-528fb24a="" d="M9.399223582167664 18.786758406648858c3.3206280417659864 4.447299369932797 15.861469024951166 4.462187397434213 17.20155283566467 0" stroke="hsl(60, 29.599999999999998%, 100%)" fill="none" stroke-linecap="round"></path><!----></g><rect data-v-528fb24a="" x="7.924613307387674" y="10.848629692728727" width="4.026978601082457" height="0.996852760451697" rx="1" stroke="none" fill="hsl(60, 29.599999999999998%, 100%)"></rect><rect data-v-528fb24a="" x="24.04840809152987" y="10.848629692728727" width="4.026978601082457" height="0.996852760451697" rx="1" stroke="none" fill="hsl(60, 29.599999999999998%, 100%)"></rect></g></g><g data-v-528fb24a="" mask="url(#mask__background)"><g data-v-528fb24a="" transform="translate(-0.4319434852411552 -1.8858767705996682) rotate(1.5019861649546193 33.94175700851148 33.506783028456354)"><g data-v-528fb24a="" transform=""><path data-v-528fb24a="" d="M9.399223582167664 18.786758406648858c3.3206280417659864 4.447299369932797 15.861469024951166 4.462187397434213 17.20155283566467 0" stroke="hsl(346, 66.66666666666667%, 100%)" fill="none" stroke-linecap="round"></path><!----></g><rect data-v-528fb24a="" x="7.924613307387674" y="10.848629692728727" width="4.026978601082457" height="0.996852760451697" rx="1" stroke="none" fill="hsl(346, 66.66666666666667%, 100%)"></rect><rect data-v-528fb24a="" x="24.04840809152987" y="10.848629692728727" width="4.026978601082457" height="0.996852760451697" rx="1" stroke="none" fill="hsl(346, 66.66666666666667%, 100%)"></rect></g></g></svg>