<svg data-v-528fb24a="" viewBox="0 0 36 36" fill="none" xmlns="http://www.w3.org/2000/svg" width="256" height="256" id="avatar"><title data-v-528fb24a="">Simple Avatar</title><desc data-v-528fb24a="">CREATED BY XUAN TANG, MORE INFO AT TXSTC55.GITHUB.IO</desc><rect data-v-528fb24a="" width="36" height="36" fill="#0b3866"></rect><mask data-v-528fb24a="" id="mask__foreground" maskUnits="userSpaceOnUse" x="0" y="0" width="100" height="100"><!----><path data-v-528fb24a="" stroke-width="9.903025650547638" stroke-linecap="round" stroke-linejoin="round" stroke="white" fill="white" d="M 18,7.75128869404 32,32 4,32 z" transform="translate(-2.5338942276808596 -0.8302332055023047) rotate(2.9342497893759827 18 18)"></path></mask><mask data-v-528fb24a="" id="mask__background" maskUnits="userSpaceOnUse" x="0" y="0" width="100" height="100"><rect data-v-528fb24a="" id="test" x="0" y="0" width="36" height="36" fill="white"></rect><!----><path data-v-528fb24a="" stroke-width="9.903025650547638" stroke-linecap="round" stroke-linejoin="round" stroke="black" fill="black" d="M 18,7.75128869404 32,32 4,32 z" transform="translate(-2.5338942276808596 -0.8302332055023047) rotate(2.9342497893759827 18 18)"></path></mask><rect data-v-528fb24a="" x="0" y="0" width="36" height="36" fill="#BF3817" mask="url(#mask__foreground)"></rect><g data-v-528fb24a="" mask="url(#mask__foreground)"><g data-v-528fb24a="" transform="translate(-0.8206913614078104 -2.880566342630053) rotate(-0.6916328184192722 21.726029189703173 29.80764818740282)"><g data-v-528fb24a="" transform=""><!----><path data-v-528fb24a="" d="M9.903219863892458,20.493901967569112 a0.6779944608622754, 0.864981061390818 0 0,0 17.45922922173482, -0.03331420115249495" fill="#ffffee"></path></g><rect data-v-528fb24a="" x="8.450334143648577" y="12.9854845791406" width="5.791600536577098" height="1.7348593215298154" rx="1" stroke="none" fill="#ffffee"></rect><rect data-v-528fb24a="" x="21.758065319774325" y="12.9854845791406" width="5.791600536577098" height="1.7348593215298154" rx="1" stroke="none" fill="#ffffee"></rect></g></g><g data-v-528fb24a="" mask="url(#mask__background)"><g data-v-528fb24a="" transform="translate(-0.8206913614078104 -2.880566342630053) rotate(-0.6916328184192722 21.726029189703173 29.80764818740282)"><g data-v-528fb24a="" transform=""><!----><path data-v-528fb24a="" d="M9.903219863892458,20.493901967569112 a0.6779944608622754, 0.864981061390818 0 0,0 17.45922922173482, -0.03331420115249495" fill="#ffffee"></path></g><rect data-v-528fb24a="" x="8.450334143648577" y="12.9854845791406" width="5.791600536577098" height="1.7348593215298154" rx="1" stroke="none" fill="#ffffee"></rect><rect data-v-528fb24a="" x="21.758065319774325" y="12.9854845791406" width="5.791600536577098" height="1.7348593215298154" rx="1" stroke="none" fill="#ffffee"></rect></g></g></svg>