<svg data-v-528fb24a="" viewBox="0 0 36 36" fill="none" xmlns="http://www.w3.org/2000/svg" width="256" height="256" id="avatar"><title data-v-528fb24a="">Simple Avatar</title><desc data-v-528fb24a="">CREATED BY XUAN TANG, MORE INFO AT TXSTC55.GITHUB.IO</desc><rect data-v-528fb24a="" width="36" height="36" fill="#e63946"></rect><mask data-v-528fb24a="" id="mask__foreground" maskUnits="userSpaceOnUse" x="0" y="0" width="100" height="100"><rect data-v-528fb24a="" x="0" y="0" width="36" height="36" transform="translate(1.6707116177625618 1.3632073405729583) rotate(1.6497302554607955 11.28901635399005 12.618473826038766)scale(1.185047743201825)" rx="24.411613794854112" fill="white"></rect><!----></mask><mask data-v-528fb24a="" id="mask__background" maskUnits="userSpaceOnUse" x="0" y="0" width="100" height="100"><rect data-v-528fb24a="" id="test" x="0" y="0" width="36" height="36" fill="white"></rect><rect data-v-528fb24a="" x="3" y="3" width="30" height="30" transform="translate(1.6707116177625618 1.3632073405729583) rotate(1.6497302554607955 11.28901635399005 12.618473826038766)scale(1.185047743201825)" rx="24.411613794854112" fill="black"></rect><!----></mask><rect data-v-528fb24a="" x="0" y="0" width="36" height="36" fill="#ef476f" mask="url(#mask__foreground)"></rect><g data-v-528fb24a="" mask="url(#mask__foreground)"><g data-v-528fb24a="" transform="translate(1.5433447373739417 -2.754653708004917) rotate(-5.6469853845616935 34.638019075486085 33.377642883668045)"><g data-v-528fb24a="" transform=""><!----><path data-v-528fb24a="" d="M15.413650465251663,23.129420661778568 a0.7492358869961047, 0.798419440612296 0 0,0 5.0391853955871175, -0.8039266863395489" fill="#ffffee"></path></g><rect data-v-528fb24a="" x="7.98551590451036" y="15.93382116524645" width="3.5804764786507137" height="1.9221252442564296" rx="1" stroke="none" fill="#ffffee"></rect><rect data-v-528fb24a="" x="24.434007616838926" y="15.93382116524645" width="3.5804764786507137" height="1.9221252442564296" rx="1" stroke="none" fill="#ffffee"></rect></g></g><g data-v-528fb24a="" mask="url(#mask__background)"><g data-v-528fb24a="" transform="translate(1.5433447373739417 -2.754653708004917) rotate(-5.6469853845616935 34.638019075486085 33.377642883668045)"><g data-v-528fb24a="" transform=""><!----><path data-v-528fb24a="" d="M15.413650465251663,23.129420661778568 a0.7492358869961047, 0.798419440612296 0 0,0 5.0391853955871175, -0.8039266863395489" fill="#ffffee"></path></g><rect data-v-528fb24a="" x="7.98551590451036" y="15.93382116524645" width="3.5804764786507137" height="1.9221252442564296" rx="1" stroke="none" fill="#ffffee"></rect><rect data-v-528fb24a="" x="24.434007616838926" y="15.93382116524645" width="3.5804764786507137" height="1.9221252442564296" rx="1" stroke="none" fill="#ffffee"></rect></g></g></svg>