<svg data-v-528fb24a="" viewBox="0 0 36 36" fill="none" xmlns="http://www.w3.org/2000/svg" width="256" height="256" id="avatar"><title data-v-528fb24a="">Simple Avatar</title><desc data-v-528fb24a="">CREATED BY XUAN TANG, MORE INFO AT TXSTC55.GITHUB.IO</desc><rect data-v-528fb24a="" width="36" height="36" fill="#2a9d8f"></rect><mask data-v-528fb24a="" id="mask__foreground" maskUnits="userSpaceOnUse" x="0" y="0" width="100" height="100"><rect data-v-528fb24a="" x="0" y="0" width="36" height="36" transform="translate(1.5074466512080331 -2.8395254650457025) rotate(-18.96884636481196 20.63521086937625 7.650413849145646)scale(1.0142871788308796)" rx="21.222109525015952" fill="white"></rect><!----></mask><mask data-v-528fb24a="" id="mask__background" maskUnits="userSpaceOnUse" x="0" y="0" width="100" height="100"><rect data-v-528fb24a="" id="test" x="0" y="0" width="36" height="36" fill="white"></rect><rect data-v-528fb24a="" x="3" y="3" width="30" height="30" transform="translate(1.5074466512080331 -2.8395254650457025) rotate(-18.96884636481196 20.63521086937625 7.650413849145646)scale(1.0142871788308796)" rx="21.222109525015952" fill="black"></rect><!----></mask><rect data-v-528fb24a="" x="0" y="0" width="36" height="36" fill="#245953" mask="url(#mask__foreground)"></rect><g data-v-528fb24a="" mask="url(#mask__foreground)"><g data-v-528fb24a="" transform="translate(-4.136777312074853 0.39610705960426884) rotate(2.904401357216141 30.111286309290385 23.824745947449692)"><g data-v-528fb24a="" transform=""><path data-v-528fb24a="" d="M9.02367833048439 22.126190160203635c0.20576610038220622 2.827726068081053 14.776090936262335 3.563458178239607 17.95264333903122 0" stroke="#ffffee" fill="none" stroke-linecap="round"></path><!----></g><rect data-v-528fb24a="" x="9.784829387023512" y="16.318535437278328" width="5.303611909249197" height="0.6139709319734311" rx="1" stroke="none" fill="#ffffee"></rect><rect data-v-528fb24a="" x="20.91155870372729" y="16.318535437278328" width="5.303611909249197" height="0.6139709319734311" rx="1" stroke="none" fill="#ffffee"></rect></g></g><g data-v-528fb24a="" mask="url(#mask__background)"><g data-v-528fb24a="" transform="translate(-4.136777312074853 0.39610705960426884) rotate(2.904401357216141 30.111286309290385 23.824745947449692)"><g data-v-528fb24a="" transform=""><path data-v-528fb24a="" d="M9.02367833048439 22.126190160203635c0.20576610038220622 2.827726068081053 14.776090936262335 3.563458178239607 17.95264333903122 0" stroke="#ffffee" fill="none" stroke-linecap="round"></path><!----></g><rect data-v-528fb24a="" x="9.784829387023512" y="16.318535437278328" width="5.303611909249197" height="0.6139709319734311" rx="1" stroke="none" fill="#ffffee"></rect><rect data-v-528fb24a="" x="20.91155870372729" y="16.318535437278328" width="5.303611909249197" height="0.6139709319734311" rx="1" stroke="none" fill="#ffffee"></rect></g></g></svg>