<svg data-v-528fb24a="" viewBox="0 0 36 36" fill="none" xmlns="http://www.w3.org/2000/svg" width="256" height="256" id="avatar"><title data-v-528fb24a="">Simple Avatar</title><desc data-v-528fb24a="">CREATED BY XUAN TANG, MORE INFO AT TXSTC55.GITHUB.IO</desc><rect data-v-528fb24a="" width="36" height="36" fill="#FF8400"></rect><mask data-v-528fb24a="" id="mask__foreground" maskUnits="userSpaceOnUse" x="0" y="0" width="100" height="100"><rect data-v-528fb24a="" x="0" y="0" width="36" height="36" transform="translate(2.02310548668573 -1.3821234777459668) rotate(14.622899047307534 13.951649166996347 11.618668225089115)scale(1.0475295317822924)" rx="16.11147711688703" fill="white"></rect><!----></mask><mask data-v-528fb24a="" id="mask__background" maskUnits="userSpaceOnUse" x="0" y="0" width="100" height="100"><rect data-v-528fb24a="" id="test" x="0" y="0" width="36" height="36" fill="white"></rect><rect data-v-528fb24a="" x="3" y="3" width="30" height="30" transform="translate(2.02310548668573 -1.3821234777459668) rotate(14.622899047307534 13.951649166996347 11.618668225089115)scale(1.0475295317822924)" rx="16.11147711688703" fill="black"></rect><!----></mask><rect data-v-528fb24a="" x="0" y="0" width="36" height="36" fill="#19376D" mask="url(#mask__foreground)"></rect><g data-v-528fb24a="" mask="url(#mask__foreground)"><g data-v-528fb24a="" transform="translate(2.0348890173975747 -4.12586707829985) rotate(3.535096787707314 22.40783398357469 33.10480271304918)"><g data-v-528fb24a="" transform=""><!----><path data-v-528fb24a="" d="M12.828744975597377,20.08664150494445 a0.5264325813225186, 0.5567317644929624 0 0,0 9.795375122337317, -1.07340868892326" fill="#ffffee"></path></g><rect data-v-528fb24a="" x="8.429305411757127" y="13.088743686917253" width="3.8160239963255895" height="1.7609835418829736" rx="1" stroke="none" fill="#ffffee"></rect><rect data-v-528fb24a="" x="23.754670591917282" y="13.088743686917253" width="3.8160239963255895" height="1.7609835418829736" rx="1" stroke="none" fill="#ffffee"></rect></g></g><g data-v-528fb24a="" mask="url(#mask__background)"><g data-v-528fb24a="" transform="translate(2.0348890173975747 -4.12586707829985) rotate(3.535096787707314 22.40783398357469 33.10480271304918)"><g data-v-528fb24a="" transform=""><!----><path data-v-528fb24a="" d="M12.828744975597377,20.08664150494445 a0.5264325813225186, 0.5567317644929624 0 0,0 9.795375122337317, -1.07340868892326" fill="#ffffee"></path></g><rect data-v-528fb24a="" x="8.429305411757127" y="13.088743686917253" width="3.8160239963255895" height="1.7609835418829736" rx="1" stroke="none" fill="#ffffee"></rect><rect data-v-528fb24a="" x="23.754670591917282" y="13.088743686917253" width="3.8160239963255895" height="1.7609835418829736" rx="1" stroke="none" fill="#ffffee"></rect></g></g></svg>