<svg data-v-528fb24a="" viewBox="0 0 36 36" fill="none" xmlns="http://www.w3.org/2000/svg" width="256" height="256" id="avatar"><title data-v-528fb24a="">Simple Avatar</title><desc data-v-528fb24a="">CREATED BY XUAN TANG, MORE INFO AT TXSTC55.GITHUB.IO</desc><rect data-v-528fb24a="" width="36" height="36" fill="#30c5d2"></rect><mask data-v-528fb24a="" id="mask__foreground" maskUnits="userSpaceOnUse" x="0" y="0" width="100" height="100"><rect data-v-528fb24a="" x="0" y="0" width="36" height="36" transform="translate(2.278776272330485 -3.6150798323697497) rotate(-16.139876812947087 24.510513428469928 24.779268378808553)scale(1.027537113174225)" rx="17.049892357343204" fill="white"></rect><!----></mask><mask data-v-528fb24a="" id="mask__background" maskUnits="userSpaceOnUse" x="0" y="0" width="100" height="100"><rect data-v-528fb24a="" id="test" x="0" y="0" width="36" height="36" fill="white"></rect><rect data-v-528fb24a="" x="3" y="3" width="30" height="30" transform="translate(2.278776272330485 -3.6150798323697497) rotate(-16.139876812947087 24.510513428469928 24.779268378808553)scale(1.027537113174225)" rx="17.049892357343204" fill="black"></rect><!----></mask><rect data-v-528fb24a="" x="0" y="0" width="36" height="36" fill="#19376D" mask="url(#mask__foreground)"></rect><g data-v-528fb24a="" mask="url(#mask__foreground)"><g data-v-528fb24a="" transform="translate(-4.902526587536807 2.8054454190670626) rotate(-6.787679375218776 32.76347117960381 33.97177814858691)"><g data-v-528fb24a="" transform="rotate(180 18 22.73844832645145)"><!----><path data-v-528fb24a="" d="M10.869335583439234,21.642556124361004 a0.7808220779440694, 0.883432192602226 0 0,0 15.352262383998898, 0.42492007994410996" fill="#ffffee"></path></g><rect data-v-528fb24a="" x="8.186979049994335" y="10.750546444780413" width="3.7757735018641094" height="2.0486806956717647" rx="1" stroke="none" fill="#ffffee"></rect><rect data-v-528fb24a="" x="24.037247448141557" y="10.750546444780413" width="3.7757735018641094" height="2.0486806956717647" rx="1" stroke="none" fill="#ffffee"></rect></g></g><g data-v-528fb24a="" mask="url(#mask__background)"><g data-v-528fb24a="" transform="translate(-4.902526587536807 2.8054454190670626) rotate(-6.787679375218776 32.76347117960381 33.97177814858691)"><g data-v-528fb24a="" transform="rotate(180 18 22.73844832645145)"><!----><path data-v-528fb24a="" d="M10.869335583439234,21.642556124361004 a0.7808220779440694, 0.883432192602226 0 0,0 15.352262383998898, 0.42492007994410996" fill="#ffffee"></path></g><rect data-v-528fb24a="" x="8.186979049994335" y="10.750546444780413" width="3.7757735018641094" height="2.0486806956717647" rx="1" stroke="none" fill="#ffffee"></rect><rect data-v-528fb24a="" x="24.037247448141557" y="10.750546444780413" width="3.7757735018641094" height="2.0486806956717647" rx="1" stroke="none" fill="#ffffee"></rect></g></g></svg>