<svg data-v-528fb24a="" viewBox="0 0 36 36" fill="none" xmlns="http://www.w3.org/2000/svg" width="256" height="256" id="avatar"><title data-v-528fb24a="">Simple Avatar</title><desc data-v-528fb24a="">CREATED BY XUAN TANG, MORE INFO AT TXSTC55.GITHUB.IO</desc><rect data-v-528fb24a="" width="36" height="36" fill="#274c77"></rect><mask data-v-528fb24a="" id="mask__foreground" maskUnits="userSpaceOnUse" x="0" y="0" width="100" height="100"><rect data-v-528fb24a="" x="0" y="0" width="36" height="36" transform="translate(-1.6764181765022501 4.94506085888813) rotate(11.25993437268713 27.58695293966295 4.936810330309919)scale(1.1531843456573176)" rx="9.016093479979688" fill="white"></rect><!----></mask><mask data-v-528fb24a="" id="mask__background" maskUnits="userSpaceOnUse" x="0" y="0" width="100" height="100"><rect data-v-528fb24a="" id="test" x="0" y="0" width="36" height="36" fill="white"></rect><rect data-v-528fb24a="" x="3" y="3" width="30" height="30" transform="translate(-1.6764181765022501 4.94506085888813) rotate(11.25993437268713 27.58695293966295 4.936810330309919)scale(1.1531843456573176)" rx="9.016093479979688" fill="black"></rect><!----></mask><rect data-v-528fb24a="" x="0" y="0" width="36" height="36" fill="#fe7f2d" mask="url(#mask__foreground)"></rect><g data-v-528fb24a="" mask="url(#mask__foreground)"><g data-v-528fb24a="" transform="translate(3.3984255669543337 -1.5371697494370795) rotate(7.805424758170858 21.282945698073362 32.48616888964244)"><g data-v-528fb24a="" transform=""><path data-v-528fb24a="" d="M9.555052422937552 24.172478786484724c0.39268612031847727 3.967914684059811 13.741502367532862 1.958651530631516 16.889895154124897 0" stroke="#ffffee" fill="none" stroke-linecap="round"></path><!----></g><rect data-v-528fb24a="" x="10.357368711007426" y="13.93397836302943" width="3.6456812087233725" height="1.9172701973763986" rx="1" stroke="none" fill="#ffffee"></rect><rect data-v-528fb24a="" x="21.9969500802692" y="13.93397836302943" width="3.6456812087233725" height="1.9172701973763986" rx="1" stroke="none" fill="#ffffee"></rect></g></g><g data-v-528fb24a="" mask="url(#mask__background)"><g data-v-528fb24a="" transform="translate(3.3984255669543337 -1.5371697494370795) rotate(7.805424758170858 21.282945698073362 32.48616888964244)"><g data-v-528fb24a="" transform=""><path data-v-528fb24a="" d="M9.555052422937552 24.172478786484724c0.39268612031847727 3.967914684059811 13.741502367532862 1.958651530631516 16.889895154124897 0" stroke="#ffffee" fill="none" stroke-linecap="round"></path><!----></g><rect data-v-528fb24a="" x="10.357368711007426" y="13.93397836302943" width="3.6456812087233725" height="1.9172701973763986" rx="1" stroke="none" fill="#ffffee"></rect><rect data-v-528fb24a="" x="21.9969500802692" y="13.93397836302943" width="3.6456812087233725" height="1.9172701973763986" rx="1" stroke="none" fill="#ffffee"></rect></g></g></svg>