<svg data-v-528fb24a="" viewBox="0 0 36 36" fill="none" xmlns="http://www.w3.org/2000/svg" width="256" height="256" id="avatar"><title data-v-528fb24a="">Simple Avatar</title><desc data-v-528fb24a="">CREATED BY XUAN TANG, MORE INFO AT TXSTC55.GITHUB.IO</desc><rect data-v-528fb24a="" width="36" height="36" fill="#BF3817"></rect><mask data-v-528fb24a="" id="mask__foreground" maskUnits="userSpaceOnUse" x="0" y="0" width="100" height="100"><rect data-v-528fb24a="" x="0" y="0" width="36" height="36" transform="translate(-1.0329891112141132 -4.4027303480876645) rotate(-1.74692097894118 26.37952029795557 26.53941301245235)scale(1.1285794410604006)" rx="4.919456950763475" fill="white"></rect><!----></mask><mask data-v-528fb24a="" id="mask__background" maskUnits="userSpaceOnUse" x="0" y="0" width="100" height="100"><rect data-v-528fb24a="" id="test" x="0" y="0" width="36" height="36" fill="white"></rect><rect data-v-528fb24a="" x="3" y="3" width="30" height="30" transform="translate(-1.0329891112141132 -4.4027303480876645) rotate(-1.74692097894118 26.37952029795557 26.53941301245235)scale(1.1285794410604006)" rx="4.919456950763475" fill="black"></rect><!----></mask><rect data-v-528fb24a="" x="0" y="0" width="36" height="36" fill="#471069" mask="url(#mask__foreground)"></rect><g data-v-528fb24a="" mask="url(#mask__foreground)"><g data-v-528fb24a="" transform="translate(4.806291152152644 -1.1348088457277128) rotate(1.1638381249778718 26.049501554863777 32.47540396015572)"><g data-v-528fb24a="" transform=""><path data-v-528fb24a="" d="M9.030162835130993 25.327467579482175c2.932936054814647 5.810650832508325 14.728082831011559 4.2163625014900195 17.939674329738015 0" stroke="#ffffee" fill="none" stroke-linecap="round"></path><!----></g><rect data-v-528fb24a="" x="6.360188452327598" y="15.822601607411869" width="5.070124163671849" height="1.0719053460307095" rx="1" stroke="none" fill="#ffffee"></rect><rect data-v-528fb24a="" x="24.569687384000552" y="15.822601607411869" width="5.070124163671849" height="1.0719053460307095" rx="1" stroke="none" fill="#ffffee"></rect></g></g><g data-v-528fb24a="" mask="url(#mask__background)"><g data-v-528fb24a="" transform="translate(4.806291152152644 -1.1348088457277128) rotate(1.1638381249778718 26.049501554863777 32.47540396015572)"><g data-v-528fb24a="" transform=""><path data-v-528fb24a="" d="M9.030162835130993 25.327467579482175c2.932936054814647 5.810650832508325 14.728082831011559 4.2163625014900195 17.939674329738015 0" stroke="#ffffee" fill="none" stroke-linecap="round"></path><!----></g><rect data-v-528fb24a="" x="6.360188452327598" y="15.822601607411869" width="5.070124163671849" height="1.0719053460307095" rx="1" stroke="none" fill="#ffffee"></rect><rect data-v-528fb24a="" x="24.569687384000552" y="15.822601607411869" width="5.070124163671849" height="1.0719053460307095" rx="1" stroke="none" fill="#ffffee"></rect></g></g></svg>