<svg data-v-528fb24a="" viewBox="0 0 36 36" fill="none" xmlns="http://www.w3.org/2000/svg" width="256" height="256" id="avatar"><title data-v-528fb24a="">Simple Avatar</title><desc data-v-528fb24a="">CREATED BY XUAN TANG, MORE INFO AT TXSTC55.GITHUB.IO</desc><rect data-v-528fb24a="" width="36" height="36" fill="#464249"></rect><mask data-v-528fb24a="" id="mask__foreground" maskUnits="userSpaceOnUse" x="0" y="0" width="100" height="100"><rect data-v-528fb24a="" x="0" y="0" width="36" height="36" transform="translate(1.1982379044428182 3.85700422908306) rotate(-14.581068418779912 23.805032298729984 9.691850317830806)scale(1.0778207672938114)" rx="10.5941012459582" fill="white"></rect><!----></mask><mask data-v-528fb24a="" id="mask__background" maskUnits="userSpaceOnUse" x="0" y="0" width="100" height="100"><rect data-v-528fb24a="" id="test" x="0" y="0" width="36" height="36" fill="white"></rect><rect data-v-528fb24a="" x="3" y="3" width="30" height="30" transform="translate(1.1982379044428182 3.85700422908306) rotate(-14.581068418779912 23.805032298729984 9.691850317830806)scale(1.0778207672938114)" rx="10.5941012459582" fill="black"></rect><!----></mask><rect data-v-528fb24a="" x="0" y="0" width="36" height="36" fill="#08415c" mask="url(#mask__foreground)"></rect><g data-v-528fb24a="" mask="url(#mask__foreground)"><g data-v-528fb24a="" transform="translate(3.1208674301447594 3.622078528150528) rotate(-9.374847157241039 22.813914082291852 27.652379258292687)"><g data-v-528fb24a="" transform=""><!----><path data-v-528fb24a="" d="M11.66994374226158,21.266079006596165 a0.5260327414149004, 0.7978988436727287 0 0,0 13.431771912332426, 1.0682950401004376" fill="#ffffee"></path></g><rect data-v-528fb24a="" x="7.963892514976394" y="13.61166171909731" width="5.214224154000861" height="2.355766918152883" rx="1" stroke="none" fill="#ffffee"></rect><rect data-v-528fb24a="" x="22.821883331022747" y="13.61166171909731" width="5.214224154000861" height="2.355766918152883" rx="1" stroke="none" fill="#ffffee"></rect></g></g><g data-v-528fb24a="" mask="url(#mask__background)"><g data-v-528fb24a="" transform="translate(3.1208674301447594 3.622078528150528) rotate(-9.374847157241039 22.813914082291852 27.652379258292687)"><g data-v-528fb24a="" transform=""><!----><path data-v-528fb24a="" d="M11.66994374226158,21.266079006596165 a0.5260327414149004, 0.7978988436727287 0 0,0 13.431771912332426, 1.0682950401004376" fill="#ffffee"></path></g><rect data-v-528fb24a="" x="7.963892514976394" y="13.61166171909731" width="5.214224154000861" height="2.355766918152883" rx="1" stroke="none" fill="#ffffee"></rect><rect data-v-528fb24a="" x="22.821883331022747" y="13.61166171909731" width="5.214224154000861" height="2.355766918152883" rx="1" stroke="none" fill="#ffffee"></rect></g></g></svg>