<svg data-v-528fb24a="" viewBox="0 0 36 36" fill="none" xmlns="http://www.w3.org/2000/svg" width="256" height="256" id="avatar"><title data-v-528fb24a="">Simple Avatar</title><desc data-v-528fb24a="">CREATED BY XUAN TANG, MORE INFO AT TXSTC55.GITHUB.IO</desc><rect data-v-528fb24a="" width="36" height="36" fill="#cc2936"></rect><mask data-v-528fb24a="" id="mask__foreground" maskUnits="userSpaceOnUse" x="0" y="0" width="100" height="100"><rect data-v-528fb24a="" x="0" y="0" width="36" height="36" transform="translate(-2.7000014641009384 -4.336148686195703) rotate(-10.97880803720738 13.260285465654485 23.268149298722836)scale(1.053444379505927)" rx="23.486326142997896" fill="white"></rect><!----></mask><mask data-v-528fb24a="" id="mask__background" maskUnits="userSpaceOnUse" x="0" y="0" width="100" height="100"><rect data-v-528fb24a="" id="test" x="0" y="0" width="36" height="36" fill="white"></rect><rect data-v-528fb24a="" x="3" y="3" width="30" height="30" transform="translate(-2.7000014641009384 -4.336148686195703) rotate(-10.97880803720738 13.260285465654485 23.268149298722836)scale(1.053444379505927)" rx="23.486326142997896" fill="black"></rect><!----></mask><rect data-v-528fb24a="" x="0" y="0" width="36" height="36" fill="#0B2447" mask="url(#mask__foreground)"></rect><g data-v-528fb24a="" mask="url(#mask__foreground)"><g data-v-528fb24a="" transform="translate(2.720049349375129 -2.9485184951891408) rotate(7.903163619917834 25.370714073473074 28.174588925902462)"><g data-v-528fb24a="" transform=""><!----><path data-v-528fb24a="" d="M13.32482617779676,19.99343973868315 a0.6025136563465303, 0.728128531702929 0 0,0 9.99737760279039, 1.3361035947530566" fill="#ffffee"></path></g><rect data-v-528fb24a="" x="11.508699924356588" y="12.802174843807485" width="3.3461733267161264" height="2.853152143302232" rx="1" stroke="none" fill="#ffffee"></rect><rect data-v-528fb24a="" x="21.145126748927286" y="12.802174843807485" width="3.3461733267161264" height="2.853152143302232" rx="1" stroke="none" fill="#ffffee"></rect></g></g><g data-v-528fb24a="" mask="url(#mask__background)"><g data-v-528fb24a="" transform="translate(2.720049349375129 -2.9485184951891408) rotate(7.903163619917834 25.370714073473074 28.174588925902462)"><g data-v-528fb24a="" transform=""><!----><path data-v-528fb24a="" d="M13.32482617779676,19.99343973868315 a0.6025136563465303, 0.728128531702929 0 0,0 9.99737760279039, 1.3361035947530566" fill="#ffffee"></path></g><rect data-v-528fb24a="" x="11.508699924356588" y="12.802174843807485" width="3.3461733267161264" height="2.853152143302232" rx="1" stroke="none" fill="#ffffee"></rect><rect data-v-528fb24a="" x="21.145126748927286" y="12.802174843807485" width="3.3461733267161264" height="2.853152143302232" rx="1" stroke="none" fill="#ffffee"></rect></g></g></svg>