<svg data-v-528fb24a="" viewBox="0 0 36 36" fill="none" xmlns="http://www.w3.org/2000/svg" width="256" height="256" id="avatar"><title data-v-528fb24a="">Simple Avatar</title><desc data-v-528fb24a="">CREATED BY XUAN TANG, MORE INFO AT TXSTC55.GITHUB.IO</desc><rect data-v-528fb24a="" width="36" height="36" fill="#08415c"></rect><mask data-v-528fb24a="" id="mask__foreground" maskUnits="userSpaceOnUse" x="0" y="0" width="100" height="100"><rect data-v-528fb24a="" x="0" y="0" width="36" height="36" transform="translate(-1.180241419277639 3.9897250558316877) rotate(5.451842044579706 20.673500817168772 3.9100606356376026)scale(1.094568298920283)" rx="24.549491027793295" fill="white"></rect><!----></mask><mask data-v-528fb24a="" id="mask__background" maskUnits="userSpaceOnUse" x="0" y="0" width="100" height="100"><rect data-v-528fb24a="" id="test" x="0" y="0" width="36" height="36" fill="white"></rect><rect data-v-528fb24a="" x="3" y="3" width="30" height="30" transform="translate(-1.180241419277639 3.9897250558316877) rotate(5.451842044579706 20.673500817168772 3.9100606356376026)scale(1.094568298920283)" rx="24.549491027793295" fill="black"></rect><!----></mask><rect data-v-528fb24a="" x="0" y="0" width="36" height="36" fill="#30c5d2" mask="url(#mask__foreground)"></rect><g data-v-528fb24a="" mask="url(#mask__foreground)"><g data-v-528fb24a="" transform="translate(-2.7262920542148383 -3.2983363019810263) rotate(9.042384346062136 21.289744300910733 20.289675218186325)"><g data-v-528fb24a="" transform=""><path data-v-528fb24a="" d="M12.70813033756184 18.751869596905465c0.47344786578323284 2.896373797369536 9.18322700825875 2.282474656692175 10.58373932487632 0" stroke="#ffffee" fill="none" stroke-linecap="round"></path><!----></g><rect data-v-528fb24a="" x="9.22718765065098" y="10.68716601101638" width="5.573169992915692" height="2.9313555131413382" rx="1" stroke="none" fill="#ffffee"></rect><rect data-v-528fb24a="" x="21.19964235643333" y="10.68716601101638" width="5.573169992915692" height="2.9313555131413382" rx="1" stroke="none" fill="#ffffee"></rect></g></g><g data-v-528fb24a="" mask="url(#mask__background)"><g data-v-528fb24a="" transform="translate(-2.7262920542148383 -3.2983363019810263) rotate(9.042384346062136 21.289744300910733 20.289675218186325)"><g data-v-528fb24a="" transform=""><path data-v-528fb24a="" d="M12.70813033756184 18.751869596905465c0.47344786578323284 2.896373797369536 9.18322700825875 2.282474656692175 10.58373932487632 0" stroke="#ffffee" fill="none" stroke-linecap="round"></path><!----></g><rect data-v-528fb24a="" x="9.22718765065098" y="10.68716601101638" width="5.573169992915692" height="2.9313555131413382" rx="1" stroke="none" fill="#ffffee"></rect><rect data-v-528fb24a="" x="21.19964235643333" y="10.68716601101638" width="5.573169992915692" height="2.9313555131413382" rx="1" stroke="none" fill="#ffffee"></rect></g></g></svg>