<svg data-v-528fb24a="" viewBox="0 0 36 36" fill="none" xmlns="http://www.w3.org/2000/svg" width="256" height="256" id="avatar"><title data-v-528fb24a="">Simple Avatar</title><desc data-v-528fb24a="">CREATED BY XUAN TANG, MORE INFO AT TXSTC55.GITHUB.IO</desc><rect data-v-528fb24a="" width="36" height="36" fill="#cc2936"></rect><mask data-v-528fb24a="" id="mask__foreground" maskUnits="userSpaceOnUse" x="0" y="0" width="100" height="100"><rect data-v-528fb24a="" x="0" y="0" width="36" height="36" transform="translate(-2.459790648474882 3.1659780788875977) rotate(-18.21792789873177 2.4651594969069235 31.51034251327835)scale(1.135813197145126)" rx="15.242412868292298" fill="white"></rect><!----></mask><mask data-v-528fb24a="" id="mask__background" maskUnits="userSpaceOnUse" x="0" y="0" width="100" height="100"><rect data-v-528fb24a="" id="test" x="0" y="0" width="36" height="36" fill="white"></rect><rect data-v-528fb24a="" x="3" y="3" width="30" height="30" transform="translate(-2.459790648474882 3.1659780788875977) rotate(-18.21792789873177 2.4651594969069235 31.51034251327835)scale(1.135813197145126)" rx="15.242412868292298" fill="black"></rect><!----></mask><rect data-v-528fb24a="" x="0" y="0" width="36" height="36" fill="#30c5d2" mask="url(#mask__foreground)"></rect><g data-v-528fb24a="" mask="url(#mask__foreground)"><g data-v-528fb24a="" transform="translate(-1.8174413587879257 -1.3779834408006453) rotate(3.4981861806167167 21.828603974008377 20.88762910737368)"><g data-v-528fb24a="" transform="rotate(180 18 19.85253407045054)"><!----><path data-v-528fb24a="" d="M9.221791588795224,19.23919787452652 a0.663779586327654, 0.5526925364574463 0 0,0 16.529319570550648, -0.10088677375975252" fill="#ffffee"></path></g><rect data-v-528fb24a="" x="8.34958875108584" y="11.490924857118342" width="3.6293342281452246" height="0.9111498466945007" rx="1" stroke="none" fill="#ffffee"></rect><rect data-v-528fb24a="" x="24.021077020768935" y="11.490924857118342" width="3.6293342281452246" height="0.9111498466945007" rx="1" stroke="none" fill="#ffffee"></rect></g></g><g data-v-528fb24a="" mask="url(#mask__background)"><g data-v-528fb24a="" transform="translate(-1.8174413587879257 -1.3779834408006453) rotate(3.4981861806167167 21.828603974008377 20.88762910737368)"><g data-v-528fb24a="" transform="rotate(180 18 19.85253407045054)"><!----><path data-v-528fb24a="" d="M9.221791588795224,19.23919787452652 a0.663779586327654, 0.5526925364574463 0 0,0 16.529319570550648, -0.10088677375975252" fill="#ffffee"></path></g><rect data-v-528fb24a="" x="8.34958875108584" y="11.490924857118342" width="3.6293342281452246" height="0.9111498466945007" rx="1" stroke="none" fill="#ffffee"></rect><rect data-v-528fb24a="" x="24.021077020768935" y="11.490924857118342" width="3.6293342281452246" height="0.9111498466945007" rx="1" stroke="none" fill="#ffffee"></rect></g></g></svg>