<svg data-v-528fb24a="" viewBox="0 0 36 36" fill="none" xmlns="http://www.w3.org/2000/svg" width="256" height="256" id="avatar"><title data-v-528fb24a="">Simple Avatar</title><desc data-v-528fb24a="">CREATED BY XUAN TANG, MORE INFO AT TXSTC55.GITHUB.IO</desc><rect data-v-528fb24a="" width="36" height="36" fill="#9DD1F1"></rect><mask data-v-528fb24a="" id="mask__foreground" maskUnits="userSpaceOnUse" x="0" y="0" width="100" height="100"><rect data-v-528fb24a="" x="0" y="0" width="36" height="36" transform="translate(-4.900434957468642 1.5274637386978913) rotate(14.468204845763509 1.9675031499489535 1.110403795729411)scale(1.095521436665383)" rx="18.294502496370477" fill="white"></rect><!----></mask><mask data-v-528fb24a="" id="mask__background" maskUnits="userSpaceOnUse" x="0" y="0" width="100" height="100"><rect data-v-528fb24a="" id="test" x="0" y="0" width="36" height="36" fill="white"></rect><rect data-v-528fb24a="" x="3" y="3" width="30" height="30" transform="translate(-4.900434957468642 1.5274637386978913) rotate(14.468204845763509 1.9675031499489535 1.110403795729411)scale(1.095521436665383)" rx="18.294502496370477" fill="black"></rect><!----></mask><rect data-v-528fb24a="" x="0" y="0" width="36" height="36" fill="#E8FFB7" mask="url(#mask__foreground)"></rect><g data-v-528fb24a="" mask="url(#mask__foreground)"><g data-v-528fb24a="" transform="translate(-4.036752863433348 -2.1414703500453935) rotate(0.599319545395506 23.288997579090317 23.736896638905787)"><g data-v-528fb24a="" transform=""><!----><path data-v-528fb24a="" d="M12.90161750478276,23.072918063648732 a0.7370484284091224, 0.6897693388097123 0 0,0 9.780835370323814, 0.9578109497441618" fill="hsl(203, 50%, 100%)"></path></g><rect data-v-528fb24a="" x="6.4023813474600635" y="16.563163388710134" width="5.058903005067976" height="0.893559783460265" rx="1" stroke="none" fill="hsl(203, 50%, 100%)"></rect><rect data-v-528fb24a="" x="24.53871564747196" y="16.563163388710134" width="5.058903005067976" height="0.893559783460265" rx="1" stroke="none" fill="hsl(203, 50%, 100%)"></rect></g></g><g data-v-528fb24a="" mask="url(#mask__background)"><g data-v-528fb24a="" transform="translate(-4.036752863433348 -2.1414703500453935) rotate(0.599319545395506 23.288997579090317 23.736896638905787)"><g data-v-528fb24a="" transform=""><!----><path data-v-528fb24a="" d="M12.90161750478276,23.072918063648732 a0.7370484284091224, 0.6897693388097123 0 0,0 9.780835370323814, 0.9578109497441618" fill="hsl(79, 66.66666666666667%, 100%)"></path></g><rect data-v-528fb24a="" x="6.4023813474600635" y="16.563163388710134" width="5.058903005067976" height="0.893559783460265" rx="1" stroke="none" fill="hsl(79, 66.66666666666667%, 100%)"></rect><rect data-v-528fb24a="" x="24.53871564747196" y="16.563163388710134" width="5.058903005067976" height="0.893559783460265" rx="1" stroke="none" fill="hsl(79, 66.66666666666667%, 100%)"></rect></g></g></svg>