<svg data-v-528fb24a="" viewBox="0 0 36 36" fill="none" xmlns="http://www.w3.org/2000/svg" width="256" height="256" id="avatar"><title data-v-528fb24a="">Simple Avatar</title><desc data-v-528fb24a="">CREATED BY XUAN TANG, MORE INFO AT TXSTC55.GITHUB.IO</desc><rect data-v-528fb24a="" width="36" height="36" fill="#4F200D"></rect><mask data-v-528fb24a="" id="mask__foreground" maskUnits="userSpaceOnUse" x="0" y="0" width="100" height="100"><rect data-v-528fb24a="" x="0" y="0" width="36" height="36" transform="translate(3.658026926660174 -3.4131193974785012) rotate(14.342590252664948 23.58400010294401 7.243128687025268)scale(1.1189930927455978)" rx="17.51383506984684" fill="white"></rect><!----></mask><mask data-v-528fb24a="" id="mask__background" maskUnits="userSpaceOnUse" x="0" y="0" width="100" height="100"><rect data-v-528fb24a="" id="test" x="0" y="0" width="36" height="36" fill="white"></rect><rect data-v-528fb24a="" x="3" y="3" width="30" height="30" transform="translate(3.658026926660174 -3.4131193974785012) rotate(14.342590252664948 23.58400010294401 7.243128687025268)scale(1.1189930927455978)" rx="17.51383506984684" fill="black"></rect><!----></mask><rect data-v-528fb24a="" x="0" y="0" width="36" height="36" fill="#471069" mask="url(#mask__foreground)"></rect><g data-v-528fb24a="" mask="url(#mask__foreground)"><g data-v-528fb24a="" transform="translate(4.9467446233068735 4.420866648447156) rotate(7.579657868897286 22.11055004350867 19.59983855049837)"><g data-v-528fb24a="" transform=""><path data-v-528fb24a="" d="M11.642376547662595 24.978701415835918c2.201158278172973 4.685190666317384 9.075671337952482 3.1002231278970673 12.71524690467481 0" stroke="#ffffee" fill="none" stroke-linecap="round"></path><!----></g><rect data-v-528fb24a="" x="7.813769909938342" y="15.185407976606978" width="3.2369868387779146" height="2.7120455951811078" rx="1" stroke="none" fill="#ffffee"></rect><rect data-v-528fb24a="" x="24.949243251283743" y="15.185407976606978" width="3.2369868387779146" height="2.7120455951811078" rx="1" stroke="none" fill="#ffffee"></rect></g></g><g data-v-528fb24a="" mask="url(#mask__background)"><g data-v-528fb24a="" transform="translate(4.9467446233068735 4.420866648447156) rotate(7.579657868897286 22.11055004350867 19.59983855049837)"><g data-v-528fb24a="" transform=""><path data-v-528fb24a="" d="M11.642376547662595 24.978701415835918c2.201158278172973 4.685190666317384 9.075671337952482 3.1002231278970673 12.71524690467481 0" stroke="#ffffee" fill="none" stroke-linecap="round"></path><!----></g><rect data-v-528fb24a="" x="7.813769909938342" y="15.185407976606978" width="3.2369868387779146" height="2.7120455951811078" rx="1" stroke="none" fill="#ffffee"></rect><rect data-v-528fb24a="" x="24.949243251283743" y="15.185407976606978" width="3.2369868387779146" height="2.7120455951811078" rx="1" stroke="none" fill="#ffffee"></rect></g></g></svg>