<svg data-v-528fb24a="" viewBox="0 0 36 36" fill="none" xmlns="http://www.w3.org/2000/svg" width="256" height="256" id="avatar"><title data-v-528fb24a="">Simple Avatar</title><desc data-v-528fb24a="">CREATED BY XUAN TANG, MORE INFO AT TXSTC55.GITHUB.IO</desc><rect data-v-528fb24a="" width="36" height="36" fill="#ef476f"></rect><mask data-v-528fb24a="" id="mask__foreground" maskUnits="userSpaceOnUse" x="0" y="0" width="100" height="100"><rect data-v-528fb24a="" x="0" y="0" width="36" height="36" transform="translate(-1.8756779685357095 -1.8872081103150617) rotate(18.20250965964459 29.944771245458334 16.602107067662505)scale(1.1993378965040955)" rx="34.64123719984315" fill="white"></rect><!----></mask><mask data-v-528fb24a="" id="mask__background" maskUnits="userSpaceOnUse" x="0" y="0" width="100" height="100"><rect data-v-528fb24a="" id="test" x="0" y="0" width="36" height="36" fill="white"></rect><rect data-v-528fb24a="" x="3" y="3" width="30" height="30" transform="translate(-1.8756779685357095 -1.8872081103150617) rotate(18.20250965964459 29.944771245458334 16.602107067662505)scale(1.1993378965040955)" rx="34.64123719984315" fill="black"></rect><!----></mask><rect data-v-528fb24a="" x="0" y="0" width="36" height="36" fill="#19376D" mask="url(#mask__foreground)"></rect><g data-v-528fb24a="" mask="url(#mask__foreground)"><g data-v-528fb24a="" transform="translate(2.842865925734282 0.8858831758199344) rotate(-0.7332011222062107 21.031112466493582 28.094306560972313)"><g data-v-528fb24a="" transform=""><path data-v-528fb24a="" d="M13.298787498472953 23.441847198868864c1.7571513342597767 0.9910980974855124 9.249949576600418 1.0772540825791 9.402425003054095 0" stroke="#ffffee" fill="none" stroke-linecap="round"></path><!----></g><rect data-v-528fb24a="" x="11.930977293785846" y="10.885126826041425" width="3.1880632820342765" height="1.0462716872319935" rx="1" stroke="none" fill="#ffffee"></rect><rect data-v-528fb24a="" x="20.880959424179878" y="10.885126826041425" width="3.1880632820342765" height="1.0462716872319935" rx="1" stroke="none" fill="#ffffee"></rect></g></g><g data-v-528fb24a="" mask="url(#mask__background)"><g data-v-528fb24a="" transform="translate(2.842865925734282 0.8858831758199344) rotate(-0.7332011222062107 21.031112466493582 28.094306560972313)"><g data-v-528fb24a="" transform=""><path data-v-528fb24a="" d="M13.298787498472953 23.441847198868864c1.7571513342597767 0.9910980974855124 9.249949576600418 1.0772540825791 9.402425003054095 0" stroke="#ffffee" fill="none" stroke-linecap="round"></path><!----></g><rect data-v-528fb24a="" x="11.930977293785846" y="10.885126826041425" width="3.1880632820342765" height="1.0462716872319935" rx="1" stroke="none" fill="#ffffee"></rect><rect data-v-528fb24a="" x="20.880959424179878" y="10.885126826041425" width="3.1880632820342765" height="1.0462716872319935" rx="1" stroke="none" fill="#ffffee"></rect></g></g></svg>