<svg data-v-528fb24a="" viewBox="0 0 36 36" fill="none" xmlns="http://www.w3.org/2000/svg" width="256" height="256" id="avatar"><title data-v-528fb24a="">Simple Avatar</title><desc data-v-528fb24a="">CREATED BY XUAN TANG, MORE INFO AT TXSTC55.GITHUB.IO</desc><rect data-v-528fb24a="" width="36" height="36" fill="#FFD966"></rect><mask data-v-528fb24a="" id="mask__foreground" maskUnits="userSpaceOnUse" x="0" y="0" width="100" height="100"><rect data-v-528fb24a="" x="0" y="0" width="36" height="36" transform="translate(2.344024794731638 4.098314740387634) rotate(8.286985790052093 24.253525015856106 1.8823917893471203)scale(1.1295669083261022)" rx="7.7153270990891585" fill="white"></rect><!----></mask><mask data-v-528fb24a="" id="mask__background" maskUnits="userSpaceOnUse" x="0" y="0" width="100" height="100"><rect data-v-528fb24a="" id="test" x="0" y="0" width="36" height="36" fill="white"></rect><rect data-v-528fb24a="" x="3" y="3" width="30" height="30" transform="translate(2.344024794731638 4.098314740387634) rotate(8.286985790052093 24.253525015856106 1.8823917893471203)scale(1.1295669083261022)" rx="7.7153270990891585" fill="black"></rect><!----></mask><rect data-v-528fb24a="" x="0" y="0" width="36" height="36" fill="#C8E0F4" mask="url(#mask__foreground)"></rect><g data-v-528fb24a="" mask="url(#mask__foreground)"><g data-v-528fb24a="" transform="translate(-4.30413558459006 -2.370727957982597) rotate(-4.090454343419223 25.46753680132838 27.613714443979077)"><g data-v-528fb24a="" transform=""><!----><path data-v-528fb24a="" d="M13.577490599122374,20.293241277518298 a0.7993928149376769, 0.5415874827609617 0 0,0 8.89093639732277, 0.7501998063620787" fill="hsl(45, 66.66666666666667%, 100%)"></path></g><rect data-v-528fb24a="" x="9.9000455663342" y="11.865306560806324" width="4.89929344170099" height="2.1780633040246795" rx="1" stroke="none" fill="hsl(45, 66.66666666666667%, 100%)"></rect><rect data-v-528fb24a="" x="21.20066099196481" y="11.865306560806324" width="4.89929344170099" height="2.1780633040246795" rx="1" stroke="none" fill="hsl(45, 66.66666666666667%, 100%)"></rect></g></g><g data-v-528fb24a="" mask="url(#mask__background)"><g data-v-528fb24a="" transform="translate(-4.30413558459006 -2.370727957982597) rotate(-4.090454343419223 25.46753680132838 27.613714443979077)"><g data-v-528fb24a="" transform=""><!----><path data-v-528fb24a="" d="M13.577490599122374,20.293241277518298 a0.7993928149376769, 0.5415874827609617 0 0,0 8.89093639732277, 0.7501998063620787" fill="hsl(207, 44.46666666666667%, 100%)"></path></g><rect data-v-528fb24a="" x="9.9000455663342" y="11.865306560806324" width="4.89929344170099" height="2.1780633040246795" rx="1" stroke="none" fill="hsl(207, 44.46666666666667%, 100%)"></rect><rect data-v-528fb24a="" x="21.20066099196481" y="11.865306560806324" width="4.89929344170099" height="2.1780633040246795" rx="1" stroke="none" fill="hsl(207, 44.46666666666667%, 100%)"></rect></g></g></svg>