<svg data-v-528fb24a="" viewBox="0 0 36 36" fill="none" xmlns="http://www.w3.org/2000/svg" width="256" height="256" id="avatar"><title data-v-528fb24a="">Simple Avatar</title><desc data-v-528fb24a="">CREATED BY XUAN TANG, MORE INFO AT TXSTC55.GITHUB.IO</desc><rect data-v-528fb24a="" width="36" height="36" fill="#748CAB"></rect><mask data-v-528fb24a="" id="mask__foreground" maskUnits="userSpaceOnUse" x="0" y="0" width="100" height="100"><rect data-v-528fb24a="" x="0" y="0" width="36" height="36" transform="translate(4.0324293953103165 -3.284752474939925) rotate(12.24314694355948 10.428607546623237 7.967897720058326)scale(1.031300457806037)" rx="34.96299325009211" fill="white"></rect><!----></mask><mask data-v-528fb24a="" id="mask__background" maskUnits="userSpaceOnUse" x="0" y="0" width="100" height="100"><rect data-v-528fb24a="" id="test" x="0" y="0" width="36" height="36" fill="white"></rect><rect data-v-528fb24a="" x="3" y="3" width="30" height="30" transform="translate(4.0324293953103165 -3.284752474939925) rotate(12.24314694355948 10.428607546623237 7.967897720058326)scale(1.031300457806037)" rx="34.96299325009211" fill="black"></rect><!----></mask><rect data-v-528fb24a="" x="0" y="0" width="36" height="36" fill="#031927" mask="url(#mask__foreground)"></rect><g data-v-528fb24a="" mask="url(#mask__foreground)"><g data-v-528fb24a="" transform="translate(-4.691075783328711 4.375213896087075) rotate(-9.820180035723332 29.968384292300463 20.813425902538036)"><g data-v-528fb24a="" transform="rotate(180 18 22.806772069449334)"><path data-v-528fb24a="" d="M9.620038654973406 20.276883167769483c3.0597778033597027 0.6608518900846956 13.68387911508005 0.5424483130710194 16.759922690053187 0" stroke="#ffffee" fill="none" stroke-linecap="round"></path><!----></g><rect data-v-528fb24a="" x="8.91770621416812" y="13.788174307342238" width="5.549205354194806" height="2.4234144692342356" rx="1" stroke="none" fill="#ffffee"></rect><rect data-v-528fb24a="" x="21.533088431637076" y="13.788174307342238" width="5.549205354194806" height="2.4234144692342356" rx="1" stroke="none" fill="#ffffee"></rect></g></g><g data-v-528fb24a="" mask="url(#mask__background)"><g data-v-528fb24a="" transform="translate(-4.691075783328711 4.375213896087075) rotate(-9.820180035723332 29.968384292300463 20.813425902538036)"><g data-v-528fb24a="" transform="rotate(180 18 22.806772069449334)"><path data-v-528fb24a="" d="M9.620038654973406 20.276883167769483c3.0597778033597027 0.6608518900846956 13.68387911508005 0.5424483130710194 16.759922690053187 0" stroke="#ffffee" fill="none" stroke-linecap="round"></path><!----></g><rect data-v-528fb24a="" x="8.91770621416812" y="13.788174307342238" width="5.549205354194806" height="2.4234144692342356" rx="1" stroke="none" fill="#ffffee"></rect><rect data-v-528fb24a="" x="21.533088431637076" y="13.788174307342238" width="5.549205354194806" height="2.4234144692342356" rx="1" stroke="none" fill="#ffffee"></rect></g></g></svg>