<svg data-v-528fb24a="" viewBox="0 0 36 36" fill="none" xmlns="http://www.w3.org/2000/svg" width="256" height="256" id="avatar"><title data-v-528fb24a="">Simple Avatar</title><desc data-v-528fb24a="">CREATED BY XUAN TANG, MORE INFO AT TXSTC55.GITHUB.IO</desc><rect data-v-528fb24a="" width="36" height="36" fill="#FFD93D"></rect><mask data-v-528fb24a="" id="mask__foreground" maskUnits="userSpaceOnUse" x="0" y="0" width="100" height="100"><rect data-v-528fb24a="" x="0" y="0" width="36" height="36" transform="translate(-4.8947952242670345 -3.2348445613952403) rotate(1.1283238367348147 6.15773180087947 18.05271795791419)scale(1.0957766250759833)" rx="22.37841954458061" fill="white"></rect><!----></mask><mask data-v-528fb24a="" id="mask__background" maskUnits="userSpaceOnUse" x="0" y="0" width="100" height="100"><rect data-v-528fb24a="" id="test" x="0" y="0" width="36" height="36" fill="white"></rect><rect data-v-528fb24a="" x="3" y="3" width="30" height="30" transform="translate(-4.8947952242670345 -3.2348445613952403) rotate(1.1283238367348147 6.15773180087947 18.05271795791419)scale(1.0957766250759833)" rx="22.37841954458061" fill="black"></rect><!----></mask><rect data-v-528fb24a="" x="0" y="0" width="36" height="36" fill="#FFD93D" mask="url(#mask__foreground)"></rect><g data-v-528fb24a="" mask="url(#mask__foreground)"><g data-v-528fb24a="" transform="translate(-4.989676158146912 -1.9184463014967212) rotate(-3.050517827910708 18.240257443316516 35.81648036735218)"><g data-v-528fb24a="" transform=""><path data-v-528fb24a="" d="M11.428898053999538 19.616589960787334c1.107224376936263 2.682422189805149 9.488770545019479 2.4348352138025477 13.142203892000925 0" stroke="hsl(48, 66.66666666666667%, 100%)" fill="none" stroke-linecap="round"></path><!----></g><rect data-v-528fb24a="" x="7.2374996989281986" y="14.133299393537053" width="5.610059777830697" height="2.3312005690553197" rx="1" stroke="none" fill="hsl(48, 66.66666666666667%, 100%)"></rect><rect data-v-528fb24a="" x="23.152440523241104" y="14.133299393537053" width="5.610059777830697" height="2.3312005690553197" rx="1" stroke="none" fill="hsl(48, 66.66666666666667%, 100%)"></rect></g></g><g data-v-528fb24a="" mask="url(#mask__background)"><g data-v-528fb24a="" transform="translate(-4.989676158146912 -1.9184463014967212) rotate(-3.050517827910708 18.240257443316516 35.81648036735218)"><g data-v-528fb24a="" transform=""><path data-v-528fb24a="" d="M11.428898053999538 19.616589960787334c1.107224376936263 2.682422189805149 9.488770545019479 2.4348352138025477 13.142203892000925 0" stroke="hsl(48, 66.66666666666667%, 100%)" fill="none" stroke-linecap="round"></path><!----></g><rect data-v-528fb24a="" x="7.2374996989281986" y="14.133299393537053" width="5.610059777830697" height="2.3312005690553197" rx="1" stroke="none" fill="hsl(48, 66.66666666666667%, 100%)"></rect><rect data-v-528fb24a="" x="23.152440523241104" y="14.133299393537053" width="5.610059777830697" height="2.3312005690553197" rx="1" stroke="none" fill="hsl(48, 66.66666666666667%, 100%)"></rect></g></g></svg>