<svg data-v-528fb24a="" viewBox="0 0 36 36" fill="none" xmlns="http://www.w3.org/2000/svg" width="256" height="256" id="avatar"><title data-v-528fb24a="">Simple Avatar</title><desc data-v-528fb24a="">CREATED BY XUAN TANG, MORE INFO AT TXSTC55.GITHUB.IO</desc><rect data-v-528fb24a="" width="36" height="36" fill="#245953"></rect><mask data-v-528fb24a="" id="mask__foreground" maskUnits="userSpaceOnUse" x="0" y="0" width="100" height="100"><rect data-v-528fb24a="" x="0" y="0" width="36" height="36" transform="translate(-4.222650379533988 1.5355645356137027) rotate(-12.723829257878174 21.435360728416356 4.43332097922018)scale(1.1973814602296562)" rx="12.602568267908111" fill="white"></rect><!----></mask><mask data-v-528fb24a="" id="mask__background" maskUnits="userSpaceOnUse" x="0" y="0" width="100" height="100"><rect data-v-528fb24a="" id="test" x="0" y="0" width="36" height="36" fill="white"></rect><rect data-v-528fb24a="" x="3" y="3" width="30" height="30" transform="translate(-4.222650379533988 1.5355645356137027) rotate(-12.723829257878174 21.435360728416356 4.43332097922018)scale(1.1973814602296562)" rx="12.602568267908111" fill="black"></rect><!----></mask><rect data-v-528fb24a="" x="0" y="0" width="36" height="36" fill="#0b3866" mask="url(#mask__foreground)"></rect><g data-v-528fb24a="" mask="url(#mask__foreground)"><g data-v-528fb24a="" transform="translate(0.3746441413365087 -3.126414163917728) rotate(4.851334322937495 35.10237061374174 35.34605541086558)"><g data-v-528fb24a="" transform=""><!----><path data-v-528fb24a="" d="M13.896943089792346,23.155957018377695 a0.5808476686389786, 0.8636539831709064 0 0,0 10.152585049808296, -0.542345155596279" fill="#ffffee"></path></g><rect data-v-528fb24a="" x="9.313549979018664" y="15.458415002206976" width="3.044391193165521" height="1.5411767524682891" rx="1" stroke="none" fill="#ffffee"></rect><rect data-v-528fb24a="" x="23.642058827815816" y="15.458415002206976" width="3.044391193165521" height="1.5411767524682891" rx="1" stroke="none" fill="#ffffee"></rect></g></g><g data-v-528fb24a="" mask="url(#mask__background)"><g data-v-528fb24a="" transform="translate(0.3746441413365087 -3.126414163917728) rotate(4.851334322937495 35.10237061374174 35.34605541086558)"><g data-v-528fb24a="" transform=""><!----><path data-v-528fb24a="" d="M13.896943089792346,23.155957018377695 a0.5808476686389786, 0.8636539831709064 0 0,0 10.152585049808296, -0.542345155596279" fill="#ffffee"></path></g><rect data-v-528fb24a="" x="9.313549979018664" y="15.458415002206976" width="3.044391193165521" height="1.5411767524682891" rx="1" stroke="none" fill="#ffffee"></rect><rect data-v-528fb24a="" x="23.642058827815816" y="15.458415002206976" width="3.044391193165521" height="1.5411767524682891" rx="1" stroke="none" fill="#ffffee"></rect></g></g></svg>