<svg data-v-528fb24a="" viewBox="0 0 36 36" fill="none" xmlns="http://www.w3.org/2000/svg" width="256" height="256" id="avatar"><title data-v-528fb24a="">Simple Avatar</title><desc data-v-528fb24a="">CREATED BY XUAN TANG, MORE INFO AT TXSTC55.GITHUB.IO</desc><rect data-v-528fb24a="" width="36" height="36" fill="#0B2447"></rect><mask data-v-528fb24a="" id="mask__foreground" maskUnits="userSpaceOnUse" x="0" y="0" width="100" height="100"><rect data-v-528fb24a="" x="0" y="0" width="36" height="36" transform="translate(-4.923959477111055 -1.6596558125868177) rotate(-17.45721213118432 26.12060874756896 4.066785509947722)scale(1.1150340369357967)" rx="6.437487075731028" fill="white"></rect><!----></mask><mask data-v-528fb24a="" id="mask__background" maskUnits="userSpaceOnUse" x="0" y="0" width="100" height="100"><rect data-v-528fb24a="" id="test" x="0" y="0" width="36" height="36" fill="white"></rect><rect data-v-528fb24a="" x="3" y="3" width="30" height="30" transform="translate(-4.923959477111055 -1.6596558125868177) rotate(-17.45721213118432 26.12060874756896 4.066785509947722)scale(1.1150340369357967)" rx="6.437487075731028" fill="black"></rect><!----></mask><rect data-v-528fb24a="" x="0" y="0" width="36" height="36" fill="#BF3817" mask="url(#mask__foreground)"></rect><g data-v-528fb24a="" mask="url(#mask__foreground)"><g data-v-528fb24a="" transform="translate(-0.9618196096840332 0.7010861910220667) rotate(7.051973760305572 26.549788418660903 32.63196433083739)"><g data-v-528fb24a="" transform="rotate(180 18 22.16968610166744)"><!----><path data-v-528fb24a="" d="M14.816560847254628,21.2630763359254 a0.7634927711599928, 0.757420440918 0 0,0 5.111960362217792, 0.2862339992479894" fill="#ffffee"></path></g><rect data-v-528fb24a="" x="10.391325677894049" y="10.748228446053282" width="2.0740075819812835" height="1.8045918081897008" rx="1" stroke="none" fill="#ffffee"></rect><rect data-v-528fb24a="" x="23.534666740124667" y="10.748228446053282" width="2.0740075819812835" height="1.8045918081897008" rx="1" stroke="none" fill="#ffffee"></rect></g></g><g data-v-528fb24a="" mask="url(#mask__background)"><g data-v-528fb24a="" transform="translate(-0.9618196096840332 0.7010861910220667) rotate(7.051973760305572 26.549788418660903 32.63196433083739)"><g data-v-528fb24a="" transform="rotate(180 18 22.16968610166744)"><!----><path data-v-528fb24a="" d="M14.816560847254628,21.2630763359254 a0.7634927711599928, 0.757420440918 0 0,0 5.111960362217792, 0.2862339992479894" fill="#ffffee"></path></g><rect data-v-528fb24a="" x="10.391325677894049" y="10.748228446053282" width="2.0740075819812835" height="1.8045918081897008" rx="1" stroke="none" fill="#ffffee"></rect><rect data-v-528fb24a="" x="23.534666740124667" y="10.748228446053282" width="2.0740075819812835" height="1.8045918081897008" rx="1" stroke="none" fill="#ffffee"></rect></g></g></svg>