<svg data-v-528fb24a="" viewBox="0 0 36 36" fill="none" xmlns="http://www.w3.org/2000/svg" width="256" height="256" id="avatar"><title data-v-528fb24a="">Simple Avatar</title><desc data-v-528fb24a="">CREATED BY XUAN TANG, MORE INFO AT TXSTC55.GITHUB.IO</desc><rect data-v-528fb24a="" width="36" height="36" fill="#ef476f"></rect><mask data-v-528fb24a="" id="mask__foreground" maskUnits="userSpaceOnUse" x="0" y="0" width="100" height="100"><rect data-v-528fb24a="" x="0" y="0" width="36" height="36" transform="translate(0.494965503089146 1.2809434050128736) rotate(8.656924274297086 25.502257217811373 34.389502846241214)scale(1.1790505801306483)" rx="28.44323662161012" fill="white"></rect><!----></mask><mask data-v-528fb24a="" id="mask__background" maskUnits="userSpaceOnUse" x="0" y="0" width="100" height="100"><rect data-v-528fb24a="" id="test" x="0" y="0" width="36" height="36" fill="white"></rect><rect data-v-528fb24a="" x="3" y="3" width="30" height="30" transform="translate(0.494965503089146 1.2809434050128736) rotate(8.656924274297086 25.502257217811373 34.389502846241214)scale(1.1790505801306483)" rx="28.44323662161012" fill="black"></rect><!----></mask><rect data-v-528fb24a="" x="0" y="0" width="36" height="36" fill="#471069" mask="url(#mask__foreground)"></rect><g data-v-528fb24a="" mask="url(#mask__foreground)"><g data-v-528fb24a="" transform="translate(1.637970176199957 2.4151486470960055) rotate(3.1184666216699455 33.812315182498736 28.018636007895772)"><g data-v-528fb24a="" transform=""><path data-v-528fb24a="" d="M13.469024329383249 22.00977522407936c3.589674303464836 2.4746853307862047 7.614661904883201 0.5616061718195842 9.061951341233502 0" stroke="#ffffee" fill="none" stroke-linecap="round"></path><!----></g><rect data-v-528fb24a="" x="5.268157290471388" y="9.026718906725096" width="5.929982278171574" height="2.9337963825402866" rx="1" stroke="none" fill="#ffffee"></rect><rect data-v-528fb24a="" x="24.80186043135704" y="9.026718906725096" width="5.929982278171574" height="2.9337963825402866" rx="1" stroke="none" fill="#ffffee"></rect></g></g><g data-v-528fb24a="" mask="url(#mask__background)"><g data-v-528fb24a="" transform="translate(1.637970176199957 2.4151486470960055) rotate(3.1184666216699455 33.812315182498736 28.018636007895772)"><g data-v-528fb24a="" transform=""><path data-v-528fb24a="" d="M13.469024329383249 22.00977522407936c3.589674303464836 2.4746853307862047 7.614661904883201 0.5616061718195842 9.061951341233502 0" stroke="#ffffee" fill="none" stroke-linecap="round"></path><!----></g><rect data-v-528fb24a="" x="5.268157290471388" y="9.026718906725096" width="5.929982278171574" height="2.9337963825402866" rx="1" stroke="none" fill="#ffffee"></rect><rect data-v-528fb24a="" x="24.80186043135704" y="9.026718906725096" width="5.929982278171574" height="2.9337963825402866" rx="1" stroke="none" fill="#ffffee"></rect></g></g></svg>