<svg data-v-528fb24a="" viewBox="0 0 36 36" fill="none" xmlns="http://www.w3.org/2000/svg" width="256" height="256" id="avatar"><title data-v-528fb24a="">Simple Avatar</title><desc data-v-528fb24a="">CREATED BY XUAN TANG, MORE INFO AT TXSTC55.GITHUB.IO</desc><rect data-v-528fb24a="" width="36" height="36" fill="#FFD93D"></rect><mask data-v-528fb24a="" id="mask__foreground" maskUnits="userSpaceOnUse" x="0" y="0" width="100" height="100"><rect data-v-528fb24a="" x="0" y="0" width="36" height="36" transform="translate(2.073165160167747 -3.883855559316367) rotate(0.9723433800674997 0.6558091902730663 26.550964924144147)scale(1.101146035740577)" rx="10.80216616134905" fill="white"></rect><!----></mask><mask data-v-528fb24a="" id="mask__background" maskUnits="userSpaceOnUse" x="0" y="0" width="100" height="100"><rect data-v-528fb24a="" id="test" x="0" y="0" width="36" height="36" fill="white"></rect><rect data-v-528fb24a="" x="3" y="3" width="30" height="30" transform="translate(2.073165160167747 -3.883855559316367) rotate(0.9723433800674997 0.6558091902730663 26.550964924144147)scale(1.101146035740577)" rx="10.80216616134905" fill="black"></rect><!----></mask><rect data-v-528fb24a="" x="0" y="0" width="36" height="36" fill="#e7ecef" mask="url(#mask__foreground)"></rect><g data-v-528fb24a="" mask="url(#mask__foreground)"><g data-v-528fb24a="" transform="translate(3.5454249368990602 -4.422077205495478) rotate(-3.464981246009491 25.390984021180067 27.608249249943487)"><g data-v-528fb24a="" transform=""><path data-v-528fb24a="" d="M11.90108713022799 19.67101876640958c3.1656239959855474 3.324662571441211 8.465610473363306 4.156262369330302 12.197825739544019 0" stroke="hsl(48, 66.66666666666667%, 100%)" fill="none" stroke-linecap="round"></path><!----></g><rect data-v-528fb24a="" x="8.412049628246777" y="14.027612706313544" width="4.908028645432296" height="2.149351109375422" rx="1" stroke="none" fill="hsl(48, 66.66666666666667%, 100%)"></rect><rect data-v-528fb24a="" x="22.679921726320927" y="14.027612706313544" width="4.908028645432296" height="2.149351109375422" rx="1" stroke="none" fill="hsl(48, 66.66666666666667%, 100%)"></rect></g></g><g data-v-528fb24a="" mask="url(#mask__background)"><g data-v-528fb24a="" transform="translate(3.5454249368990602 -4.422077205495478) rotate(-3.464981246009491 25.390984021180067 27.608249249943487)"><g data-v-528fb24a="" transform=""><path data-v-528fb24a="" d="M11.90108713022799 19.67101876640958c3.1656239959855474 3.324662571441211 8.465610473363306 4.156262369330302 12.197825739544019 0" stroke="hsl(202, 13.333333333333334%, 100%)" fill="none" stroke-linecap="round"></path><!----></g><rect data-v-528fb24a="" x="8.412049628246777" y="14.027612706313544" width="4.908028645432296" height="2.149351109375422" rx="1" stroke="none" fill="hsl(202, 13.333333333333334%, 100%)"></rect><rect data-v-528fb24a="" x="22.679921726320927" y="14.027612706313544" width="4.908028645432296" height="2.149351109375422" rx="1" stroke="none" fill="hsl(202, 13.333333333333334%, 100%)"></rect></g></g></svg>