<svg data-v-528fb24a="" viewBox="0 0 36 36" fill="none" xmlns="http://www.w3.org/2000/svg" width="256" height="256" id="avatar"><title data-v-528fb24a="">Simple Avatar</title><desc data-v-528fb24a="">CREATED BY XUAN TANG, MORE INFO AT TXSTC55.GITHUB.IO</desc><rect data-v-528fb24a="" width="36" height="36" fill="#274c77"></rect><mask data-v-528fb24a="" id="mask__foreground" maskUnits="userSpaceOnUse" x="0" y="0" width="100" height="100"><rect data-v-528fb24a="" x="0" y="0" width="36" height="36" transform="translate(1.3948276036640088 -2.863574795364805) rotate(-9.444566545267339 12.563931255927628 23.97175894331693)scale(1.171346095991056)" rx="22.126822950693693" fill="white"></rect><!----></mask><mask data-v-528fb24a="" id="mask__background" maskUnits="userSpaceOnUse" x="0" y="0" width="100" height="100"><rect data-v-528fb24a="" id="test" x="0" y="0" width="36" height="36" fill="white"></rect><rect data-v-528fb24a="" x="3" y="3" width="30" height="30" transform="translate(1.3948276036640088 -2.863574795364805) rotate(-9.444566545267339 12.563931255927628 23.97175894331693)scale(1.171346095991056)" rx="22.126822950693693" fill="black"></rect><!----></mask><rect data-v-528fb24a="" x="0" y="0" width="36" height="36" fill="#FF8400" mask="url(#mask__foreground)"></rect><g data-v-528fb24a="" mask="url(#mask__foreground)"><g data-v-528fb24a="" transform="translate(-4.716321365151492 2.751899610871728) rotate(-1.7043789185590708 32.612025380106175 23.26907930481267)"><g data-v-528fb24a="" transform=""><!----><path data-v-528fb24a="" d="M11.854286337715447,23.05049568348573 a0.5783035196742367, 0.6621575689516414 0 0,0 11.792208464627414, 0.9163895352647966" fill="#ffffee"></path></g><rect data-v-528fb24a="" x="8.533260120310924" y="14.633106777943741" width="4.621364011347148" height="2.634956194605478" rx="1" stroke="none" fill="#ffffee"></rect><rect data-v-528fb24a="" x="22.84537586834193" y="14.633106777943741" width="4.621364011347148" height="2.634956194605478" rx="1" stroke="none" fill="#ffffee"></rect></g></g><g data-v-528fb24a="" mask="url(#mask__background)"><g data-v-528fb24a="" transform="translate(-4.716321365151492 2.751899610871728) rotate(-1.7043789185590708 32.612025380106175 23.26907930481267)"><g data-v-528fb24a="" transform=""><!----><path data-v-528fb24a="" d="M11.854286337715447,23.05049568348573 a0.5783035196742367, 0.6621575689516414 0 0,0 11.792208464627414, 0.9163895352647966" fill="#ffffee"></path></g><rect data-v-528fb24a="" x="8.533260120310924" y="14.633106777943741" width="4.621364011347148" height="2.634956194605478" rx="1" stroke="none" fill="#ffffee"></rect><rect data-v-528fb24a="" x="22.84537586834193" y="14.633106777943741" width="4.621364011347148" height="2.634956194605478" rx="1" stroke="none" fill="#ffffee"></rect></g></g></svg>