<svg data-v-528fb24a="" viewBox="0 0 36 36" fill="none" xmlns="http://www.w3.org/2000/svg" width="256" height="256" id="avatar"><title data-v-528fb24a="">Simple Avatar</title><desc data-v-528fb24a="">CREATED BY XUAN TANG, MORE INFO AT TXSTC55.GITHUB.IO</desc><rect data-v-528fb24a="" width="36" height="36" fill="#C8E0F4"></rect><mask data-v-528fb24a="" id="mask__foreground" maskUnits="userSpaceOnUse" x="0" y="0" width="100" height="100"><rect data-v-528fb24a="" x="0" y="0" width="36" height="36" transform="translate(4.260650041998126 -3.364371009263991) rotate(-16.888767049765285 14.154765283926078 9.43119709065953)scale(1.1213687119005107)" rx="29.14589335584769" fill="white"></rect><!----></mask><mask data-v-528fb24a="" id="mask__background" maskUnits="userSpaceOnUse" x="0" y="0" width="100" height="100"><rect data-v-528fb24a="" id="test" x="0" y="0" width="36" height="36" fill="white"></rect><rect data-v-528fb24a="" x="3" y="3" width="30" height="30" transform="translate(4.260650041998126 -3.364371009263991) rotate(-16.888767049765285 14.154765283926078 9.43119709065953)scale(1.1213687119005107)" rx="29.14589335584769" fill="black"></rect><!----></mask><rect data-v-528fb24a="" x="0" y="0" width="36" height="36" fill="#FFF2CC" mask="url(#mask__foreground)"></rect><g data-v-528fb24a="" mask="url(#mask__foreground)"><g data-v-528fb24a="" transform="translate(2.1201958209232075 -0.622112077521491) rotate(-5.199648282250657 20.35115831311869 25.135973041305395)"><g data-v-528fb24a="" transform="rotate(180 18 20.690450545609437)"><!----><path data-v-528fb24a="" d="M14.514186918178762,19.349036585880185 a0.5388174161912441, 0.8733079556617023 0 0,0 6.099794217960062, 0.9362120592490508" fill="hsl(207, 44.46666666666667%, 100%)"></path></g><rect data-v-528fb24a="" x="7.853184615221249" y="10.730964068518183" width="4.027961994070374" height="2.3297171388137725" rx="1" stroke="none" fill="hsl(207, 44.46666666666667%, 100%)"></rect><rect data-v-528fb24a="" x="24.118853390708377" y="10.730964068518183" width="4.027961994070374" height="2.3297171388137725" rx="1" stroke="none" fill="hsl(207, 44.46666666666667%, 100%)"></rect></g></g><g data-v-528fb24a="" mask="url(#mask__background)"><g data-v-528fb24a="" transform="translate(2.1201958209232075 -0.622112077521491) rotate(-5.199648282250657 20.35115831311869 25.135973041305395)"><g data-v-528fb24a="" transform="rotate(180 18 20.690450545609437)"><!----><path data-v-528fb24a="" d="M14.514186918178762,19.349036585880185 a0.5388174161912441, 0.8733079556617023 0 0,0 6.099794217960062, 0.9362120592490508" fill="hsl(45, 66.66666666666667%, 100%)"></path></g><rect data-v-528fb24a="" x="7.853184615221249" y="10.730964068518183" width="4.027961994070374" height="2.3297171388137725" rx="1" stroke="none" fill="hsl(45, 66.66666666666667%, 100%)"></rect><rect data-v-528fb24a="" x="24.118853390708377" y="10.730964068518183" width="4.027961994070374" height="2.3297171388137725" rx="1" stroke="none" fill="hsl(45, 66.66666666666667%, 100%)"></rect></g></g></svg>