<svg data-v-528fb24a="" viewBox="0 0 36 36" fill="none" xmlns="http://www.w3.org/2000/svg" width="256" height="256" id="avatar"><title data-v-528fb24a="">Simple Avatar</title><desc data-v-528fb24a="">CREATED BY XUAN TANG, MORE INFO AT TXSTC55.GITHUB.IO</desc><rect data-v-528fb24a="" width="36" height="36" fill="#ef476f"></rect><mask data-v-528fb24a="" id="mask__foreground" maskUnits="userSpaceOnUse" x="0" y="0" width="100" height="100"><!----><path data-v-528fb24a="" stroke-width="9.232085483032899" stroke-linecap="round" stroke-linejoin="round" stroke="white" fill="white" d="M 18,7.75128869404 32,32 4,32 z" transform="translate(-3.8140840660091135 -4.270754734218976) rotate(-11.360966108070652 18 18)"></path></mask><mask data-v-528fb24a="" id="mask__background" maskUnits="userSpaceOnUse" x="0" y="0" width="100" height="100"><rect data-v-528fb24a="" id="test" x="0" y="0" width="36" height="36" fill="white"></rect><!----><path data-v-528fb24a="" stroke-width="9.232085483032899" stroke-linecap="round" stroke-linejoin="round" stroke="black" fill="black" d="M 18,7.75128869404 32,32 4,32 z" transform="translate(-3.8140840660091135 -4.270754734218976) rotate(-11.360966108070652 18 18)"></path></mask><rect data-v-528fb24a="" x="0" y="0" width="36" height="36" fill="#408E91" mask="url(#mask__foreground)"></rect><g data-v-528fb24a="" mask="url(#mask__foreground)"><g data-v-528fb24a="" transform="translate(0.34797009844383453 -2.3747485673443847) rotate(-9.924915328929051 31.4641356195659 34.11225132654569)"><g data-v-528fb24a="" transform=""><path data-v-528fb24a="" d="M9.385221375210444 21.48385115905984c0.4617829865539358 4.209607805844539 16.650942161749175 2.9351619296265876 17.229557249579113 0" stroke="#ffffee" fill="none" stroke-linecap="round"></path><!----></g><rect data-v-528fb24a="" x="8.890146093885267" y="10.615874728564696" width="4.989747858122926" height="2.533879874864872" rx="1" stroke="none" fill="#ffffee"></rect><rect data-v-528fb24a="" x="22.120106047991808" y="10.615874728564696" width="4.989747858122926" height="2.533879874864872" rx="1" stroke="none" fill="#ffffee"></rect></g></g><g data-v-528fb24a="" mask="url(#mask__background)"><g data-v-528fb24a="" transform="translate(0.34797009844383453 -2.3747485673443847) rotate(-9.924915328929051 31.4641356195659 34.11225132654569)"><g data-v-528fb24a="" transform=""><path data-v-528fb24a="" d="M9.385221375210444 21.48385115905984c0.4617829865539358 4.209607805844539 16.650942161749175 2.9351619296265876 17.229557249579113 0" stroke="#ffffee" fill="none" stroke-linecap="round"></path><!----></g><rect data-v-528fb24a="" x="8.890146093885267" y="10.615874728564696" width="4.989747858122926" height="2.533879874864872" rx="1" stroke="none" fill="#ffffee"></rect><rect data-v-528fb24a="" x="22.120106047991808" y="10.615874728564696" width="4.989747858122926" height="2.533879874864872" rx="1" stroke="none" fill="#ffffee"></rect></g></g></svg>