<svg data-v-528fb24a="" viewBox="0 0 36 36" fill="none" xmlns="http://www.w3.org/2000/svg" width="256" height="256" id="avatar"><title data-v-528fb24a="">Simple Avatar</title><desc data-v-528fb24a="">CREATED BY XUAN TANG, MORE INFO AT TXSTC55.GITHUB.IO</desc><rect data-v-528fb24a="" width="36" height="36" fill="#FFF2CC"></rect><mask data-v-528fb24a="" id="mask__foreground" maskUnits="userSpaceOnUse" x="0" y="0" width="100" height="100"><rect data-v-528fb24a="" x="0" y="0" width="36" height="36" transform="translate(-4.09756851701937 4.184364978559705) rotate(-5.358526079189065 17.099661008971932 10.671241250346391)scale(1.1334132575191225)" rx="26.714364358328105" fill="white"></rect><!----></mask><mask data-v-528fb24a="" id="mask__background" maskUnits="userSpaceOnUse" x="0" y="0" width="100" height="100"><rect data-v-528fb24a="" id="test" x="0" y="0" width="36" height="36" fill="white"></rect><rect data-v-528fb24a="" x="3" y="3" width="30" height="30" transform="translate(-4.09756851701937 4.184364978559705) rotate(-5.358526079189065 17.099661008971932 10.671241250346391)scale(1.1334132575191225)" rx="26.714364358328105" fill="black"></rect><!----></mask><rect data-v-528fb24a="" x="0" y="0" width="36" height="36" fill="#FFD93D" mask="url(#mask__foreground)"></rect><g data-v-528fb24a="" mask="url(#mask__foreground)"><g data-v-528fb24a="" transform="translate(1.562472032617734 1.3070638422154568) rotate(8.83192292903383 24.461284973225826 29.75760495321982)"><g data-v-528fb24a="" transform=""><path data-v-528fb24a="" d="M12.392440195145717 24.322806400505296c2.6778404502922175 2.802062147638482 9.860763554365988 2.5945229862589887 11.215119609708564 0" stroke="hsl(45, 66.66666666666667%, 100%)" fill="none" stroke-linecap="round"></path><!----></g><rect data-v-528fb24a="" x="9.761604170548772" y="13.817915143528827" width="5.073163661197306" height="0.9786989944936987" rx="1" stroke="none" fill="hsl(45, 66.66666666666667%, 100%)"></rect><rect data-v-528fb24a="" x="21.165232168253922" y="13.817915143528827" width="5.073163661197306" height="0.9786989944936987" rx="1" stroke="none" fill="hsl(45, 66.66666666666667%, 100%)"></rect></g></g><g data-v-528fb24a="" mask="url(#mask__background)"><g data-v-528fb24a="" transform="translate(1.562472032617734 1.3070638422154568) rotate(8.83192292903383 24.461284973225826 29.75760495321982)"><g data-v-528fb24a="" transform=""><path data-v-528fb24a="" d="M12.392440195145717 24.322806400505296c2.6778404502922175 2.802062147638482 9.860763554365988 2.5945229862589887 11.215119609708564 0" stroke="hsl(48, 66.66666666666667%, 100%)" fill="none" stroke-linecap="round"></path><!----></g><rect data-v-528fb24a="" x="9.761604170548772" y="13.817915143528827" width="5.073163661197306" height="0.9786989944936987" rx="1" stroke="none" fill="hsl(48, 66.66666666666667%, 100%)"></rect><rect data-v-528fb24a="" x="21.165232168253922" y="13.817915143528827" width="5.073163661197306" height="0.9786989944936987" rx="1" stroke="none" fill="hsl(48, 66.66666666666667%, 100%)"></rect></g></g></svg>