<svg data-v-528fb24a="" viewBox="0 0 36 36" fill="none" xmlns="http://www.w3.org/2000/svg" width="256" height="256" id="avatar"><title data-v-528fb24a="">Simple Avatar</title><desc data-v-528fb24a="">CREATED BY XUAN TANG, MORE INFO AT TXSTC55.GITHUB.IO</desc><rect data-v-528fb24a="" width="36" height="36" fill="#508AA8"></rect><mask data-v-528fb24a="" id="mask__foreground" maskUnits="userSpaceOnUse" x="0" y="0" width="100" height="100"><rect data-v-528fb24a="" x="0" y="0" width="36" height="36" transform="translate(1.2716160775031993 -0.12152806822559814) rotate(18.847366067478816 2.900641962406647 7.42423373574254)scale(1.019386606731713)" rx="5.0171819362357155" fill="white"></rect><!----></mask><mask data-v-528fb24a="" id="mask__background" maskUnits="userSpaceOnUse" x="0" y="0" width="100" height="100"><rect data-v-528fb24a="" id="test" x="0" y="0" width="36" height="36" fill="white"></rect><rect data-v-528fb24a="" x="3" y="3" width="30" height="30" transform="translate(1.2716160775031993 -0.12152806822559814) rotate(18.847366067478816 2.900641962406647 7.42423373574254)scale(1.019386606731713)" rx="5.0171819362357155" fill="black"></rect><!----></mask><rect data-v-528fb24a="" x="0" y="0" width="36" height="36" fill="#471069" mask="url(#mask__foreground)"></rect><g data-v-528fb24a="" mask="url(#mask__foreground)"><g data-v-528fb24a="" transform="translate(2.739348475158323 4.364073175009835) rotate(6.503250549038565 22.940228776086478 27.311170721140083)"><g data-v-528fb24a="" transform="rotate(180 18 19.6303673201777)"><path data-v-528fb24a="" d="M14.630162962438972 18.295442995347305c0.6698486496607918 2.104350150033274 4.997706665548401 1.3396309589599105 6.739674075122057 0" stroke="#ffffee" fill="none" stroke-linecap="round"></path><!----></g><rect data-v-528fb24a="" x="7.228824256343159" y="11.792083356114304" width="5.790929154434417" height="0.7561012024578274" rx="1" stroke="none" fill="#ffffee"></rect><rect data-v-528fb24a="" x="22.980246589222425" y="11.792083356114304" width="5.790929154434417" height="0.7561012024578274" rx="1" stroke="none" fill="#ffffee"></rect></g></g><g data-v-528fb24a="" mask="url(#mask__background)"><g data-v-528fb24a="" transform="translate(2.739348475158323 4.364073175009835) rotate(6.503250549038565 22.940228776086478 27.311170721140083)"><g data-v-528fb24a="" transform="rotate(180 18 19.6303673201777)"><path data-v-528fb24a="" d="M14.630162962438972 18.295442995347305c0.6698486496607918 2.104350150033274 4.997706665548401 1.3396309589599105 6.739674075122057 0" stroke="#ffffee" fill="none" stroke-linecap="round"></path><!----></g><rect data-v-528fb24a="" x="7.228824256343159" y="11.792083356114304" width="5.790929154434417" height="0.7561012024578274" rx="1" stroke="none" fill="#ffffee"></rect><rect data-v-528fb24a="" x="22.980246589222425" y="11.792083356114304" width="5.790929154434417" height="0.7561012024578274" rx="1" stroke="none" fill="#ffffee"></rect></g></g></svg>