<svg data-v-528fb24a="" viewBox="0 0 36 36" fill="none" xmlns="http://www.w3.org/2000/svg" width="256" height="256" id="avatar"><title data-v-528fb24a="">Simple Avatar</title><desc data-v-528fb24a="">CREATED BY XUAN TANG, MORE INFO AT TXSTC55.GITHUB.IO</desc><rect data-v-528fb24a="" width="36" height="36" fill="#023d67"></rect><mask data-v-528fb24a="" id="mask__foreground" maskUnits="userSpaceOnUse" x="0" y="0" width="100" height="100"><rect data-v-528fb24a="" x="0" y="0" width="36" height="36" transform="translate(-4.509250827395064 -1.9521738991587445) rotate(13.153460449000143 11.357823912647737 18.082045630549523)scale(1.0238704158795913)" rx="30.52112689914339" fill="white"></rect><!----></mask><mask data-v-528fb24a="" id="mask__background" maskUnits="userSpaceOnUse" x="0" y="0" width="100" height="100"><rect data-v-528fb24a="" id="test" x="0" y="0" width="36" height="36" fill="white"></rect><rect data-v-528fb24a="" x="3" y="3" width="30" height="30" transform="translate(-4.509250827395064 -1.9521738991587445) rotate(13.153460449000143 11.357823912647737 18.082045630549523)scale(1.0238704158795913)" rx="30.52112689914339" fill="black"></rect><!----></mask><rect data-v-528fb24a="" x="0" y="0" width="36" height="36" fill="#30c5d2" mask="url(#mask__foreground)"></rect><g data-v-528fb24a="" mask="url(#mask__foreground)"><g data-v-528fb24a="" transform="translate(-0.028307535138310413 -0.566964977018511) rotate(7.993304509814095 34.29047678842278 31.898260331722273)"><g data-v-528fb24a="" transform="rotate(180 18 20.877629027623573)"><!----><path data-v-528fb24a="" d="M16.08396699175165,19.860384914386792 a0.5914782124647648, 0.8894380828226401 0 0,0 4.82957068505387, 0.25561208510056344" fill="#ffffee"></path></g><rect data-v-528fb24a="" x="10.67333150830368" y="10.283492048061952" width="3.0258701701123867" height="2.2083521940469937" rx="1" stroke="none" fill="#ffffee"></rect><rect data-v-528fb24a="" x="22.300798321583933" y="10.283492048061952" width="3.0258701701123867" height="2.2083521940469937" rx="1" stroke="none" fill="#ffffee"></rect></g></g><g data-v-528fb24a="" mask="url(#mask__background)"><g data-v-528fb24a="" transform="translate(-0.028307535138310413 -0.566964977018511) rotate(7.993304509814095 34.29047678842278 31.898260331722273)"><g data-v-528fb24a="" transform="rotate(180 18 20.877629027623573)"><!----><path data-v-528fb24a="" d="M16.08396699175165,19.860384914386792 a0.5914782124647648, 0.8894380828226401 0 0,0 4.82957068505387, 0.25561208510056344" fill="#ffffee"></path></g><rect data-v-528fb24a="" x="10.67333150830368" y="10.283492048061952" width="3.0258701701123867" height="2.2083521940469937" rx="1" stroke="none" fill="#ffffee"></rect><rect data-v-528fb24a="" x="22.300798321583933" y="10.283492048061952" width="3.0258701701123867" height="2.2083521940469937" rx="1" stroke="none" fill="#ffffee"></rect></g></g></svg>