<svg data-v-528fb24a="" viewBox="0 0 36 36" fill="none" xmlns="http://www.w3.org/2000/svg" width="256" height="256" id="avatar"><title data-v-528fb24a="">Simple Avatar</title><desc data-v-528fb24a="">CREATED BY XUAN TANG, MORE INFO AT TXSTC55.GITHUB.IO</desc><rect data-v-528fb24a="" width="36" height="36" fill="#9DD1F1"></rect><mask data-v-528fb24a="" id="mask__foreground" maskUnits="userSpaceOnUse" x="0" y="0" width="100" height="100"><rect data-v-528fb24a="" x="0" y="0" width="36" height="36" transform="translate(-3.8320047158955495 -1.9344676320441812) rotate(-19.933760986862048 11.759693164051342 8.82179157354457)scale(1.0859163046688798)" rx="29.13189164250396" fill="white"></rect><!----></mask><mask data-v-528fb24a="" id="mask__background" maskUnits="userSpaceOnUse" x="0" y="0" width="100" height="100"><rect data-v-528fb24a="" id="test" x="0" y="0" width="36" height="36" fill="white"></rect><rect data-v-528fb24a="" x="3" y="3" width="30" height="30" transform="translate(-3.8320047158955495 -1.9344676320441812) rotate(-19.933760986862048 11.759693164051342 8.82179157354457)scale(1.0859163046688798)" rx="29.13189164250396" fill="black"></rect><!----></mask><rect data-v-528fb24a="" x="0" y="0" width="36" height="36" fill="#C8E0F4" mask="url(#mask__foreground)"></rect><g data-v-528fb24a="" mask="url(#mask__foreground)"><g data-v-528fb24a="" transform="translate(2.2228279161456665 2.9882159143911817) rotate(-7.814723408060806 32.396677722717264 21.15817233399881)"><g data-v-528fb24a="" transform="rotate(180 18 26.17049885183609)"><path data-v-528fb24a="" d="M13.277465153475196 23.970215309239492c2.400567085193198 4.976197572751037 7.080020175834065 4.700549150116082 9.445069693049607 0" stroke="hsl(203, 50%, 100%)" fill="none" stroke-linecap="round"></path><!----></g><rect data-v-528fb24a="" x="10.52078864275719" y="9.536622126641593" width="4.06990327832811" height="2.3793752946720366" rx="1" stroke="none" fill="hsl(203, 50%, 100%)"></rect><rect data-v-528fb24a="" x="21.4093080789147" y="9.536622126641593" width="4.06990327832811" height="2.3793752946720366" rx="1" stroke="none" fill="hsl(203, 50%, 100%)"></rect></g></g><g data-v-528fb24a="" mask="url(#mask__background)"><g data-v-528fb24a="" transform="translate(2.2228279161456665 2.9882159143911817) rotate(-7.814723408060806 32.396677722717264 21.15817233399881)"><g data-v-528fb24a="" transform="rotate(180 18 26.17049885183609)"><path data-v-528fb24a="" d="M13.277465153475196 23.970215309239492c2.400567085193198 4.976197572751037 7.080020175834065 4.700549150116082 9.445069693049607 0" stroke="hsl(207, 44.46666666666667%, 100%)" fill="none" stroke-linecap="round"></path><!----></g><rect data-v-528fb24a="" x="10.52078864275719" y="9.536622126641593" width="4.06990327832811" height="2.3793752946720366" rx="1" stroke="none" fill="hsl(207, 44.46666666666667%, 100%)"></rect><rect data-v-528fb24a="" x="21.4093080789147" y="9.536622126641593" width="4.06990327832811" height="2.3793752946720366" rx="1" stroke="none" fill="hsl(207, 44.46666666666667%, 100%)"></rect></g></g></svg>