<svg data-v-528fb24a="" viewBox="0 0 36 36" fill="none" xmlns="http://www.w3.org/2000/svg" width="256" height="256" id="avatar"><title data-v-528fb24a="">Simple Avatar</title><desc data-v-528fb24a="">CREATED BY XUAN TANG, MORE INFO AT TXSTC55.GITHUB.IO</desc><rect data-v-528fb24a="" width="36" height="36" fill="#f0f0d8"></rect><mask data-v-528fb24a="" id="mask__foreground" maskUnits="userSpaceOnUse" x="0" y="0" width="100" height="100"><rect data-v-528fb24a="" x="0" y="0" width="36" height="36" transform="translate(3.522930567707501 -2.47360864424061) rotate(-7.449980772604716 17.326368231433264 5.5946805217636335)scale(1.1125396919379698)" rx="25.063072670525905" fill="white"></rect><!----></mask><mask data-v-528fb24a="" id="mask__background" maskUnits="userSpaceOnUse" x="0" y="0" width="100" height="100"><rect data-v-528fb24a="" id="test" x="0" y="0" width="36" height="36" fill="white"></rect><rect data-v-528fb24a="" x="3" y="3" width="30" height="30" transform="translate(3.522930567707501 -2.47360864424061) rotate(-7.449980772604716 17.326368231433264 5.5946805217636335)scale(1.1125396919379698)" rx="25.063072670525905" fill="black"></rect><!----></mask><rect data-v-528fb24a="" x="0" y="0" width="36" height="36" fill="#9DD1F1" mask="url(#mask__foreground)"></rect><g data-v-528fb24a="" mask="url(#mask__foreground)"><g data-v-528fb24a="" transform="translate(-2.8398260128607467 -0.6101720056222231) rotate(0.17593567657594456 27.194044820968067 24.426792438214328)"><g data-v-528fb24a="" transform=""><!----><path data-v-528fb24a="" d="M10.643507555139434,22.070343479962776 a0.6275361688577684, 0.7335174621228531 0 0,0 14.271202151380301, -0.8555657707814508" fill="hsl(60, 29.599999999999998%, 100%)"></path></g><rect data-v-528fb24a="" x="6.649719310427969" y="10.518793237376865" width="5.8915407324918245" height="1.914972686968618" rx="1" stroke="none" fill="hsl(60, 29.599999999999998%, 100%)"></rect><rect data-v-528fb24a="" x="23.458739957080205" y="10.518793237376865" width="5.8915407324918245" height="1.914972686968618" rx="1" stroke="none" fill="hsl(60, 29.599999999999998%, 100%)"></rect></g></g><g data-v-528fb24a="" mask="url(#mask__background)"><g data-v-528fb24a="" transform="translate(-2.8398260128607467 -0.6101720056222231) rotate(0.17593567657594456 27.194044820968067 24.426792438214328)"><g data-v-528fb24a="" transform=""><!----><path data-v-528fb24a="" d="M10.643507555139434,22.070343479962776 a0.6275361688577684, 0.7335174621228531 0 0,0 14.271202151380301, -0.8555657707814508" fill="hsl(203, 50%, 100%)"></path></g><rect data-v-528fb24a="" x="6.649719310427969" y="10.518793237376865" width="5.8915407324918245" height="1.914972686968618" rx="1" stroke="none" fill="hsl(203, 50%, 100%)"></rect><rect data-v-528fb24a="" x="23.458739957080205" y="10.518793237376865" width="5.8915407324918245" height="1.914972686968618" rx="1" stroke="none" fill="hsl(203, 50%, 100%)"></rect></g></g></svg>