<svg data-v-528fb24a="" viewBox="0 0 36 36" fill="none" xmlns="http://www.w3.org/2000/svg" width="256" height="256" id="avatar"><title data-v-528fb24a="">Simple Avatar</title><desc data-v-528fb24a="">CREATED BY XUAN TANG, MORE INFO AT TXSTC55.GITHUB.IO</desc><rect data-v-528fb24a="" width="36" height="36" fill="#ef476f"></rect><mask data-v-528fb24a="" id="mask__foreground" maskUnits="userSpaceOnUse" x="0" y="0" width="100" height="100"><rect data-v-528fb24a="" x="0" y="0" width="36" height="36" transform="translate(1.7919102958599016 1.785290017115737) rotate(-5.501044455417166 8.435718116595037 30.349519834113625)scale(1.0541386762055531)" rx="5.4365715070099085" fill="white"></rect><!----></mask><mask data-v-528fb24a="" id="mask__background" maskUnits="userSpaceOnUse" x="0" y="0" width="100" height="100"><rect data-v-528fb24a="" id="test" x="0" y="0" width="36" height="36" fill="white"></rect><rect data-v-528fb24a="" x="3" y="3" width="30" height="30" transform="translate(1.7919102958599016 1.785290017115737) rotate(-5.501044455417166 8.435718116595037 30.349519834113625)scale(1.0541386762055531)" rx="5.4365715070099085" fill="black"></rect><!----></mask><rect data-v-528fb24a="" x="0" y="0" width="36" height="36" fill="#cc2936" mask="url(#mask__foreground)"></rect><g data-v-528fb24a="" mask="url(#mask__foreground)"><g data-v-528fb24a="" transform="translate(0.4073003972930085 0.42690496830861413) rotate(3.8252084000478703 23.195203799509716 27.17399056890052)"><g data-v-528fb24a="" transform=""><!----><path data-v-528fb24a="" d="M9.666251134309814,22.352730557794548 a0.6885469257707685, 0.565568552999899 0 0,0 15.944880570986541, 0.9341059170142789" fill="#ffffee"></path></g><rect data-v-528fb24a="" x="9.6522698935817" y="15.058656222531948" width="3.465958809702527" height="2.3565870122692263" rx="1" stroke="none" fill="#ffffee"></rect><rect data-v-528fb24a="" x="22.881771296715772" y="15.058656222531948" width="3.465958809702527" height="2.3565870122692263" rx="1" stroke="none" fill="#ffffee"></rect></g></g><g data-v-528fb24a="" mask="url(#mask__background)"><g data-v-528fb24a="" transform="translate(0.4073003972930085 0.42690496830861413) rotate(3.8252084000478703 23.195203799509716 27.17399056890052)"><g data-v-528fb24a="" transform=""><!----><path data-v-528fb24a="" d="M9.666251134309814,22.352730557794548 a0.6885469257707685, 0.565568552999899 0 0,0 15.944880570986541, 0.9341059170142789" fill="#ffffee"></path></g><rect data-v-528fb24a="" x="9.6522698935817" y="15.058656222531948" width="3.465958809702527" height="2.3565870122692263" rx="1" stroke="none" fill="#ffffee"></rect><rect data-v-528fb24a="" x="22.881771296715772" y="15.058656222531948" width="3.465958809702527" height="2.3565870122692263" rx="1" stroke="none" fill="#ffffee"></rect></g></g></svg>