<svg data-v-528fb24a="" viewBox="0 0 36 36" fill="none" xmlns="http://www.w3.org/2000/svg" width="256" height="256" id="avatar"><title data-v-528fb24a="">Simple Avatar</title><desc data-v-528fb24a="">CREATED BY XUAN TANG, MORE INFO AT TXSTC55.GITHUB.IO</desc><rect data-v-528fb24a="" width="36" height="36" fill="#FFC1CF"></rect><mask data-v-528fb24a="" id="mask__foreground" maskUnits="userSpaceOnUse" x="0" y="0" width="100" height="100"><rect data-v-528fb24a="" x="0" y="0" width="36" height="36" transform="translate(0.603252520941318 0.17796383075851452) rotate(13.794364104368938 31.979371899983605 25.618832091765956)scale(1.081751066248797)" rx="15.301923824685488" fill="white"></rect><!----></mask><mask data-v-528fb24a="" id="mask__background" maskUnits="userSpaceOnUse" x="0" y="0" width="100" height="100"><rect data-v-528fb24a="" id="test" x="0" y="0" width="36" height="36" fill="white"></rect><rect data-v-528fb24a="" x="3" y="3" width="30" height="30" transform="translate(0.603252520941318 0.17796383075851452) rotate(13.794364104368938 31.979371899983605 25.618832091765956)scale(1.081751066248797)" rx="15.301923824685488" fill="black"></rect><!----></mask><rect data-v-528fb24a="" x="0" y="0" width="36" height="36" fill="#f1faee" mask="url(#mask__foreground)"></rect><g data-v-528fb24a="" mask="url(#mask__foreground)"><g data-v-528fb24a="" transform="translate(1.653329227347598 2.3983883252500586) rotate(-8.022544249147305 26.157672242798192 31.291383819979835)"><g data-v-528fb24a="" transform=""><!----><path data-v-528fb24a="" d="M15.256591833679478,19.779303732373073 a0.5029975028840863, 0.5137248469731546 0 0,0 6.899557072874464, 1.2462684146899972" fill="hsl(346, 66.66666666666667%, 100%)"></path></g><rect data-v-528fb24a="" x="12.054618901595008" y="12.556015898105692" width="2.455530553734608" height="2.273048828779709" rx="1" stroke="none" fill="hsl(346, 66.66666666666667%, 100%)"></rect><rect data-v-528fb24a="" x="21.489850544670382" y="12.556015898105692" width="2.455530553734608" height="2.273048828779709" rx="1" stroke="none" fill="hsl(346, 66.66666666666667%, 100%)"></rect></g></g><g data-v-528fb24a="" mask="url(#mask__background)"><g data-v-528fb24a="" transform="translate(1.653329227347598 2.3983883252500586) rotate(-8.022544249147305 26.157672242798192 31.291383819979835)"><g data-v-528fb24a="" transform=""><!----><path data-v-528fb24a="" d="M15.256591833679478,19.779303732373073 a0.5029975028840863, 0.5137248469731546 0 0,0 6.899557072874464, 1.2462684146899972" fill="hsl(105, 36.333333333333336%, 100%)"></path></g><rect data-v-528fb24a="" x="12.054618901595008" y="12.556015898105692" width="2.455530553734608" height="2.273048828779709" rx="1" stroke="none" fill="hsl(105, 36.333333333333336%, 100%)"></rect><rect data-v-528fb24a="" x="21.489850544670382" y="12.556015898105692" width="2.455530553734608" height="2.273048828779709" rx="1" stroke="none" fill="hsl(105, 36.333333333333336%, 100%)"></rect></g></g></svg>