<svg data-v-528fb24a="" viewBox="0 0 36 36" fill="none" xmlns="http://www.w3.org/2000/svg" width="256" height="256" id="avatar"><title data-v-528fb24a="">Simple Avatar</title><desc data-v-528fb24a="">CREATED BY XUAN TANG, MORE INFO AT TXSTC55.GITHUB.IO</desc><rect data-v-528fb24a="" width="36" height="36" fill="#BF3817"></rect><mask data-v-528fb24a="" id="mask__foreground" maskUnits="userSpaceOnUse" x="0" y="0" width="100" height="100"><rect data-v-528fb24a="" x="0" y="0" width="36" height="36" transform="translate(4.177395682865319 -3.5715207558416906) rotate(3.7132709033088034 30.645265461289966 12.895820979920263)scale(1.1114201080775357)" rx="5.383109543179039" fill="white"></rect><!----></mask><mask data-v-528fb24a="" id="mask__background" maskUnits="userSpaceOnUse" x="0" y="0" width="100" height="100"><rect data-v-528fb24a="" id="test" x="0" y="0" width="36" height="36" fill="white"></rect><rect data-v-528fb24a="" x="3" y="3" width="30" height="30" transform="translate(4.177395682865319 -3.5715207558416906) rotate(3.7132709033088034 30.645265461289966 12.895820979920263)scale(1.1114201080775357)" rx="5.383109543179039" fill="black"></rect><!----></mask><rect data-v-528fb24a="" x="0" y="0" width="36" height="36" fill="#08415c" mask="url(#mask__foreground)"></rect><g data-v-528fb24a="" mask="url(#mask__foreground)"><g data-v-528fb24a="" transform="translate(2.015357372365127 -4.152036520717148) rotate(6.427117478119406 25.118813687294516 34.42230399569647)"><g data-v-528fb24a="" transform="rotate(180 18 25.80842418933719)"><path data-v-528fb24a="" d="M9.152845920393009 22.97605743476735c3.664733509139684 1.6314503003185679 15.72922769404508 3.3008292866888533 17.694308159213982 0" stroke="#ffffee" fill="none" stroke-linecap="round"></path><!----></g><rect data-v-528fb24a="" x="10.542515746994797" y="14.846067758152085" width="4.5067746635276915" height="2.906099085641313" rx="1" stroke="none" fill="#ffffee"></rect><rect data-v-528fb24a="" x="20.950709589477512" y="14.846067758152085" width="4.5067746635276915" height="2.906099085641313" rx="1" stroke="none" fill="#ffffee"></rect></g></g><g data-v-528fb24a="" mask="url(#mask__background)"><g data-v-528fb24a="" transform="translate(2.015357372365127 -4.152036520717148) rotate(6.427117478119406 25.118813687294516 34.42230399569647)"><g data-v-528fb24a="" transform="rotate(180 18 25.80842418933719)"><path data-v-528fb24a="" d="M9.152845920393009 22.97605743476735c3.664733509139684 1.6314503003185679 15.72922769404508 3.3008292866888533 17.694308159213982 0" stroke="#ffffee" fill="none" stroke-linecap="round"></path><!----></g><rect data-v-528fb24a="" x="10.542515746994797" y="14.846067758152085" width="4.5067746635276915" height="2.906099085641313" rx="1" stroke="none" fill="#ffffee"></rect><rect data-v-528fb24a="" x="20.950709589477512" y="14.846067758152085" width="4.5067746635276915" height="2.906099085641313" rx="1" stroke="none" fill="#ffffee"></rect></g></g></svg>