<svg data-v-528fb24a="" viewBox="0 0 36 36" fill="none" xmlns="http://www.w3.org/2000/svg" width="256" height="256" id="avatar"><title data-v-528fb24a="">Simple Avatar</title><desc data-v-528fb24a="">CREATED BY XUAN TANG, MORE INFO AT TXSTC55.GITHUB.IO</desc><rect data-v-528fb24a="" width="36" height="36" fill="#233d4d"></rect><mask data-v-528fb24a="" id="mask__foreground" maskUnits="userSpaceOnUse" x="0" y="0" width="100" height="100"><!----><path data-v-528fb24a="" stroke-width="10.086026173601441" stroke-linecap="round" stroke-linejoin="round" stroke="white" fill="white" d="M 18,7.75128869404 32,32 4,32 z" transform="translate(-0.883295137164291 -2.899555702442383) rotate(-10.635090714088435 18 18)"></path></mask><mask data-v-528fb24a="" id="mask__background" maskUnits="userSpaceOnUse" x="0" y="0" width="100" height="100"><rect data-v-528fb24a="" id="test" x="0" y="0" width="36" height="36" fill="white"></rect><!----><path data-v-528fb24a="" stroke-width="10.086026173601441" stroke-linecap="round" stroke-linejoin="round" stroke="black" fill="black" d="M 18,7.75128869404 32,32 4,32 z" transform="translate(-0.883295137164291 -2.899555702442383) rotate(-10.635090714088435 18 18)"></path></mask><rect data-v-528fb24a="" x="0" y="0" width="36" height="36" fill="#fe7f2d" mask="url(#mask__foreground)"></rect><g data-v-528fb24a="" mask="url(#mask__foreground)"><g data-v-528fb24a="" transform="translate(1.5294905835154182 1.6693000449521511) rotate(-7.330209764763911 32.98262507614352 22.682885261962767)"><g data-v-528fb24a="" transform=""><path data-v-528fb24a="" d="M12.751003261597496 22.318450017527503c0.7938912618345784 2.4494467390761594 8.941496883051752 3.161141324019678 10.497993476805005 0" stroke="#ffffee" fill="none" stroke-linecap="round"></path><!----></g><rect data-v-528fb24a="" x="11.757386888569762" y="12.319042565412325" width="2.328172135214043" height="1.7810429907205245" rx="1" stroke="none" fill="#ffffee"></rect><rect data-v-528fb24a="" x="21.914440976216195" y="12.319042565412325" width="2.328172135214043" height="1.7810429907205245" rx="1" stroke="none" fill="#ffffee"></rect></g></g><g data-v-528fb24a="" mask="url(#mask__background)"><g data-v-528fb24a="" transform="translate(1.5294905835154182 1.6693000449521511) rotate(-7.330209764763911 32.98262507614352 22.682885261962767)"><g data-v-528fb24a="" transform=""><path data-v-528fb24a="" d="M12.751003261597496 22.318450017527503c0.7938912618345784 2.4494467390761594 8.941496883051752 3.161141324019678 10.497993476805005 0" stroke="#ffffee" fill="none" stroke-linecap="round"></path><!----></g><rect data-v-528fb24a="" x="11.757386888569762" y="12.319042565412325" width="2.328172135214043" height="1.7810429907205245" rx="1" stroke="none" fill="#ffffee"></rect><rect data-v-528fb24a="" x="21.914440976216195" y="12.319042565412325" width="2.328172135214043" height="1.7810429907205245" rx="1" stroke="none" fill="#ffffee"></rect></g></g></svg>