<svg data-v-528fb24a="" viewBox="0 0 36 36" fill="none" xmlns="http://www.w3.org/2000/svg" width="256" height="256" id="avatar"><title data-v-528fb24a="">Simple Avatar</title><desc data-v-528fb24a="">CREATED BY XUAN TANG, MORE INFO AT TXSTC55.GITHUB.IO</desc><rect data-v-528fb24a="" width="36" height="36" fill="#BF3817"></rect><mask data-v-528fb24a="" id="mask__foreground" maskUnits="userSpaceOnUse" x="0" y="0" width="100" height="100"><rect data-v-528fb24a="" x="0" y="0" width="36" height="36" transform="translate(1.0803539362867332 2.4146692674281756) rotate(-0.32072850427417876 18.719197957270147 27.149028794670098)scale(1.1118320892765259)" rx="30.240786072298285" fill="white"></rect><!----></mask><mask data-v-528fb24a="" id="mask__background" maskUnits="userSpaceOnUse" x="0" y="0" width="100" height="100"><rect data-v-528fb24a="" id="test" x="0" y="0" width="36" height="36" fill="white"></rect><rect data-v-528fb24a="" x="3" y="3" width="30" height="30" transform="translate(1.0803539362867332 2.4146692674281756) rotate(-0.32072850427417876 18.719197957270147 27.149028794670098)scale(1.1118320892765259)" rx="30.240786072298285" fill="black"></rect><!----></mask><rect data-v-528fb24a="" x="0" y="0" width="36" height="36" fill="#ef476f" mask="url(#mask__foreground)"></rect><g data-v-528fb24a="" mask="url(#mask__foreground)"><g data-v-528fb24a="" transform="translate(-2.4129005583581287 2.456400551123636) rotate(-8.432262159994469 19.964680963264353 28.555631021033662)"><g data-v-528fb24a="" transform="rotate(180 18 25.679382979777753)"><path data-v-528fb24a="" d="M11.023568329545936 24.391699911412253c0.5753661367309979 2.829872037804708 11.34814551792859 2.7646367385987114 13.952863340908127 0" stroke="#ffffee" fill="none" stroke-linecap="round"></path><!----></g><rect data-v-528fb24a="" x="7.91127572191291" y="12.647219243610309" width="5.844015382819645" height="2.5556487434637445" rx="1" stroke="none" fill="#ffffee"></rect><rect data-v-528fb24a="" x="22.244708895267443" y="12.647219243610309" width="5.844015382819645" height="2.5556487434637445" rx="1" stroke="none" fill="#ffffee"></rect></g></g><g data-v-528fb24a="" mask="url(#mask__background)"><g data-v-528fb24a="" transform="translate(-2.4129005583581287 2.456400551123636) rotate(-8.432262159994469 19.964680963264353 28.555631021033662)"><g data-v-528fb24a="" transform="rotate(180 18 25.679382979777753)"><path data-v-528fb24a="" d="M11.023568329545936 24.391699911412253c0.5753661367309979 2.829872037804708 11.34814551792859 2.7646367385987114 13.952863340908127 0" stroke="#ffffee" fill="none" stroke-linecap="round"></path><!----></g><rect data-v-528fb24a="" x="7.91127572191291" y="12.647219243610309" width="5.844015382819645" height="2.5556487434637445" rx="1" stroke="none" fill="#ffffee"></rect><rect data-v-528fb24a="" x="22.244708895267443" y="12.647219243610309" width="5.844015382819645" height="2.5556487434637445" rx="1" stroke="none" fill="#ffffee"></rect></g></g></svg>