<svg data-v-528fb24a="" viewBox="0 0 36 36" fill="none" xmlns="http://www.w3.org/2000/svg" width="256" height="256" id="avatar"><title data-v-528fb24a="">Simple Avatar</title><desc data-v-528fb24a="">CREATED BY XUAN TANG, MORE INFO AT TXSTC55.GITHUB.IO</desc><rect data-v-528fb24a="" width="36" height="36" fill="#2a9d8f"></rect><mask data-v-528fb24a="" id="mask__foreground" maskUnits="userSpaceOnUse" x="0" y="0" width="100" height="100"><rect data-v-528fb24a="" x="0" y="0" width="36" height="36" transform="translate(4.444816496417886 2.293896504045854) rotate(17.887776960541245 18.98322832630103 9.064399653242216)scale(1.1212398139437625)" rx="32.884125654133896" fill="white"></rect><!----></mask><mask data-v-528fb24a="" id="mask__background" maskUnits="userSpaceOnUse" x="0" y="0" width="100" height="100"><rect data-v-528fb24a="" id="test" x="0" y="0" width="36" height="36" fill="white"></rect><rect data-v-528fb24a="" x="3" y="3" width="30" height="30" transform="translate(4.444816496417886 2.293896504045854) rotate(17.887776960541245 18.98322832630103 9.064399653242216)scale(1.1212398139437625)" rx="32.884125654133896" fill="black"></rect><!----></mask><rect data-v-528fb24a="" x="0" y="0" width="36" height="36" fill="#19376D" mask="url(#mask__foreground)"></rect><g data-v-528fb24a="" mask="url(#mask__foreground)"><g data-v-528fb24a="" transform="translate(-0.7944720300621739 -3.944255771381524) rotate(8.144954259912701 35.41253795640674 18.077556869883058)"><g data-v-528fb24a="" transform=""><path data-v-528fb24a="" d="M10.743011504610315 23.952836921948986c0.5881682239084949 2.6961611456990373 13.412500861173918 3.78196498245413 14.513976990779367 0" stroke="#ffffee" fill="none" stroke-linecap="round"></path><!----></g><rect data-v-528fb24a="" x="7.453925562427841" y="13.570538646529766" width="5.7696010370651205" height="1.782988846154916" rx="1" stroke="none" fill="#ffffee"></rect><rect data-v-528fb24a="" x="22.776473400507037" y="13.570538646529766" width="5.7696010370651205" height="1.782988846154916" rx="1" stroke="none" fill="#ffffee"></rect></g></g><g data-v-528fb24a="" mask="url(#mask__background)"><g data-v-528fb24a="" transform="translate(-0.7944720300621739 -3.944255771381524) rotate(8.144954259912701 35.41253795640674 18.077556869883058)"><g data-v-528fb24a="" transform=""><path data-v-528fb24a="" d="M10.743011504610315 23.952836921948986c0.5881682239084949 2.6961611456990373 13.412500861173918 3.78196498245413 14.513976990779367 0" stroke="#ffffee" fill="none" stroke-linecap="round"></path><!----></g><rect data-v-528fb24a="" x="7.453925562427841" y="13.570538646529766" width="5.7696010370651205" height="1.782988846154916" rx="1" stroke="none" fill="#ffffee"></rect><rect data-v-528fb24a="" x="22.776473400507037" y="13.570538646529766" width="5.7696010370651205" height="1.782988846154916" rx="1" stroke="none" fill="#ffffee"></rect></g></g></svg>