<svg data-v-528fb24a="" viewBox="0 0 36 36" fill="none" xmlns="http://www.w3.org/2000/svg" width="256" height="256" id="avatar"><title data-v-528fb24a="">Simple Avatar</title><desc data-v-528fb24a="">CREATED BY XUAN TANG, MORE INFO AT TXSTC55.GITHUB.IO</desc><rect data-v-528fb24a="" width="36" height="36" fill="#e7ecef"></rect><mask data-v-528fb24a="" id="mask__foreground" maskUnits="userSpaceOnUse" x="0" y="0" width="100" height="100"><rect data-v-528fb24a="" x="0" y="0" width="36" height="36" transform="translate(2.16505689360398 -3.217320873394338) rotate(-10.731164783037501 11.834134745558044 9.264157599329158)scale(1.1279844930477327)" rx="8.724303364417558" fill="white"></rect><!----></mask><mask data-v-528fb24a="" id="mask__background" maskUnits="userSpaceOnUse" x="0" y="0" width="100" height="100"><rect data-v-528fb24a="" id="test" x="0" y="0" width="36" height="36" fill="white"></rect><rect data-v-528fb24a="" x="3" y="3" width="30" height="30" transform="translate(2.16505689360398 -3.217320873394338) rotate(-10.731164783037501 11.834134745558044 9.264157599329158)scale(1.1279844930477327)" rx="8.724303364417558" fill="black"></rect><!----></mask><rect data-v-528fb24a="" x="0" y="0" width="36" height="36" fill="#ebd1c4" mask="url(#mask__foreground)"></rect><g data-v-528fb24a="" mask="url(#mask__foreground)"><g data-v-528fb24a="" transform="translate(3.017985795278456 4.251170398670265) rotate(1.7564480744937363 35.07478923745667 35.06440598427254)"><g data-v-528fb24a="" transform="rotate(180 18 23.435048247701417)"><path data-v-528fb24a="" d="M9.60431167767151 20.437351533956456c3.9953934274899243 3.3393448193528275 15.902601686672252 1.514649026437686 16.79137664465698 0" stroke="hsl(202, 13.333333333333334%, 100%)" fill="none" stroke-linecap="round"></path><!----></g><rect data-v-528fb24a="" x="8.169284598971725" y="13.575727508641183" width="4.244976411484629" height="2.293072543606542" rx="1" stroke="none" fill="hsl(202, 13.333333333333334%, 100%)"></rect><rect data-v-528fb24a="" x="23.585738989543646" y="13.575727508641183" width="4.244976411484629" height="2.293072543606542" rx="1" stroke="none" fill="hsl(202, 13.333333333333334%, 100%)"></rect></g></g><g data-v-528fb24a="" mask="url(#mask__background)"><g data-v-528fb24a="" transform="translate(3.017985795278456 4.251170398670265) rotate(1.7564480744937363 35.07478923745667 35.06440598427254)"><g data-v-528fb24a="" transform="rotate(180 18 23.435048247701417)"><path data-v-528fb24a="" d="M9.60431167767151 20.437351533956456c3.9953934274899243 3.3393448193528275 15.902601686672252 1.514649026437686 16.79137664465698 0" stroke="hsl(20, 32.93333333333333%, 100%)" fill="none" stroke-linecap="round"></path><!----></g><rect data-v-528fb24a="" x="8.169284598971725" y="13.575727508641183" width="4.244976411484629" height="2.293072543606542" rx="1" stroke="none" fill="hsl(20, 32.93333333333333%, 100%)"></rect><rect data-v-528fb24a="" x="23.585738989543646" y="13.575727508641183" width="4.244976411484629" height="2.293072543606542" rx="1" stroke="none" fill="hsl(20, 32.93333333333333%, 100%)"></rect></g></g></svg>