<svg data-v-528fb24a="" viewBox="0 0 36 36" fill="none" xmlns="http://www.w3.org/2000/svg" width="256" height="256" id="avatar"><title data-v-528fb24a="">Simple Avatar</title><desc data-v-528fb24a="">CREATED BY XUAN TANG, MORE INFO AT TXSTC55.GITHUB.IO</desc><rect data-v-528fb24a="" width="36" height="36" fill="#9DD1F1"></rect><mask data-v-528fb24a="" id="mask__foreground" maskUnits="userSpaceOnUse" x="0" y="0" width="100" height="100"><rect data-v-528fb24a="" x="0" y="0" width="36" height="36" transform="translate(-2.9235420758609654 -3.2056509273938127) rotate(1.0302859241520395 32.05810668511691 27.040171530925637)scale(1.0775655330135532)" rx="15.986251784607624" fill="white"></rect><!----></mask><mask data-v-528fb24a="" id="mask__background" maskUnits="userSpaceOnUse" x="0" y="0" width="100" height="100"><rect data-v-528fb24a="" id="test" x="0" y="0" width="36" height="36" fill="white"></rect><rect data-v-528fb24a="" x="3" y="3" width="30" height="30" transform="translate(-2.9235420758609654 -3.2056509273938127) rotate(1.0302859241520395 32.05810668511691 27.040171530925637)scale(1.0775655330135532)" rx="15.986251784607624" fill="black"></rect><!----></mask><rect data-v-528fb24a="" x="0" y="0" width="36" height="36" fill="#FFF2CC" mask="url(#mask__foreground)"></rect><g data-v-528fb24a="" mask="url(#mask__foreground)"><g data-v-528fb24a="" transform="translate(3.59459950794429 -0.8160928891253993) rotate(-9.093828829673711 35.71644460328466 22.956541395355494)"><g data-v-528fb24a="" transform=""><!----><path data-v-528fb24a="" d="M13.615266748413056,18.94710659113367 a0.7551806792346437, 0.6822818757036251 0 0,0 10.079668103304758, -1.476570245860806" fill="hsl(203, 50%, 100%)"></path></g><rect data-v-528fb24a="" x="9.990041290655352" y="10.99004174852259" width="4.452821874588989" height="1.2887015461994074" rx="1" stroke="none" fill="hsl(203, 50%, 100%)"></rect><rect data-v-528fb24a="" x="21.55713683475566" y="10.99004174852259" width="4.452821874588989" height="1.2887015461994074" rx="1" stroke="none" fill="hsl(203, 50%, 100%)"></rect></g></g><g data-v-528fb24a="" mask="url(#mask__background)"><g data-v-528fb24a="" transform="translate(3.59459950794429 -0.8160928891253993) rotate(-9.093828829673711 35.71644460328466 22.956541395355494)"><g data-v-528fb24a="" transform=""><!----><path data-v-528fb24a="" d="M13.615266748413056,18.94710659113367 a0.7551806792346437, 0.6822818757036251 0 0,0 10.079668103304758, -1.476570245860806" fill="hsl(45, 66.66666666666667%, 100%)"></path></g><rect data-v-528fb24a="" x="9.990041290655352" y="10.99004174852259" width="4.452821874588989" height="1.2887015461994074" rx="1" stroke="none" fill="hsl(45, 66.66666666666667%, 100%)"></rect><rect data-v-528fb24a="" x="21.55713683475566" y="10.99004174852259" width="4.452821874588989" height="1.2887015461994074" rx="1" stroke="none" fill="hsl(45, 66.66666666666667%, 100%)"></rect></g></g></svg>