<svg data-v-528fb24a="" viewBox="0 0 36 36" fill="none" xmlns="http://www.w3.org/2000/svg" width="256" height="256" id="avatar"><title data-v-528fb24a="">Simple Avatar</title><desc data-v-528fb24a="">CREATED BY XUAN TANG, MORE INFO AT TXSTC55.GITHUB.IO</desc><rect data-v-528fb24a="" width="36" height="36" fill="#FFC1CF"></rect><mask data-v-528fb24a="" id="mask__foreground" maskUnits="userSpaceOnUse" x="0" y="0" width="100" height="100"><!----><path data-v-528fb24a="" stroke-width="9.742313510628366" stroke-linecap="round" stroke-linejoin="round" stroke="white" fill="white" d="M 18,7.75128869404 32,32 4,32 z" transform="translate(-1.3765205613743925 -3.129446650206697) rotate(1.1301675100504909 18 18)"></path></mask><mask data-v-528fb24a="" id="mask__background" maskUnits="userSpaceOnUse" x="0" y="0" width="100" height="100"><rect data-v-528fb24a="" id="test" x="0" y="0" width="36" height="36" fill="white"></rect><!----><path data-v-528fb24a="" stroke-width="9.742313510628366" stroke-linecap="round" stroke-linejoin="round" stroke="black" fill="black" d="M 18,7.75128869404 32,32 4,32 z" transform="translate(-1.3765205613743925 -3.129446650206697) rotate(1.1301675100504909 18 18)"></path></mask><rect data-v-528fb24a="" x="0" y="0" width="36" height="36" fill="#C8E0F4" mask="url(#mask__foreground)"></rect><g data-v-528fb24a="" mask="url(#mask__foreground)"><g data-v-528fb24a="" transform="translate(-2.7936118136763888 -4.469250807310942) rotate(-5.405320980267652 28.68590704142364 34.39530143595381)"><g data-v-528fb24a="" transform=""><path data-v-528fb24a="" d="M9.162117043685166 23.976096943337872c0.6504216469252917 3.578032781451536 14.799624646811715 5.071359609376042 17.675765912629668 0" stroke="hsl(346, 66.66666666666667%, 100%)" fill="none" stroke-linecap="round"></path><!----></g><rect data-v-528fb24a="" x="6.889056893683897" y="9.00678254332222" width="5.478663169421944" height="2.1888935374761207" rx="1" stroke="none" fill="hsl(346, 66.66666666666667%, 100%)"></rect><rect data-v-528fb24a="" x="23.632279936894157" y="9.00678254332222" width="5.478663169421944" height="2.1888935374761207" rx="1" stroke="none" fill="hsl(346, 66.66666666666667%, 100%)"></rect></g></g><g data-v-528fb24a="" mask="url(#mask__background)"><g data-v-528fb24a="" transform="translate(-2.7936118136763888 -4.469250807310942) rotate(-5.405320980267652 28.68590704142364 34.39530143595381)"><g data-v-528fb24a="" transform=""><path data-v-528fb24a="" d="M9.162117043685166 23.976096943337872c0.6504216469252917 3.578032781451536 14.799624646811715 5.071359609376042 17.675765912629668 0" stroke="hsl(207, 44.46666666666667%, 100%)" fill="none" stroke-linecap="round"></path><!----></g><rect data-v-528fb24a="" x="6.889056893683897" y="9.00678254332222" width="5.478663169421944" height="2.1888935374761207" rx="1" stroke="none" fill="hsl(207, 44.46666666666667%, 100%)"></rect><rect data-v-528fb24a="" x="23.632279936894157" y="9.00678254332222" width="5.478663169421944" height="2.1888935374761207" rx="1" stroke="none" fill="hsl(207, 44.46666666666667%, 100%)"></rect></g></g></svg>