<svg data-v-528fb24a="" viewBox="0 0 36 36" fill="none" xmlns="http://www.w3.org/2000/svg" width="256" height="256" id="avatar"><title data-v-528fb24a="">Simple Avatar</title><desc data-v-528fb24a="">CREATED BY XUAN TANG, MORE INFO AT TXSTC55.GITHUB.IO</desc><rect data-v-528fb24a="" width="36" height="36" fill="#245953"></rect><mask data-v-528fb24a="" id="mask__foreground" maskUnits="userSpaceOnUse" x="0" y="0" width="100" height="100"><rect data-v-528fb24a="" x="0" y="0" width="36" height="36" transform="translate(1.548932809080556 -0.4824733756936661) rotate(3.5276425364109443 28.20703344539994 12.272140658128414)scale(1.1830978264612544)" rx="31.27426682647331" fill="white"></rect><!----></mask><mask data-v-528fb24a="" id="mask__background" maskUnits="userSpaceOnUse" x="0" y="0" width="100" height="100"><rect data-v-528fb24a="" id="test" x="0" y="0" width="36" height="36" fill="white"></rect><rect data-v-528fb24a="" x="3" y="3" width="30" height="30" transform="translate(1.548932809080556 -0.4824733756936661) rotate(3.5276425364109443 28.20703344539994 12.272140658128414)scale(1.1830978264612544)" rx="31.27426682647331" fill="black"></rect><!----></mask><rect data-v-528fb24a="" x="0" y="0" width="36" height="36" fill="#2a9d8f" mask="url(#mask__foreground)"></rect><g data-v-528fb24a="" mask="url(#mask__foreground)"><g data-v-528fb24a="" transform="translate(-3.3497218576729892 -0.31130072337426995) rotate(-7.907854830873928 25.935332688482 24.88594732763288)"><g data-v-528fb24a="" transform=""><!----><path data-v-528fb24a="" d="M12.110899501429056,21.149973053465004 a0.5370227935008147, 0.5944261378847443 0 0,0 10.693592419339714, -0.9900626319033419" fill="#ffffee"></path></g><rect data-v-528fb24a="" x="6.740295997606865" y="9.361017486104735" width="4.490775124504716" height="2.4491219339111554" rx="1" stroke="none" fill="#ffffee"></rect><rect data-v-528fb24a="" x="24.76892887788842" y="9.361017486104735" width="4.490775124504716" height="2.4491219339111554" rx="1" stroke="none" fill="#ffffee"></rect></g></g><g data-v-528fb24a="" mask="url(#mask__background)"><g data-v-528fb24a="" transform="translate(-3.3497218576729892 -0.31130072337426995) rotate(-7.907854830873928 25.935332688482 24.88594732763288)"><g data-v-528fb24a="" transform=""><!----><path data-v-528fb24a="" d="M12.110899501429056,21.149973053465004 a0.5370227935008147, 0.5944261378847443 0 0,0 10.693592419339714, -0.9900626319033419" fill="#ffffee"></path></g><rect data-v-528fb24a="" x="6.740295997606865" y="9.361017486104735" width="4.490775124504716" height="2.4491219339111554" rx="1" stroke="none" fill="#ffffee"></rect><rect data-v-528fb24a="" x="24.76892887788842" y="9.361017486104735" width="4.490775124504716" height="2.4491219339111554" rx="1" stroke="none" fill="#ffffee"></rect></g></g></svg>