<svg data-v-528fb24a="" viewBox="0 0 36 36" fill="none" xmlns="http://www.w3.org/2000/svg" width="256" height="256" id="avatar"><title data-v-528fb24a="">Simple Avatar</title><desc data-v-528fb24a="">CREATED BY XUAN TANG, MORE INFO AT TXSTC55.GITHUB.IO</desc><rect data-v-528fb24a="" width="36" height="36" fill="#2a9d8f"></rect><mask data-v-528fb24a="" id="mask__foreground" maskUnits="userSpaceOnUse" x="0" y="0" width="100" height="100"><rect data-v-528fb24a="" x="0" y="0" width="36" height="36" transform="translate(3.0435536578144973 -4.599047502469073) rotate(13.999863233227344 9.674979358515184 0.1363275258028427)scale(1.0102498837900875)" rx="17.856759596390837" fill="white"></rect><!----></mask><mask data-v-528fb24a="" id="mask__background" maskUnits="userSpaceOnUse" x="0" y="0" width="100" height="100"><rect data-v-528fb24a="" id="test" x="0" y="0" width="36" height="36" fill="white"></rect><rect data-v-528fb24a="" x="3" y="3" width="30" height="30" transform="translate(3.0435536578144973 -4.599047502469073) rotate(13.999863233227344 9.674979358515184 0.1363275258028427)scale(1.0102498837900875)" rx="17.856759596390837" fill="black"></rect><!----></mask><rect data-v-528fb24a="" x="0" y="0" width="36" height="36" fill="#748CAB" mask="url(#mask__foreground)"></rect><g data-v-528fb24a="" mask="url(#mask__foreground)"><g data-v-528fb24a="" transform="translate(-0.8177962279105273 -1.0997286423757258) rotate(-6.024059707526126 29.763878980670608 26.31555366832759)"><g data-v-528fb24a="" transform=""><!----><path data-v-528fb24a="" d="M14.986369982732482,21.46179545331596 a0.5100054198191646, 0.6574064570925711 0 0,0 7.502946230335111, 0.21811138725821366" fill="#ffffee"></path></g><rect data-v-528fb24a="" x="8.998884972677995" y="15.237643340642668" width="3.7647612547035054" height="2.026622225201399" rx="1" stroke="none" fill="#ffffee"></rect><rect data-v-528fb24a="" x="23.2363537726185" y="15.237643340642668" width="3.7647612547035054" height="2.026622225201399" rx="1" stroke="none" fill="#ffffee"></rect></g></g><g data-v-528fb24a="" mask="url(#mask__background)"><g data-v-528fb24a="" transform="translate(-0.8177962279105273 -1.0997286423757258) rotate(-6.024059707526126 29.763878980670608 26.31555366832759)"><g data-v-528fb24a="" transform=""><!----><path data-v-528fb24a="" d="M14.986369982732482,21.46179545331596 a0.5100054198191646, 0.6574064570925711 0 0,0 7.502946230335111, 0.21811138725821366" fill="#ffffee"></path></g><rect data-v-528fb24a="" x="8.998884972677995" y="15.237643340642668" width="3.7647612547035054" height="2.026622225201399" rx="1" stroke="none" fill="#ffffee"></rect><rect data-v-528fb24a="" x="23.2363537726185" y="15.237643340642668" width="3.7647612547035054" height="2.026622225201399" rx="1" stroke="none" fill="#ffffee"></rect></g></g></svg>