<svg data-v-528fb24a="" viewBox="0 0 36 36" fill="none" xmlns="http://www.w3.org/2000/svg" width="256" height="256" id="avatar"><title data-v-528fb24a="">Simple Avatar</title><desc data-v-528fb24a="">CREATED BY XUAN TANG, MORE INFO AT TXSTC55.GITHUB.IO</desc><rect data-v-528fb24a="" width="36" height="36" fill="#08415c"></rect><mask data-v-528fb24a="" id="mask__foreground" maskUnits="userSpaceOnUse" x="0" y="0" width="100" height="100"><rect data-v-528fb24a="" x="0" y="0" width="36" height="36" transform="translate(-2.9948006677080286 3.1754357178601182) rotate(8.00894411967553 30.332576937092412 32.534137548817355)scale(1.1631387442557863)" rx="7.986252433160502" fill="white"></rect><!----></mask><mask data-v-528fb24a="" id="mask__background" maskUnits="userSpaceOnUse" x="0" y="0" width="100" height="100"><rect data-v-528fb24a="" id="test" x="0" y="0" width="36" height="36" fill="white"></rect><rect data-v-528fb24a="" x="3" y="3" width="30" height="30" transform="translate(-2.9948006677080286 3.1754357178601182) rotate(8.00894411967553 30.332576937092412 32.534137548817355)scale(1.1631387442557863)" rx="7.986252433160502" fill="black"></rect><!----></mask><rect data-v-528fb24a="" x="0" y="0" width="36" height="36" fill="#e63946" mask="url(#mask__foreground)"></rect><g data-v-528fb24a="" mask="url(#mask__foreground)"><g data-v-528fb24a="" transform="translate(4.371920216821829 3.540857719936028) rotate(2.5643195734420807 21.995519958238386 23.45477164001827)"><g data-v-528fb24a="" transform=""><path data-v-528fb24a="" d="M11.949938478507187 21.374487238110227c1.6063919832981215 3.455348574967326 9.654640590910178 3.864061781329295 12.100123042985626 0" stroke="#ffffee" fill="none" stroke-linecap="round"></path><!----></g><rect data-v-528fb24a="" x="7.171736910382223" y="13.648614383293197" width="5.490682707666468" height="2.0468205712176224" rx="1" stroke="none" fill="#ffffee"></rect><rect data-v-528fb24a="" x="23.33758038195131" y="13.648614383293197" width="5.490682707666468" height="2.0468205712176224" rx="1" stroke="none" fill="#ffffee"></rect></g></g><g data-v-528fb24a="" mask="url(#mask__background)"><g data-v-528fb24a="" transform="translate(4.371920216821829 3.540857719936028) rotate(2.5643195734420807 21.995519958238386 23.45477164001827)"><g data-v-528fb24a="" transform=""><path data-v-528fb24a="" d="M11.949938478507187 21.374487238110227c1.6063919832981215 3.455348574967326 9.654640590910178 3.864061781329295 12.100123042985626 0" stroke="#ffffee" fill="none" stroke-linecap="round"></path><!----></g><rect data-v-528fb24a="" x="7.171736910382223" y="13.648614383293197" width="5.490682707666468" height="2.0468205712176224" rx="1" stroke="none" fill="#ffffee"></rect><rect data-v-528fb24a="" x="23.33758038195131" y="13.648614383293197" width="5.490682707666468" height="2.0468205712176224" rx="1" stroke="none" fill="#ffffee"></rect></g></g></svg>