<svg data-v-528fb24a="" viewBox="0 0 36 36" fill="none" xmlns="http://www.w3.org/2000/svg" width="256" height="256" id="avatar"><title data-v-528fb24a="">Simple Avatar</title><desc data-v-528fb24a="">CREATED BY XUAN TANG, MORE INFO AT TXSTC55.GITHUB.IO</desc><rect data-v-528fb24a="" width="36" height="36" fill="#30c5d2"></rect><mask data-v-528fb24a="" id="mask__foreground" maskUnits="userSpaceOnUse" x="0" y="0" width="100" height="100"><rect data-v-528fb24a="" x="0" y="0" width="36" height="36" transform="translate(3.3227389741727897 -4.3591644948440305) rotate(6.13241378851713 25.973757057010147 19.253259335796965)scale(1.1710728148593472)" rx="14.95193108252574" fill="white"></rect><!----></mask><mask data-v-528fb24a="" id="mask__background" maskUnits="userSpaceOnUse" x="0" y="0" width="100" height="100"><rect data-v-528fb24a="" id="test" x="0" y="0" width="36" height="36" fill="white"></rect><rect data-v-528fb24a="" x="3" y="3" width="30" height="30" transform="translate(3.3227389741727897 -4.3591644948440305) rotate(6.13241378851713 25.973757057010147 19.253259335796965)scale(1.1710728148593472)" rx="14.95193108252574" fill="black"></rect><!----></mask><rect data-v-528fb24a="" x="0" y="0" width="36" height="36" fill="#FF8400" mask="url(#mask__foreground)"></rect><g data-v-528fb24a="" mask="url(#mask__foreground)"><g data-v-528fb24a="" transform="translate(4.632538386729742 4.941249427197432) rotate(-5.708066839470209 19.07841492258279 20.071463893337132)"><g data-v-528fb24a="" transform="rotate(180 18 27.724538338733247)"><path data-v-528fb24a="" d="M14.190584913565406 25.699556106844604c2.0499644637772887 3.903446138161965 6.137436882465316 2.166947351856521 7.618830172869187 0" stroke="#ffffee" fill="none" stroke-linecap="round"></path><!----></g><rect data-v-528fb24a="" x="7.52385384188556" y="13.96969918439026" width="3.563986365168476" height="2.95685191259971" rx="1" stroke="none" fill="#ffffee"></rect><rect data-v-528fb24a="" x="24.912159792945964" y="13.96969918439026" width="3.563986365168476" height="2.95685191259971" rx="1" stroke="none" fill="#ffffee"></rect></g></g><g data-v-528fb24a="" mask="url(#mask__background)"><g data-v-528fb24a="" transform="translate(4.632538386729742 4.941249427197432) rotate(-5.708066839470209 19.07841492258279 20.071463893337132)"><g data-v-528fb24a="" transform="rotate(180 18 27.724538338733247)"><path data-v-528fb24a="" d="M14.190584913565406 25.699556106844604c2.0499644637772887 3.903446138161965 6.137436882465316 2.166947351856521 7.618830172869187 0" stroke="#ffffee" fill="none" stroke-linecap="round"></path><!----></g><rect data-v-528fb24a="" x="7.52385384188556" y="13.96969918439026" width="3.563986365168476" height="2.95685191259971" rx="1" stroke="none" fill="#ffffee"></rect><rect data-v-528fb24a="" x="24.912159792945964" y="13.96969918439026" width="3.563986365168476" height="2.95685191259971" rx="1" stroke="none" fill="#ffffee"></rect></g></g></svg>