<svg data-v-528fb24a="" viewBox="0 0 36 36" fill="none" xmlns="http://www.w3.org/2000/svg" width="256" height="256" id="avatar"><title data-v-528fb24a="">Simple Avatar</title><desc data-v-528fb24a="">CREATED BY XUAN TANG, MORE INFO AT TXSTC55.GITHUB.IO</desc><rect data-v-528fb24a="" width="36" height="36" fill="#FFD93D"></rect><mask data-v-528fb24a="" id="mask__foreground" maskUnits="userSpaceOnUse" x="0" y="0" width="100" height="100"><rect data-v-528fb24a="" x="0" y="0" width="36" height="36" transform="translate(-3.467598699593928 -1.241261247756229) rotate(-4.468473710220984 17.721228316804563 24.361013984582918)scale(1.0594827800161128)" rx="23.47596923763699" fill="white"></rect><!----></mask><mask data-v-528fb24a="" id="mask__background" maskUnits="userSpaceOnUse" x="0" y="0" width="100" height="100"><rect data-v-528fb24a="" id="test" x="0" y="0" width="36" height="36" fill="white"></rect><rect data-v-528fb24a="" x="3" y="3" width="30" height="30" transform="translate(-3.467598699593928 -1.241261247756229) rotate(-4.468473710220984 17.721228316804563 24.361013984582918)scale(1.0594827800161128)" rx="23.47596923763699" fill="black"></rect><!----></mask><rect data-v-528fb24a="" x="0" y="0" width="36" height="36" fill="#F6F1E9" mask="url(#mask__foreground)"></rect><g data-v-528fb24a="" mask="url(#mask__foreground)"><g data-v-528fb24a="" transform="translate(-2.9482566021181555 -3.6192075758190234) rotate(-7.918517463987409 24.053186639466748 25.782809542561452)"><g data-v-528fb24a="" transform=""><!----><path data-v-528fb24a="" d="M10.157719852512546,21.13812891834744 a0.5597923200644954, 0.8031279926947867 0 0,0 14.71343165566467, 1.122193570134277" fill="hsl(48, 66.66666666666667%, 100%)"></path></g><rect data-v-528fb24a="" x="12.362119110392392" y="13.922616408207363" width="2.9670752296168805" height="1.2868550527865787" rx="1" stroke="none" fill="hsl(48, 66.66666666666667%, 100%)"></rect><rect data-v-528fb24a="" x="20.67080565999073" y="13.922616408207363" width="2.9670752296168805" height="1.2868550527865787" rx="1" stroke="none" fill="hsl(48, 66.66666666666667%, 100%)"></rect></g></g><g data-v-528fb24a="" mask="url(#mask__background)"><g data-v-528fb24a="" transform="translate(-2.9482566021181555 -3.6192075758190234) rotate(-7.918517463987409 24.053186639466748 25.782809542561452)"><g data-v-528fb24a="" transform=""><!----><path data-v-528fb24a="" d="M10.157719852512546,21.13812891834744 a0.5597923200644954, 0.8031279926947867 0 0,0 14.71343165566467, 1.122193570134277" fill="hsl(37, 27.933333333333334%, 100%)"></path></g><rect data-v-528fb24a="" x="12.362119110392392" y="13.922616408207363" width="2.9670752296168805" height="1.2868550527865787" rx="1" stroke="none" fill="hsl(37, 27.933333333333334%, 100%)"></rect><rect data-v-528fb24a="" x="20.67080565999073" y="13.922616408207363" width="2.9670752296168805" height="1.2868550527865787" rx="1" stroke="none" fill="hsl(37, 27.933333333333334%, 100%)"></rect></g></g></svg>