<svg data-v-528fb24a="" viewBox="0 0 36 36" fill="none" xmlns="http://www.w3.org/2000/svg" width="256" height="256" id="avatar"><title data-v-528fb24a="">Simple Avatar</title><desc data-v-528fb24a="">CREATED BY XUAN TANG, MORE INFO AT TXSTC55.GITHUB.IO</desc><rect data-v-528fb24a="" width="36" height="36" fill="#264653"></rect><mask data-v-528fb24a="" id="mask__foreground" maskUnits="userSpaceOnUse" x="0" y="0" width="100" height="100"><rect data-v-528fb24a="" x="0" y="0" width="36" height="36" transform="translate(4.88059138673365 1.7751368715917586) rotate(5.215172485939625 33.38351103131212 17.369617438879345)scale(1.1691918922996483)" rx="9.993322564675125" fill="white"></rect><!----></mask><mask data-v-528fb24a="" id="mask__background" maskUnits="userSpaceOnUse" x="0" y="0" width="100" height="100"><rect data-v-528fb24a="" id="test" x="0" y="0" width="36" height="36" fill="white"></rect><rect data-v-528fb24a="" x="3" y="3" width="30" height="30" transform="translate(4.88059138673365 1.7751368715917586) rotate(5.215172485939625 33.38351103131212 17.369617438879345)scale(1.1691918922996483)" rx="9.993322564675125" fill="black"></rect><!----></mask><rect data-v-528fb24a="" x="0" y="0" width="36" height="36" fill="#748CAB" mask="url(#mask__foreground)"></rect><g data-v-528fb24a="" mask="url(#mask__foreground)"><g data-v-528fb24a="" transform="translate(4.951382841018873 -3.3254277812414856) rotate(0.13061126419623648 19.709021401678584 18.569275410755846)"><g data-v-528fb24a="" transform=""><!----><path data-v-528fb24a="" d="M16.53453275255732,22.545436424097765 a0.7121753120538817, 0.8534703262966211 0 0,0 4.781761538991622, 1.2887198120221184" fill="#ffffee"></path></g><rect data-v-528fb24a="" x="8.929713416272676" y="10.338066462960953" width="3.50727467466891" height="1.6020948815856502" rx="1" stroke="none" fill="#ffffee"></rect><rect data-v-528fb24a="" x="23.563011909058414" y="10.338066462960953" width="3.50727467466891" height="1.6020948815856502" rx="1" stroke="none" fill="#ffffee"></rect></g></g><g data-v-528fb24a="" mask="url(#mask__background)"><g data-v-528fb24a="" transform="translate(4.951382841018873 -3.3254277812414856) rotate(0.13061126419623648 19.709021401678584 18.569275410755846)"><g data-v-528fb24a="" transform=""><!----><path data-v-528fb24a="" d="M16.53453275255732,22.545436424097765 a0.7121753120538817, 0.8534703262966211 0 0,0 4.781761538991622, 1.2887198120221184" fill="#ffffee"></path></g><rect data-v-528fb24a="" x="8.929713416272676" y="10.338066462960953" width="3.50727467466891" height="1.6020948815856502" rx="1" stroke="none" fill="#ffffee"></rect><rect data-v-528fb24a="" x="23.563011909058414" y="10.338066462960953" width="3.50727467466891" height="1.6020948815856502" rx="1" stroke="none" fill="#ffffee"></rect></g></g></svg>