<svg data-v-528fb24a="" viewBox="0 0 36 36" fill="none" xmlns="http://www.w3.org/2000/svg" width="256" height="256" id="avatar"><title data-v-528fb24a="">Simple Avatar</title><desc data-v-528fb24a="">CREATED BY XUAN TANG, MORE INFO AT TXSTC55.GITHUB.IO</desc><rect data-v-528fb24a="" width="36" height="36" fill="#FFD966"></rect><mask data-v-528fb24a="" id="mask__foreground" maskUnits="userSpaceOnUse" x="0" y="0" width="100" height="100"><!----><path data-v-528fb24a="" stroke-width="9.845218011160084" stroke-linecap="round" stroke-linejoin="round" stroke="white" fill="white" d="M 18,7.75128869404 32,32 4,32 z" transform="translate(-0.17727333591636363 -2.457484926187341) rotate(12.965491942825544 18 18)"></path></mask><mask data-v-528fb24a="" id="mask__background" maskUnits="userSpaceOnUse" x="0" y="0" width="100" height="100"><rect data-v-528fb24a="" id="test" x="0" y="0" width="36" height="36" fill="white"></rect><!----><path data-v-528fb24a="" stroke-width="9.845218011160084" stroke-linecap="round" stroke-linejoin="round" stroke="black" fill="black" d="M 18,7.75128869404 32,32 4,32 z" transform="translate(-0.17727333591636363 -2.457484926187341) rotate(12.965491942825544 18 18)"></path></mask><rect data-v-528fb24a="" x="0" y="0" width="36" height="36" fill="#C8E0F4" mask="url(#mask__foreground)"></rect><g data-v-528fb24a="" mask="url(#mask__foreground)"><g data-v-528fb24a="" transform="translate(1.4518522721088605 -0.6372195583209139) rotate(4.823170818627407 24.41827197764458 28.37235429971165)"><g data-v-528fb24a="" transform=""><path data-v-528fb24a="" d="M15.501690829429418 24.723616442275006c1.6863257516921983 2.83861240385669 3.3052907418523017 2.433828231593325 4.996618341141165 0" stroke="hsl(45, 66.66666666666667%, 100%)" fill="none" stroke-linecap="round"></path><!----></g><rect data-v-528fb24a="" x="8.414487144926525" y="11.130027550803948" width="5.598452805336312" height="0.7675567033152304" rx="1" stroke="none" fill="hsl(45, 66.66666666666667%, 100%)"></rect><rect data-v-528fb24a="" x="21.98706004973716" y="11.130027550803948" width="5.598452805336312" height="0.7675567033152304" rx="1" stroke="none" fill="hsl(45, 66.66666666666667%, 100%)"></rect></g></g><g data-v-528fb24a="" mask="url(#mask__background)"><g data-v-528fb24a="" transform="translate(1.4518522721088605 -0.6372195583209139) rotate(4.823170818627407 24.41827197764458 28.37235429971165)"><g data-v-528fb24a="" transform=""><path data-v-528fb24a="" d="M15.501690829429418 24.723616442275006c1.6863257516921983 2.83861240385669 3.3052907418523017 2.433828231593325 4.996618341141165 0" stroke="hsl(207, 44.46666666666667%, 100%)" fill="none" stroke-linecap="round"></path><!----></g><rect data-v-528fb24a="" x="8.414487144926525" y="11.130027550803948" width="5.598452805336312" height="0.7675567033152304" rx="1" stroke="none" fill="hsl(207, 44.46666666666667%, 100%)"></rect><rect data-v-528fb24a="" x="21.98706004973716" y="11.130027550803948" width="5.598452805336312" height="0.7675567033152304" rx="1" stroke="none" fill="hsl(207, 44.46666666666667%, 100%)"></rect></g></g></svg>