<svg data-v-528fb24a="" viewBox="0 0 36 36" fill="none" xmlns="http://www.w3.org/2000/svg" width="256" height="256" id="avatar"><title data-v-528fb24a="">Simple Avatar</title><desc data-v-528fb24a="">CREATED BY XUAN TANG, MORE INFO AT TXSTC55.GITHUB.IO</desc><rect data-v-528fb24a="" width="36" height="36" fill="#FFD93D"></rect><mask data-v-528fb24a="" id="mask__foreground" maskUnits="userSpaceOnUse" x="0" y="0" width="100" height="100"><!----><path data-v-528fb24a="" stroke-width="9.422949503698076" stroke-linecap="round" stroke-linejoin="round" stroke="white" fill="white" d="M 18,7.75128869404 32,32 4,32 z" transform="translate(-2.7513254699769374 -1.070557022809493) rotate(-5.641427251705306 18 18)"></path></mask><mask data-v-528fb24a="" id="mask__background" maskUnits="userSpaceOnUse" x="0" y="0" width="100" height="100"><rect data-v-528fb24a="" id="test" x="0" y="0" width="36" height="36" fill="white"></rect><!----><path data-v-528fb24a="" stroke-width="9.422949503698076" stroke-linecap="round" stroke-linejoin="round" stroke="black" fill="black" d="M 18,7.75128869404 32,32 4,32 z" transform="translate(-2.7513254699769374 -1.070557022809493) rotate(-5.641427251705306 18 18)"></path></mask><rect data-v-528fb24a="" x="0" y="0" width="36" height="36" fill="#FFC1CF" mask="url(#mask__foreground)"></rect><g data-v-528fb24a="" mask="url(#mask__foreground)"><g data-v-528fb24a="" transform="translate(-3.6469038423286793 -3.3625704951097446) rotate(-4.707009116800798 32.05117395327117 25.693280965518348)"><g data-v-528fb24a="" transform="rotate(180 18 23.02314250881744)"><!----><path data-v-528fb24a="" d="M10.68014287276265,22.754055588448452 a0.7324756072173232, 0.5266515818250154 0 0,0 12.704541012522913, -0.9267773712510285" fill="hsl(48, 66.66666666666667%, 100%)"></path></g><rect data-v-528fb24a="" x="12.078195184777323" y="13.423830696551985" width="2.567691874352727" height="2.948150543656023" rx="1" stroke="none" fill="hsl(48, 66.66666666666667%, 100%)"></rect><rect data-v-528fb24a="" x="21.35411294086995" y="13.423830696551985" width="2.567691874352727" height="2.948150543656023" rx="1" stroke="none" fill="hsl(48, 66.66666666666667%, 100%)"></rect></g></g><g data-v-528fb24a="" mask="url(#mask__background)"><g data-v-528fb24a="" transform="translate(-3.6469038423286793 -3.3625704951097446) rotate(-4.707009116800798 32.05117395327117 25.693280965518348)"><g data-v-528fb24a="" transform="rotate(180 18 23.02314250881744)"><!----><path data-v-528fb24a="" d="M10.68014287276265,22.754055588448452 a0.7324756072173232, 0.5266515818250154 0 0,0 12.704541012522913, -0.9267773712510285" fill="hsl(346, 66.66666666666667%, 100%)"></path></g><rect data-v-528fb24a="" x="12.078195184777323" y="13.423830696551985" width="2.567691874352727" height="2.948150543656023" rx="1" stroke="none" fill="hsl(346, 66.66666666666667%, 100%)"></rect><rect data-v-528fb24a="" x="21.35411294086995" y="13.423830696551985" width="2.567691874352727" height="2.948150543656023" rx="1" stroke="none" fill="hsl(346, 66.66666666666667%, 100%)"></rect></g></g></svg>