<svg data-v-528fb24a="" viewBox="0 0 36 36" fill="none" xmlns="http://www.w3.org/2000/svg" width="256" height="256" id="avatar"><title data-v-528fb24a="">Simple Avatar</title><desc data-v-528fb24a="">CREATED BY XUAN TANG, MORE INFO AT TXSTC55.GITHUB.IO</desc><rect data-v-528fb24a="" width="36" height="36" fill="#C8E0F4"></rect><mask data-v-528fb24a="" id="mask__foreground" maskUnits="userSpaceOnUse" x="0" y="0" width="100" height="100"><rect data-v-528fb24a="" x="0" y="0" width="36" height="36" transform="translate(1.0603552989144527 2.695809956782755) rotate(3.606370858825816 35.48853355765588 30.643726005536728)scale(1.0912886695400608)" rx="34.20791763962506" fill="white"></rect><!----></mask><mask data-v-528fb24a="" id="mask__background" maskUnits="userSpaceOnUse" x="0" y="0" width="100" height="100"><rect data-v-528fb24a="" id="test" x="0" y="0" width="36" height="36" fill="white"></rect><rect data-v-528fb24a="" x="3" y="3" width="30" height="30" transform="translate(1.0603552989144527 2.695809956782755) rotate(3.606370858825816 35.48853355765588 30.643726005536728)scale(1.0912886695400608)" rx="34.20791763962506" fill="black"></rect><!----></mask><rect data-v-528fb24a="" x="0" y="0" width="36" height="36" fill="#FFC1CF" mask="url(#mask__foreground)"></rect><g data-v-528fb24a="" mask="url(#mask__foreground)"><g data-v-528fb24a="" transform="translate(4.929732038766414 -3.5897551312185794) rotate(-7.213230193499207 31.329689870783817 24.589431732931782)"><g data-v-528fb24a="" transform=""><!----><path data-v-528fb24a="" d="M12.835739579209347,20.905233180939444 a0.7801528589521339, 0.890134193737872 0 0,0 9.072403525027017, -1.2875068543856498" fill="hsl(207, 44.46666666666667%, 100%)"></path></g><rect data-v-528fb24a="" x="5.47074177943526" y="11.119036376057807" width="5.674042607748488" height="0.8449031401398572" rx="1" stroke="none" fill="hsl(207, 44.46666666666667%, 100%)"></rect><rect data-v-528fb24a="" x="24.855215612816252" y="11.119036376057807" width="5.674042607748488" height="0.8449031401398572" rx="1" stroke="none" fill="hsl(207, 44.46666666666667%, 100%)"></rect></g></g><g data-v-528fb24a="" mask="url(#mask__background)"><g data-v-528fb24a="" transform="translate(4.929732038766414 -3.5897551312185794) rotate(-7.213230193499207 31.329689870783817 24.589431732931782)"><g data-v-528fb24a="" transform=""><!----><path data-v-528fb24a="" d="M12.835739579209347,20.905233180939444 a0.7801528589521339, 0.890134193737872 0 0,0 9.072403525027017, -1.2875068543856498" fill="hsl(346, 66.66666666666667%, 100%)"></path></g><rect data-v-528fb24a="" x="5.47074177943526" y="11.119036376057807" width="5.674042607748488" height="0.8449031401398572" rx="1" stroke="none" fill="hsl(346, 66.66666666666667%, 100%)"></rect><rect data-v-528fb24a="" x="24.855215612816252" y="11.119036376057807" width="5.674042607748488" height="0.8449031401398572" rx="1" stroke="none" fill="hsl(346, 66.66666666666667%, 100%)"></rect></g></g></svg>