<svg data-v-528fb24a="" viewBox="0 0 36 36" fill="none" xmlns="http://www.w3.org/2000/svg" width="256" height="256" id="avatar"><title data-v-528fb24a="">Simple Avatar</title><desc data-v-528fb24a="">CREATED BY XUAN TANG, MORE INFO AT TXSTC55.GITHUB.IO</desc><rect data-v-528fb24a="" width="36" height="36" fill="#031927"></rect><mask data-v-528fb24a="" id="mask__foreground" maskUnits="userSpaceOnUse" x="0" y="0" width="100" height="100"><rect data-v-528fb24a="" x="0" y="0" width="36" height="36" transform="translate(-3.506216218362188 -2.7774350955297966) rotate(-16.342348871923775 18.093412474515016 30.938003379524584)scale(1.1109322266029438)" rx="30.50532349876468" fill="white"></rect><!----></mask><mask data-v-528fb24a="" id="mask__background" maskUnits="userSpaceOnUse" x="0" y="0" width="100" height="100"><rect data-v-528fb24a="" id="test" x="0" y="0" width="36" height="36" fill="white"></rect><rect data-v-528fb24a="" x="3" y="3" width="30" height="30" transform="translate(-3.506216218362188 -2.7774350955297966) rotate(-16.342348871923775 18.093412474515016 30.938003379524584)scale(1.1109322266029438)" rx="30.50532349876468" fill="black"></rect><!----></mask><rect data-v-528fb24a="" x="0" y="0" width="36" height="36" fill="#e63946" mask="url(#mask__foreground)"></rect><g data-v-528fb24a="" mask="url(#mask__foreground)"><g data-v-528fb24a="" transform="translate(3.249896355072792 -0.16571160496123838) rotate(0.7749226791354822 29.276088928884725 21.98010864354364)"><g data-v-528fb24a="" transform="rotate(180 18 26.361068364425975)"><path data-v-528fb24a="" d="M12.675762346975262 23.63924661631723c3.4436434962174918 1.3485042488255492 6.675278161158179 2.9629760341646043 10.648475306049479 0" stroke="#ffffee" fill="none" stroke-linecap="round"></path><!----></g><rect data-v-528fb24a="" x="12.0568167545832" y="15.426689836678964" width="3.3486776278077848" height="1.9286099340849956" rx="1" stroke="none" fill="#ffffee"></rect><rect data-v-528fb24a="" x="20.594505617609013" y="15.426689836678964" width="3.3486776278077848" height="1.9286099340849956" rx="1" stroke="none" fill="#ffffee"></rect></g></g><g data-v-528fb24a="" mask="url(#mask__background)"><g data-v-528fb24a="" transform="translate(3.249896355072792 -0.16571160496123838) rotate(0.7749226791354822 29.276088928884725 21.98010864354364)"><g data-v-528fb24a="" transform="rotate(180 18 26.361068364425975)"><path data-v-528fb24a="" d="M12.675762346975262 23.63924661631723c3.4436434962174918 1.3485042488255492 6.675278161158179 2.9629760341646043 10.648475306049479 0" stroke="#ffffee" fill="none" stroke-linecap="round"></path><!----></g><rect data-v-528fb24a="" x="12.0568167545832" y="15.426689836678964" width="3.3486776278077848" height="1.9286099340849956" rx="1" stroke="none" fill="#ffffee"></rect><rect data-v-528fb24a="" x="20.594505617609013" y="15.426689836678964" width="3.3486776278077848" height="1.9286099340849956" rx="1" stroke="none" fill="#ffffee"></rect></g></g></svg>