<svg data-v-528fb24a="" viewBox="0 0 36 36" fill="none" xmlns="http://www.w3.org/2000/svg" width="256" height="256" id="avatar"><title data-v-528fb24a="">Simple Avatar</title><desc data-v-528fb24a="">CREATED BY XUAN TANG, MORE INFO AT TXSTC55.GITHUB.IO</desc><rect data-v-528fb24a="" width="36" height="36" fill="#FFF2CC"></rect><mask data-v-528fb24a="" id="mask__foreground" maskUnits="userSpaceOnUse" x="0" y="0" width="100" height="100"><rect data-v-528fb24a="" x="0" y="0" width="36" height="36" transform="translate(4.374639954924344 -1.8957960129797247) rotate(15.380941684881918 5.537223275108345 0.46288393660072824)scale(1.0922968225587542)" rx="34.51651956563603" fill="white"></rect><!----></mask><mask data-v-528fb24a="" id="mask__background" maskUnits="userSpaceOnUse" x="0" y="0" width="100" height="100"><rect data-v-528fb24a="" id="test" x="0" y="0" width="36" height="36" fill="white"></rect><rect data-v-528fb24a="" x="3" y="3" width="30" height="30" transform="translate(4.374639954924344 -1.8957960129797247) rotate(15.380941684881918 5.537223275108345 0.46288393660072824)scale(1.0922968225587542)" rx="34.51651956563603" fill="black"></rect><!----></mask><rect data-v-528fb24a="" x="0" y="0" width="36" height="36" fill="#95f9c3" mask="url(#mask__foreground)"></rect><g data-v-528fb24a="" mask="url(#mask__foreground)"><g data-v-528fb24a="" transform="translate(-1.7257795067487125 -1.369647308493207) rotate(3.8618153176659042 30.724438940434624 18.482842711421235)"><g data-v-528fb24a="" transform=""><path data-v-528fb24a="" d="M14.775666005130553 21.943578367153098c1.5114643441489601 2.9336682456180134 3.058833293812934 2.711974654434938 6.448667989738895 0" stroke="hsl(45, 66.66666666666667%, 100%)" fill="none" stroke-linecap="round"></path><!----></g><rect data-v-528fb24a="" x="7.529512471899693" y="15.985535622232113" width="4.782190063468914" height="1.7280411765291714" rx="1" stroke="none" fill="hsl(45, 66.66666666666667%, 100%)"></rect><rect data-v-528fb24a="" x="23.688297464631393" y="15.985535622232113" width="4.782190063468914" height="1.7280411765291714" rx="1" stroke="none" fill="hsl(45, 66.66666666666667%, 100%)"></rect></g></g><g data-v-528fb24a="" mask="url(#mask__background)"><g data-v-528fb24a="" transform="translate(-1.7257795067487125 -1.369647308493207) rotate(3.8618153176659042 30.724438940434624 18.482842711421235)"><g data-v-528fb24a="" transform=""><path data-v-528fb24a="" d="M14.775666005130553 21.943578367153098c1.5114643441489601 2.9336682456180134 3.058833293812934 2.711974654434938 6.448667989738895 0" stroke="hsl(148, 59.53333333333333%, 100%)" fill="none" stroke-linecap="round"></path><!----></g><rect data-v-528fb24a="" x="7.529512471899693" y="15.985535622232113" width="4.782190063468914" height="1.7280411765291714" rx="1" stroke="none" fill="hsl(148, 59.53333333333333%, 100%)"></rect><rect data-v-528fb24a="" x="23.688297464631393" y="15.985535622232113" width="4.782190063468914" height="1.7280411765291714" rx="1" stroke="none" fill="hsl(148, 59.53333333333333%, 100%)"></rect></g></g></svg>