<svg data-v-528fb24a="" viewBox="0 0 36 36" fill="none" xmlns="http://www.w3.org/2000/svg" width="256" height="256" id="avatar"><title data-v-528fb24a="">Simple Avatar</title><desc data-v-528fb24a="">CREATED BY XUAN TANG, MORE INFO AT TXSTC55.GITHUB.IO</desc><rect data-v-528fb24a="" width="36" height="36" fill="#000000"></rect><mask data-v-528fb24a="" id="mask__foreground" maskUnits="userSpaceOnUse" x="0" y="0" width="100" height="100"><rect data-v-528fb24a="" x="0" y="0" width="36" height="36" transform="translate(-1.7381578199570824 0.6769243214644689) rotate(10.778493996447438 14.954882740422956 28.410886544810282)scale(1.1018395694010492)" rx="26.235275174682428" fill="white"></rect><!----></mask><mask data-v-528fb24a="" id="mask__background" maskUnits="userSpaceOnUse" x="0" y="0" width="100" height="100"><rect data-v-528fb24a="" id="test" x="0" y="0" width="36" height="36" fill="white"></rect><rect data-v-528fb24a="" x="3" y="3" width="30" height="30" transform="translate(-1.7381578199570824 0.6769243214644689) rotate(10.778493996447438 14.954882740422956 28.410886544810282)scale(1.1018395694010492)" rx="26.235275174682428" fill="black"></rect><!----></mask><rect data-v-528fb24a="" x="0" y="0" width="36" height="36" fill="#508AA8" mask="url(#mask__foreground)"></rect><g data-v-528fb24a="" mask="url(#mask__foreground)"><g data-v-528fb24a="" transform="translate(-3.338514667061163 -4.892781557346797) rotate(8.643094958669472 26.179000700574676 25.180535290689008)"><g data-v-528fb24a="" transform="rotate(180 18 21.75451205054968)"><path data-v-528fb24a="" d="M11.152383159971162 20.72683728197585c0.05534953714765756 3.4421496807295484 10.833505915326455 3.9329486989188562 13.695233680057674 0" stroke="#ffffee" fill="none" stroke-linecap="round"></path><!----></g><rect data-v-528fb24a="" x="11.572172847846858" y="15.469417309704234" width="2.1712298558079057" height="0.8380869546257664" rx="1" stroke="none" fill="#ffffee"></rect><rect data-v-528fb24a="" x="22.256597296345237" y="15.469417309704234" width="2.1712298558079057" height="0.8380869546257664" rx="1" stroke="none" fill="#ffffee"></rect></g></g><g data-v-528fb24a="" mask="url(#mask__background)"><g data-v-528fb24a="" transform="translate(-3.338514667061163 -4.892781557346797) rotate(8.643094958669472 26.179000700574676 25.180535290689008)"><g data-v-528fb24a="" transform="rotate(180 18 21.75451205054968)"><path data-v-528fb24a="" d="M11.152383159971162 20.72683728197585c0.05534953714765756 3.4421496807295484 10.833505915326455 3.9329486989188562 13.695233680057674 0" stroke="#ffffee" fill="none" stroke-linecap="round"></path><!----></g><rect data-v-528fb24a="" x="11.572172847846858" y="15.469417309704234" width="2.1712298558079057" height="0.8380869546257664" rx="1" stroke="none" fill="#ffffee"></rect><rect data-v-528fb24a="" x="22.256597296345237" y="15.469417309704234" width="2.1712298558079057" height="0.8380869546257664" rx="1" stroke="none" fill="#ffffee"></rect></g></g></svg>