<svg data-v-528fb24a="" viewBox="0 0 36 36" fill="none" xmlns="http://www.w3.org/2000/svg" width="256" height="256" id="avatar"><title data-v-528fb24a="">Simple Avatar</title><desc data-v-528fb24a="">CREATED BY XUAN TANG, MORE INFO AT TXSTC55.GITHUB.IO</desc><rect data-v-528fb24a="" width="36" height="36" fill="#508AA8"></rect><mask data-v-528fb24a="" id="mask__foreground" maskUnits="userSpaceOnUse" x="0" y="0" width="100" height="100"><rect data-v-528fb24a="" x="0" y="0" width="36" height="36" transform="translate(-4.4871637897878465 1.2478867821288215) rotate(15.625688858827786 35.30511261694421 22.096108711636354)scale(1.0790130856495852)" rx="11.22350218580518" fill="white"></rect><!----></mask><mask data-v-528fb24a="" id="mask__background" maskUnits="userSpaceOnUse" x="0" y="0" width="100" height="100"><rect data-v-528fb24a="" id="test" x="0" y="0" width="36" height="36" fill="white"></rect><rect data-v-528fb24a="" x="3" y="3" width="30" height="30" transform="translate(-4.4871637897878465 1.2478867821288215) rotate(15.625688858827786 35.30511261694421 22.096108711636354)scale(1.0790130856495852)" rx="11.22350218580518" fill="black"></rect><!----></mask><rect data-v-528fb24a="" x="0" y="0" width="36" height="36" fill="#cc2936" mask="url(#mask__foreground)"></rect><g data-v-528fb24a="" mask="url(#mask__foreground)"><g data-v-528fb24a="" transform="translate(-2.464594389271666 -3.6219340770007036) rotate(1.1278317659477732 29.96082192738851 29.516316597855152)"><g data-v-528fb24a="" transform=""><!----><path data-v-528fb24a="" d="M12.268897021856926,21.179187950492828 a0.7333963828808975, 0.8063410486340132 0 0,0 13.23493543539446, 1.1158586274803728" fill="#ffffee"></path></g><rect data-v-528fb24a="" x="10.364484163983615" y="16.723072571880778" width="4.8954935445016545" height="0.5799620949824731" rx="1" stroke="none" fill="#ffffee"></rect><rect data-v-528fb24a="" x="20.74002229151473" y="16.723072571880778" width="4.8954935445016545" height="0.5799620949824731" rx="1" stroke="none" fill="#ffffee"></rect></g></g><g data-v-528fb24a="" mask="url(#mask__background)"><g data-v-528fb24a="" transform="translate(-2.464594389271666 -3.6219340770007036) rotate(1.1278317659477732 29.96082192738851 29.516316597855152)"><g data-v-528fb24a="" transform=""><!----><path data-v-528fb24a="" d="M12.268897021856926,21.179187950492828 a0.7333963828808975, 0.8063410486340132 0 0,0 13.23493543539446, 1.1158586274803728" fill="#ffffee"></path></g><rect data-v-528fb24a="" x="10.364484163983615" y="16.723072571880778" width="4.8954935445016545" height="0.5799620949824731" rx="1" stroke="none" fill="#ffffee"></rect><rect data-v-528fb24a="" x="20.74002229151473" y="16.723072571880778" width="4.8954935445016545" height="0.5799620949824731" rx="1" stroke="none" fill="#ffffee"></rect></g></g></svg>