<svg data-v-528fb24a="" viewBox="0 0 36 36" fill="none" xmlns="http://www.w3.org/2000/svg" width="256" height="256" id="avatar"><title data-v-528fb24a="">Simple Avatar</title><desc data-v-528fb24a="">CREATED BY XUAN TANG, MORE INFO AT TXSTC55.GITHUB.IO</desc><rect data-v-528fb24a="" width="36" height="36" fill="#471069"></rect><mask data-v-528fb24a="" id="mask__foreground" maskUnits="userSpaceOnUse" x="0" y="0" width="100" height="100"><rect data-v-528fb24a="" x="0" y="0" width="36" height="36" transform="translate(-4.457489206495568 -4.162537350394892) rotate(12.47159882000939 6.348801470679867 8.875978375315775)scale(1.1397881180827738)" rx="7.196425774356037" fill="white"></rect><!----></mask><mask data-v-528fb24a="" id="mask__background" maskUnits="userSpaceOnUse" x="0" y="0" width="100" height="100"><rect data-v-528fb24a="" id="test" x="0" y="0" width="36" height="36" fill="white"></rect><rect data-v-528fb24a="" x="3" y="3" width="30" height="30" transform="translate(-4.457489206495568 -4.162537350394892) rotate(12.47159882000939 6.348801470679867 8.875978375315775)scale(1.1397881180827738)" rx="7.196425774356037" fill="black"></rect><!----></mask><rect data-v-528fb24a="" x="0" y="0" width="36" height="36" fill="#748CAB" mask="url(#mask__foreground)"></rect><g data-v-528fb24a="" mask="url(#mask__foreground)"><g data-v-528fb24a="" transform="translate(0.2479174254848937 -1.318635409292388) rotate(2.7682601943371807 20.611276056628242 33.790487198026135)"><g data-v-528fb24a="" transform=""><path data-v-528fb24a="" d="M14.503913876233511 25.187361840553617c3.555092759042103 2.1708111043869476 5.299376194966329 2.215781158329988 6.992172247532978 0" stroke="#ffffee" fill="none" stroke-linecap="round"></path><!----></g><rect data-v-528fb24a="" x="6.106084650521411" y="9.211792132711226" width="5.678470587074496" height="2.050990129143174" rx="1" stroke="none" fill="#ffffee"></rect><rect data-v-528fb24a="" x="24.215444762404093" y="9.211792132711226" width="5.678470587074496" height="2.050990129143174" rx="1" stroke="none" fill="#ffffee"></rect></g></g><g data-v-528fb24a="" mask="url(#mask__background)"><g data-v-528fb24a="" transform="translate(0.2479174254848937 -1.318635409292388) rotate(2.7682601943371807 20.611276056628242 33.790487198026135)"><g data-v-528fb24a="" transform=""><path data-v-528fb24a="" d="M14.503913876233511 25.187361840553617c3.555092759042103 2.1708111043869476 5.299376194966329 2.215781158329988 6.992172247532978 0" stroke="#ffffee" fill="none" stroke-linecap="round"></path><!----></g><rect data-v-528fb24a="" x="6.106084650521411" y="9.211792132711226" width="5.678470587074496" height="2.050990129143174" rx="1" stroke="none" fill="#ffffee"></rect><rect data-v-528fb24a="" x="24.215444762404093" y="9.211792132711226" width="5.678470587074496" height="2.050990129143174" rx="1" stroke="none" fill="#ffffee"></rect></g></g></svg>