<svg data-v-528fb24a="" viewBox="0 0 36 36" fill="none" xmlns="http://www.w3.org/2000/svg" width="256" height="256" id="avatar"><title data-v-528fb24a="">Simple Avatar</title><desc data-v-528fb24a="">CREATED BY XUAN TANG, MORE INFO AT TXSTC55.GITHUB.IO</desc><rect data-v-528fb24a="" width="36" height="36" fill="#cc2936"></rect><mask data-v-528fb24a="" id="mask__foreground" maskUnits="userSpaceOnUse" x="0" y="0" width="100" height="100"><rect data-v-528fb24a="" x="0" y="0" width="36" height="36" transform="translate(1.6602871278740405 -0.9883381633054578) rotate(-7.714841317906824 17.205569693145613 24.794209320032195)scale(1.197069149297853)" rx="26.948997437504794" fill="white"></rect><!----></mask><mask data-v-528fb24a="" id="mask__background" maskUnits="userSpaceOnUse" x="0" y="0" width="100" height="100"><rect data-v-528fb24a="" id="test" x="0" y="0" width="36" height="36" fill="white"></rect><rect data-v-528fb24a="" x="3" y="3" width="30" height="30" transform="translate(1.6602871278740405 -0.9883381633054578) rotate(-7.714841317906824 17.205569693145613 24.794209320032195)scale(1.197069149297853)" rx="26.948997437504794" fill="black"></rect><!----></mask><rect data-v-528fb24a="" x="0" y="0" width="36" height="36" fill="#023d67" mask="url(#mask__foreground)"></rect><g data-v-528fb24a="" mask="url(#mask__foreground)"><g data-v-528fb24a="" transform="translate(-0.9937579860230228 -1.5349643753682152) rotate(1.5102497994640665 29.906296603731388 29.9487960818104)"><g data-v-528fb24a="" transform="rotate(180 18 25.887888123164885)"><path data-v-528fb24a="" d="M14.734888879026007 23.394524695400804c2.986726855528164 3.3807474134740056 3.719387277692812 2.288516978683384 6.530222241947985 0" stroke="#ffffee" fill="none" stroke-linecap="round"></path><!----></g><rect data-v-528fb24a="" x="10.825222634761968" y="12.098387522908368" width="3.892395744523391" height="0.8187769453327965" rx="1" stroke="none" fill="#ffffee"></rect><rect data-v-528fb24a="" x="21.28238162071464" y="12.098387522908368" width="3.892395744523391" height="0.8187769453327965" rx="1" stroke="none" fill="#ffffee"></rect></g></g><g data-v-528fb24a="" mask="url(#mask__background)"><g data-v-528fb24a="" transform="translate(-0.9937579860230228 -1.5349643753682152) rotate(1.5102497994640665 29.906296603731388 29.9487960818104)"><g data-v-528fb24a="" transform="rotate(180 18 25.887888123164885)"><path data-v-528fb24a="" d="M14.734888879026007 23.394524695400804c2.986726855528164 3.3807474134740056 3.719387277692812 2.288516978683384 6.530222241947985 0" stroke="#ffffee" fill="none" stroke-linecap="round"></path><!----></g><rect data-v-528fb24a="" x="10.825222634761968" y="12.098387522908368" width="3.892395744523391" height="0.8187769453327965" rx="1" stroke="none" fill="#ffffee"></rect><rect data-v-528fb24a="" x="21.28238162071464" y="12.098387522908368" width="3.892395744523391" height="0.8187769453327965" rx="1" stroke="none" fill="#ffffee"></rect></g></g></svg>