<svg data-v-528fb24a="" viewBox="0 0 36 36" fill="none" xmlns="http://www.w3.org/2000/svg" width="256" height="256" id="avatar"><title data-v-528fb24a="">Simple Avatar</title><desc data-v-528fb24a="">CREATED BY XUAN TANG, MORE INFO AT TXSTC55.GITHUB.IO</desc><rect data-v-528fb24a="" width="36" height="36" fill="#19376D"></rect><mask data-v-528fb24a="" id="mask__foreground" maskUnits="userSpaceOnUse" x="0" y="0" width="100" height="100"><rect data-v-528fb24a="" x="0" y="0" width="36" height="36" transform="translate(2.677756545655008 -1.9411669374989615) rotate(18.845889314538944 22.46921322072947 35.0720484557076)scale(1.1670491147276485)" rx="13.767766513884666" fill="white"></rect><!----></mask><mask data-v-528fb24a="" id="mask__background" maskUnits="userSpaceOnUse" x="0" y="0" width="100" height="100"><rect data-v-528fb24a="" id="test" x="0" y="0" width="36" height="36" fill="white"></rect><rect data-v-528fb24a="" x="3" y="3" width="30" height="30" transform="translate(2.677756545655008 -1.9411669374989615) rotate(18.845889314538944 22.46921322072947 35.0720484557076)scale(1.1670491147276485)" rx="13.767766513884666" fill="black"></rect><!----></mask><rect data-v-528fb24a="" x="0" y="0" width="36" height="36" fill="#233d4d" mask="url(#mask__foreground)"></rect><g data-v-528fb24a="" mask="url(#mask__foreground)"><g data-v-528fb24a="" transform="translate(-4.052699290895823 -4.756731808319623) rotate(-9.6385595681881 33.989284979085745 24.875433100193252)"><g data-v-528fb24a="" transform=""><path data-v-528fb24a="" d="M9.01558066355076 19.9630382486301c3.1213982508516898 3.8040750246068558 16.44901304690451 4.050609429723146 17.96883867289848 0" stroke="#ffffee" fill="none" stroke-linecap="round"></path><!----></g><rect data-v-528fb24a="" x="10.93360773152199" y="12.122973440163525" width="3.474432323950664" height="1.8852601837811322" rx="1" stroke="none" fill="#ffffee"></rect><rect data-v-528fb24a="" x="21.591959944527346" y="12.122973440163525" width="3.474432323950664" height="1.8852601837811322" rx="1" stroke="none" fill="#ffffee"></rect></g></g><g data-v-528fb24a="" mask="url(#mask__background)"><g data-v-528fb24a="" transform="translate(-4.052699290895823 -4.756731808319623) rotate(-9.6385595681881 33.989284979085745 24.875433100193252)"><g data-v-528fb24a="" transform=""><path data-v-528fb24a="" d="M9.01558066355076 19.9630382486301c3.1213982508516898 3.8040750246068558 16.44901304690451 4.050609429723146 17.96883867289848 0" stroke="#ffffee" fill="none" stroke-linecap="round"></path><!----></g><rect data-v-528fb24a="" x="10.93360773152199" y="12.122973440163525" width="3.474432323950664" height="1.8852601837811322" rx="1" stroke="none" fill="#ffffee"></rect><rect data-v-528fb24a="" x="21.591959944527346" y="12.122973440163525" width="3.474432323950664" height="1.8852601837811322" rx="1" stroke="none" fill="#ffffee"></rect></g></g></svg>