<svg data-v-528fb24a="" viewBox="0 0 36 36" fill="none" xmlns="http://www.w3.org/2000/svg" width="256" height="256" id="avatar"><title data-v-528fb24a="">Simple Avatar</title><desc data-v-528fb24a="">CREATED BY XUAN TANG, MORE INFO AT TXSTC55.GITHUB.IO</desc><rect data-v-528fb24a="" width="36" height="36" fill="#f1faee"></rect><mask data-v-528fb24a="" id="mask__foreground" maskUnits="userSpaceOnUse" x="0" y="0" width="100" height="100"><rect data-v-528fb24a="" x="0" y="0" width="36" height="36" transform="translate(0.4669321708115426 0.19161367115005667) rotate(5.612753275217024 24.49779311381228 30.911037695769156)scale(1.1026156178334128)" rx="6.765145518463825" fill="white"></rect><!----></mask><mask data-v-528fb24a="" id="mask__background" maskUnits="userSpaceOnUse" x="0" y="0" width="100" height="100"><rect data-v-528fb24a="" id="test" x="0" y="0" width="36" height="36" fill="white"></rect><rect data-v-528fb24a="" x="3" y="3" width="30" height="30" transform="translate(0.4669321708115426 0.19161367115005667) rotate(5.612753275217024 24.49779311381228 30.911037695769156)scale(1.1026156178334128)" rx="6.765145518463825" fill="black"></rect><!----></mask><rect data-v-528fb24a="" x="0" y="0" width="36" height="36" fill="#FFC1CF" mask="url(#mask__foreground)"></rect><g data-v-528fb24a="" mask="url(#mask__foreground)"><g data-v-528fb24a="" transform="translate(-0.8441865259378574 -0.36455346616776474) rotate(3.8603345828897595 24.07258680330399 26.845111238523184)"><g data-v-528fb24a="" transform=""><path data-v-528fb24a="" d="M15.359747525605531 21.697344273341308c0.8168196315344982 4.55110200515413 4.955031553855114 3.2305854078956058 5.280504948788937 0" stroke="hsl(105, 36.333333333333336%, 100%)" fill="none" stroke-linecap="round"></path><!----></g><rect data-v-528fb24a="" x="9.533325964607375" y="16.132976460016643" width="4.353286560188142" height="1.2356978006169883" rx="1" stroke="none" fill="hsl(105, 36.333333333333336%, 100%)"></rect><rect data-v-528fb24a="" x="22.113387475204483" y="16.132976460016643" width="4.353286560188142" height="1.2356978006169883" rx="1" stroke="none" fill="hsl(105, 36.333333333333336%, 100%)"></rect></g></g><g data-v-528fb24a="" mask="url(#mask__background)"><g data-v-528fb24a="" transform="translate(-0.8441865259378574 -0.36455346616776474) rotate(3.8603345828897595 24.07258680330399 26.845111238523184)"><g data-v-528fb24a="" transform=""><path data-v-528fb24a="" d="M15.359747525605531 21.697344273341308c0.8168196315344982 4.55110200515413 4.955031553855114 3.2305854078956058 5.280504948788937 0" stroke="hsl(346, 66.66666666666667%, 100%)" fill="none" stroke-linecap="round"></path><!----></g><rect data-v-528fb24a="" x="9.533325964607375" y="16.132976460016643" width="4.353286560188142" height="1.2356978006169883" rx="1" stroke="none" fill="hsl(346, 66.66666666666667%, 100%)"></rect><rect data-v-528fb24a="" x="22.113387475204483" y="16.132976460016643" width="4.353286560188142" height="1.2356978006169883" rx="1" stroke="none" fill="hsl(346, 66.66666666666667%, 100%)"></rect></g></g></svg>