<svg data-v-528fb24a="" viewBox="0 0 36 36" fill="none" xmlns="http://www.w3.org/2000/svg" width="256" height="256" id="avatar"><title data-v-528fb24a="">Simple Avatar</title><desc data-v-528fb24a="">CREATED BY XUAN TANG, MORE INFO AT TXSTC55.GITHUB.IO</desc><rect data-v-528fb24a="" width="36" height="36" fill="#233d4d"></rect><mask data-v-528fb24a="" id="mask__foreground" maskUnits="userSpaceOnUse" x="0" y="0" width="100" height="100"><rect data-v-528fb24a="" x="0" y="0" width="36" height="36" transform="translate(2.5137362998445534 2.337555070590385) rotate(5.710043292932411 13.34121432453085 12.632632135469159)scale(1.0797319741007876)" rx="33.48888331946906" fill="white"></rect><!----></mask><mask data-v-528fb24a="" id="mask__background" maskUnits="userSpaceOnUse" x="0" y="0" width="100" height="100"><rect data-v-528fb24a="" id="test" x="0" y="0" width="36" height="36" fill="white"></rect><rect data-v-528fb24a="" x="3" y="3" width="30" height="30" transform="translate(2.5137362998445534 2.337555070590385) rotate(5.710043292932411 13.34121432453085 12.632632135469159)scale(1.0797319741007876)" rx="33.48888331946906" fill="black"></rect><!----></mask><rect data-v-528fb24a="" x="0" y="0" width="36" height="36" fill="#ef476f" mask="url(#mask__foreground)"></rect><g data-v-528fb24a="" mask="url(#mask__foreground)"><g data-v-528fb24a="" transform="translate(-4.984267022001278 -3.9036450502288056) rotate(3.749634507432047 25.168522960501733 34.32658672871818)"><g data-v-528fb24a="" transform=""><path data-v-528fb24a="" d="M14.575848456343586 16.487399009694098c3.971516790579691 2.8241408688583842 4.337779078841074 2.6053338841158133 6.848303087312828 0" stroke="#ffffee" fill="none" stroke-linecap="round"></path><!----></g><rect data-v-528fb24a="" x="6.62660472146964" y="11.176794401229142" width="5.699393897964384" height="0.8737585521835823" rx="1" stroke="none" fill="#ffffee"></rect><rect data-v-528fb24a="" x="23.674001380565976" y="11.176794401229142" width="5.699393897964384" height="0.8737585521835823" rx="1" stroke="none" fill="#ffffee"></rect></g></g><g data-v-528fb24a="" mask="url(#mask__background)"><g data-v-528fb24a="" transform="translate(-4.984267022001278 -3.9036450502288056) rotate(3.749634507432047 25.168522960501733 34.32658672871818)"><g data-v-528fb24a="" transform=""><path data-v-528fb24a="" d="M14.575848456343586 16.487399009694098c3.971516790579691 2.8241408688583842 4.337779078841074 2.6053338841158133 6.848303087312828 0" stroke="#ffffee" fill="none" stroke-linecap="round"></path><!----></g><rect data-v-528fb24a="" x="6.62660472146964" y="11.176794401229142" width="5.699393897964384" height="0.8737585521835823" rx="1" stroke="none" fill="#ffffee"></rect><rect data-v-528fb24a="" x="23.674001380565976" y="11.176794401229142" width="5.699393897964384" height="0.8737585521835823" rx="1" stroke="none" fill="#ffffee"></rect></g></g></svg>