<svg data-v-528fb24a="" viewBox="0 0 36 36" fill="none" xmlns="http://www.w3.org/2000/svg" width="256" height="256" id="avatar"><title data-v-528fb24a="">Simple Avatar</title><desc data-v-528fb24a="">CREATED BY XUAN TANG, MORE INFO AT TXSTC55.GITHUB.IO</desc><rect data-v-528fb24a="" width="36" height="36" fill="#408E91"></rect><mask data-v-528fb24a="" id="mask__foreground" maskUnits="userSpaceOnUse" x="0" y="0" width="100" height="100"><rect data-v-528fb24a="" x="0" y="0" width="36" height="36" transform="translate(4.402129368655663 -3.4586457270911364) rotate(-3.9061656451007387 7.436793374483967 31.969732862663292)scale(1.130596791264822)" rx="30.227064455848158" fill="white"></rect><!----></mask><mask data-v-528fb24a="" id="mask__background" maskUnits="userSpaceOnUse" x="0" y="0" width="100" height="100"><rect data-v-528fb24a="" id="test" x="0" y="0" width="36" height="36" fill="white"></rect><rect data-v-528fb24a="" x="3" y="3" width="30" height="30" transform="translate(4.402129368655663 -3.4586457270911364) rotate(-3.9061656451007387 7.436793374483967 31.969732862663292)scale(1.130596791264822)" rx="30.227064455848158" fill="black"></rect><!----></mask><rect data-v-528fb24a="" x="0" y="0" width="36" height="36" fill="#26547c" mask="url(#mask__foreground)"></rect><g data-v-528fb24a="" mask="url(#mask__foreground)"><g data-v-528fb24a="" transform="translate(-0.61448358436202 -4.934776679124305) rotate(0.37830104324656055 28.62773195392617 32.62233680139495)"><g data-v-528fb24a="" transform=""><path data-v-528fb24a="" d="M13.633708752438478 16.062420103371544c1.149650753963921 2.278234379548555 6.161299755610769 2.8534895175200843 8.732582495123044 0" stroke="#ffffee" fill="none" stroke-linecap="round"></path><!----></g><rect data-v-528fb24a="" x="8.781106033756096" y="9.02514495516745" width="2.9795235430591154" height="2.628403365042255" rx="1" stroke="none" fill="#ffffee"></rect><rect data-v-528fb24a="" x="24.239370423184788" y="9.02514495516745" width="2.9795235430591154" height="2.628403365042255" rx="1" stroke="none" fill="#ffffee"></rect></g></g><g data-v-528fb24a="" mask="url(#mask__background)"><g data-v-528fb24a="" transform="translate(-0.61448358436202 -4.934776679124305) rotate(0.37830104324656055 28.62773195392617 32.62233680139495)"><g data-v-528fb24a="" transform=""><path data-v-528fb24a="" d="M13.633708752438478 16.062420103371544c1.149650753963921 2.278234379548555 6.161299755610769 2.8534895175200843 8.732582495123044 0" stroke="#ffffee" fill="none" stroke-linecap="round"></path><!----></g><rect data-v-528fb24a="" x="8.781106033756096" y="9.02514495516745" width="2.9795235430591154" height="2.628403365042255" rx="1" stroke="none" fill="#ffffee"></rect><rect data-v-528fb24a="" x="24.239370423184788" y="9.02514495516745" width="2.9795235430591154" height="2.628403365042255" rx="1" stroke="none" fill="#ffffee"></rect></g></g></svg>