<svg data-v-528fb24a="" viewBox="0 0 36 36" fill="none" xmlns="http://www.w3.org/2000/svg" width="256" height="256" id="avatar"><title data-v-528fb24a="">Simple Avatar</title><desc data-v-528fb24a="">CREATED BY XUAN TANG, MORE INFO AT TXSTC55.GITHUB.IO</desc><rect data-v-528fb24a="" width="36" height="36" fill="#95f9c3"></rect><mask data-v-528fb24a="" id="mask__foreground" maskUnits="userSpaceOnUse" x="0" y="0" width="100" height="100"><rect data-v-528fb24a="" x="0" y="0" width="36" height="36" transform="translate(4.753457961500551 1.2630292523925597) rotate(-9.968003745789105 29.049697709293383 4.919607005022425)scale(1.185843374688988)" rx="16.267130571971805" fill="white"></rect><!----></mask><mask data-v-528fb24a="" id="mask__background" maskUnits="userSpaceOnUse" x="0" y="0" width="100" height="100"><rect data-v-528fb24a="" id="test" x="0" y="0" width="36" height="36" fill="white"></rect><rect data-v-528fb24a="" x="3" y="3" width="30" height="30" transform="translate(4.753457961500551 1.2630292523925597) rotate(-9.968003745789105 29.049697709293383 4.919607005022425)scale(1.185843374688988)" rx="16.267130571971805" fill="black"></rect><!----></mask><rect data-v-528fb24a="" x="0" y="0" width="36" height="36" fill="#F0EBD8" mask="url(#mask__foreground)"></rect><g data-v-528fb24a="" mask="url(#mask__foreground)"><g data-v-528fb24a="" transform="translate(0.08192591189735587 -0.9488887617154562) rotate(-9.466812876093655 19.75960093308512 20.35887460518375)"><g data-v-528fb24a="" transform=""><!----><path data-v-528fb24a="" d="M12.57874163787772,22.63222635507329 a0.5528873614557637, 0.7256011879190518 0 0,0 9.944372417504209, 1.1631078451666763" fill="hsl(148, 59.53333333333333%, 100%)"></path></g><rect data-v-528fb24a="" x="7.748303289899419" y="9.042253593073806" width="3.632982116997858" height="2.0241045991338553" rx="1" stroke="none" fill="hsl(148, 59.53333333333333%, 100%)"></rect><rect data-v-528fb24a="" x="24.618714593102723" y="9.042253593073806" width="3.632982116997858" height="2.0241045991338553" rx="1" stroke="none" fill="hsl(148, 59.53333333333333%, 100%)"></rect></g></g><g data-v-528fb24a="" mask="url(#mask__background)"><g data-v-528fb24a="" transform="translate(0.08192591189735587 -0.9488887617154562) rotate(-9.466812876093655 19.75960093308512 20.35887460518375)"><g data-v-528fb24a="" transform=""><!----><path data-v-528fb24a="" d="M12.57874163787772,22.63222635507329 a0.5528873614557637, 0.7256011879190518 0 0,0 9.944372417504209, 1.1631078451666763" fill="hsl(47, 29.599999999999998%, 100%)"></path></g><rect data-v-528fb24a="" x="7.748303289899419" y="9.042253593073806" width="3.632982116997858" height="2.0241045991338553" rx="1" stroke="none" fill="hsl(47, 29.599999999999998%, 100%)"></rect><rect data-v-528fb24a="" x="24.618714593102723" y="9.042253593073806" width="3.632982116997858" height="2.0241045991338553" rx="1" stroke="none" fill="hsl(47, 29.599999999999998%, 100%)"></rect></g></g></svg>