<svg data-v-528fb24a="" viewBox="0 0 36 36" fill="none" xmlns="http://www.w3.org/2000/svg" width="256" height="256" id="avatar"><title data-v-528fb24a="">Simple Avatar</title><desc data-v-528fb24a="">CREATED BY XUAN TANG, MORE INFO AT TXSTC55.GITHUB.IO</desc><rect data-v-528fb24a="" width="36" height="36" fill="#0b3866"></rect><mask data-v-528fb24a="" id="mask__foreground" maskUnits="userSpaceOnUse" x="0" y="0" width="100" height="100"><rect data-v-528fb24a="" x="0" y="0" width="36" height="36" transform="translate(3.5020525188563933 2.4146936416532867) rotate(7.504686497885924 7.052412628195056 4.785625758315569)scale(1.1245813503248998)" rx="8.630201704560008" fill="white"></rect><!----></mask><mask data-v-528fb24a="" id="mask__background" maskUnits="userSpaceOnUse" x="0" y="0" width="100" height="100"><rect data-v-528fb24a="" id="test" x="0" y="0" width="36" height="36" fill="white"></rect><rect data-v-528fb24a="" x="3" y="3" width="30" height="30" transform="translate(3.5020525188563933 2.4146936416532867) rotate(7.504686497885924 7.052412628195056 4.785625758315569)scale(1.1245813503248998)" rx="8.630201704560008" fill="black"></rect><!----></mask><rect data-v-528fb24a="" x="0" y="0" width="36" height="36" fill="#2a9d8f" mask="url(#mask__foreground)"></rect><g data-v-528fb24a="" mask="url(#mask__foreground)"><g data-v-528fb24a="" transform="translate(-2.046881994557015 3.9064576462483718) rotate(3.8384964943353275 18.1001157673756 31.03188808442433)"><g data-v-528fb24a="" transform="rotate(180 18 20.90946988488971)"><!----><path data-v-528fb24a="" d="M12.969017726057354,19.82408589801976 a0.7836621430255113, 0.5717005326999111 0 0,0 9.49720550021603, 0.6034436922523523" fill="#ffffee"></path></g><rect data-v-528fb24a="" x="12.657306193747148" y="10.217342069768009" width="2.6418352182231217" height="1.2976627354149328" rx="1" stroke="none" fill="#ffffee"></rect><rect data-v-528fb24a="" x="20.700858588029732" y="10.217342069768009" width="2.6418352182231217" height="1.2976627354149328" rx="1" stroke="none" fill="#ffffee"></rect></g></g><g data-v-528fb24a="" mask="url(#mask__background)"><g data-v-528fb24a="" transform="translate(-2.046881994557015 3.9064576462483718) rotate(3.8384964943353275 18.1001157673756 31.03188808442433)"><g data-v-528fb24a="" transform="rotate(180 18 20.90946988488971)"><!----><path data-v-528fb24a="" d="M12.969017726057354,19.82408589801976 a0.7836621430255113, 0.5717005326999111 0 0,0 9.49720550021603, 0.6034436922523523" fill="#ffffee"></path></g><rect data-v-528fb24a="" x="12.657306193747148" y="10.217342069768009" width="2.6418352182231217" height="1.2976627354149328" rx="1" stroke="none" fill="#ffffee"></rect><rect data-v-528fb24a="" x="20.700858588029732" y="10.217342069768009" width="2.6418352182231217" height="1.2976627354149328" rx="1" stroke="none" fill="#ffffee"></rect></g></g></svg>