<svg data-v-528fb24a="" viewBox="0 0 36 36" fill="none" xmlns="http://www.w3.org/2000/svg" width="256" height="256" id="avatar"><title data-v-528fb24a="">Simple Avatar</title><desc data-v-528fb24a="">CREATED BY XUAN TANG, MORE INFO AT TXSTC55.GITHUB.IO</desc><rect data-v-528fb24a="" width="36" height="36" fill="#031927"></rect><mask data-v-528fb24a="" id="mask__foreground" maskUnits="userSpaceOnUse" x="0" y="0" width="100" height="100"><!----><path data-v-528fb24a="" stroke-width="10.58024098575925" stroke-linecap="round" stroke-linejoin="round" stroke="white" fill="white" d="M 18,7.75128869404 32,32 4,32 z" transform="translate(1.3632994165532208 -2.2100519017926956) rotate(-9.449943993318534 18 18)"></path></mask><mask data-v-528fb24a="" id="mask__background" maskUnits="userSpaceOnUse" x="0" y="0" width="100" height="100"><rect data-v-528fb24a="" id="test" x="0" y="0" width="36" height="36" fill="white"></rect><!----><path data-v-528fb24a="" stroke-width="10.58024098575925" stroke-linecap="round" stroke-linejoin="round" stroke="black" fill="black" d="M 18,7.75128869404 32,32 4,32 z" transform="translate(1.3632994165532208 -2.2100519017926956) rotate(-9.449943993318534 18 18)"></path></mask><rect data-v-528fb24a="" x="0" y="0" width="36" height="36" fill="#245953" mask="url(#mask__foreground)"></rect><g data-v-528fb24a="" mask="url(#mask__foreground)"><g data-v-528fb24a="" transform="translate(2.613717558133528 -4.893001802373222) rotate(8.581676907357863 23.928756375663564 28.751899045429404)"><g data-v-528fb24a="" transform=""><!----><path data-v-528fb24a="" d="M10.071658679380446,23.1817254461362 a0.7271568355233328, 0.5224366837348595 0 0,0 17.24353482496119, -0.9083178037934521" fill="#ffffee"></path></g><rect data-v-528fb24a="" x="9.819197398911859" y="13.78008245541169" width="3.5686345116068114" height="1.616201870982948" rx="1" stroke="none" fill="#ffffee"></rect><rect data-v-528fb24a="" x="22.61216808948133" y="13.78008245541169" width="3.5686345116068114" height="1.616201870982948" rx="1" stroke="none" fill="#ffffee"></rect></g></g><g data-v-528fb24a="" mask="url(#mask__background)"><g data-v-528fb24a="" transform="translate(2.613717558133528 -4.893001802373222) rotate(8.581676907357863 23.928756375663564 28.751899045429404)"><g data-v-528fb24a="" transform=""><!----><path data-v-528fb24a="" d="M10.071658679380446,23.1817254461362 a0.7271568355233328, 0.5224366837348595 0 0,0 17.24353482496119, -0.9083178037934521" fill="#ffffee"></path></g><rect data-v-528fb24a="" x="9.819197398911859" y="13.78008245541169" width="3.5686345116068114" height="1.616201870982948" rx="1" stroke="none" fill="#ffffee"></rect><rect data-v-528fb24a="" x="22.61216808948133" y="13.78008245541169" width="3.5686345116068114" height="1.616201870982948" rx="1" stroke="none" fill="#ffffee"></rect></g></g></svg>