<svg data-v-528fb24a="" viewBox="0 0 36 36" fill="none" xmlns="http://www.w3.org/2000/svg" width="256" height="256" id="avatar"><title data-v-528fb24a="">Simple Avatar</title><desc data-v-528fb24a="">CREATED BY XUAN TANG, MORE INFO AT TXSTC55.GITHUB.IO</desc><rect data-v-528fb24a="" width="36" height="36" fill="#000000"></rect><mask data-v-528fb24a="" id="mask__foreground" maskUnits="userSpaceOnUse" x="0" y="0" width="100" height="100"><rect data-v-528fb24a="" x="0" y="0" width="36" height="36" transform="translate(1.3332205094430698 -2.686638284707954) rotate(14.71853388787401 5.748427981982716 26.37993036104422)scale(1.1336530022689215)" rx="24.935114741284885" fill="white"></rect><!----></mask><mask data-v-528fb24a="" id="mask__background" maskUnits="userSpaceOnUse" x="0" y="0" width="100" height="100"><rect data-v-528fb24a="" id="test" x="0" y="0" width="36" height="36" fill="white"></rect><rect data-v-528fb24a="" x="3" y="3" width="30" height="30" transform="translate(1.3332205094430698 -2.686638284707954) rotate(14.71853388787401 5.748427981982716 26.37993036104422)scale(1.1336530022689215)" rx="24.935114741284885" fill="black"></rect><!----></mask><rect data-v-528fb24a="" x="0" y="0" width="36" height="36" fill="#e63946" mask="url(#mask__foreground)"></rect><g data-v-528fb24a="" mask="url(#mask__foreground)"><g data-v-528fb24a="" transform="translate(-1.6151792325637193 -0.8293572380093401) rotate(-8.821179387572355 20.952408952320532 33.03656233544452)"><g data-v-528fb24a="" transform="rotate(180 18 16.788876075076303)"><path data-v-528fb24a="" d="M10.559587329227343 14.914256543956057c1.749239062240493 2.2083969946054554 12.369932928743525 4.571880723118872 14.880825341545314 0" stroke="#ffffee" fill="none" stroke-linecap="round"></path><!----></g><rect data-v-528fb24a="" x="10.80556985446715" y="10.59354933848631" width="3.737400414757536" height="0.9572331692129072" rx="1" stroke="none" fill="#ffffee"></rect><rect data-v-528fb24a="" x="21.457029730775314" y="10.59354933848631" width="3.737400414757536" height="0.9572331692129072" rx="1" stroke="none" fill="#ffffee"></rect></g></g><g data-v-528fb24a="" mask="url(#mask__background)"><g data-v-528fb24a="" transform="translate(-1.6151792325637193 -0.8293572380093401) rotate(-8.821179387572355 20.952408952320532 33.03656233544452)"><g data-v-528fb24a="" transform="rotate(180 18 16.788876075076303)"><path data-v-528fb24a="" d="M10.559587329227343 14.914256543956057c1.749239062240493 2.2083969946054554 12.369932928743525 4.571880723118872 14.880825341545314 0" stroke="#ffffee" fill="none" stroke-linecap="round"></path><!----></g><rect data-v-528fb24a="" x="10.80556985446715" y="10.59354933848631" width="3.737400414757536" height="0.9572331692129072" rx="1" stroke="none" fill="#ffffee"></rect><rect data-v-528fb24a="" x="21.457029730775314" y="10.59354933848631" width="3.737400414757536" height="0.9572331692129072" rx="1" stroke="none" fill="#ffffee"></rect></g></g></svg>