<svg data-v-528fb24a="" viewBox="0 0 36 36" fill="none" xmlns="http://www.w3.org/2000/svg" width="256" height="256" id="avatar"><title data-v-528fb24a="">Simple Avatar</title><desc data-v-528fb24a="">CREATED BY XUAN TANG, MORE INFO AT TXSTC55.GITHUB.IO</desc><rect data-v-528fb24a="" width="36" height="36" fill="#408E91"></rect><mask data-v-528fb24a="" id="mask__foreground" maskUnits="userSpaceOnUse" x="0" y="0" width="100" height="100"><rect data-v-528fb24a="" x="0" y="0" width="36" height="36" transform="translate(-2.3916308371891604 -2.555734993179226) rotate(-10.353797638608215 18.739137518994685 11.224194855549342)scale(1.079538027883943)" rx="6.498761085990694" fill="white"></rect><!----></mask><mask data-v-528fb24a="" id="mask__background" maskUnits="userSpaceOnUse" x="0" y="0" width="100" height="100"><rect data-v-528fb24a="" id="test" x="0" y="0" width="36" height="36" fill="white"></rect><rect data-v-528fb24a="" x="3" y="3" width="30" height="30" transform="translate(-2.3916308371891604 -2.555734993179226) rotate(-10.353797638608215 18.739137518994685 11.224194855549342)scale(1.079538027883943)" rx="6.498761085990694" fill="black"></rect><!----></mask><rect data-v-528fb24a="" x="0" y="0" width="36" height="36" fill="#4F200D" mask="url(#mask__foreground)"></rect><g data-v-528fb24a="" mask="url(#mask__foreground)"><g data-v-528fb24a="" transform="translate(2.63765135837295 4.340108227803075) rotate(3.4589731772943146 25.406394833992202 29.627207371190323)"><g data-v-528fb24a="" transform=""><path data-v-528fb24a="" d="M14.765972647420849 14.231546928380606c0.06143890217940129 3.2471895593732323 6.059769451257783 2.892886693745574 6.4680547051583 0" stroke="#ffffee" fill="none" stroke-linecap="round"></path><!----></g><rect data-v-528fb24a="" x="9.781319299132067" y="9.15750782392442" width="2.8212327952865834" height="1.0367238487820063" rx="1" stroke="none" fill="#ffffee"></rect><rect data-v-528fb24a="" x="23.397447905581352" y="9.15750782392442" width="2.8212327952865834" height="1.0367238487820063" rx="1" stroke="none" fill="#ffffee"></rect></g></g><g data-v-528fb24a="" mask="url(#mask__background)"><g data-v-528fb24a="" transform="translate(2.63765135837295 4.340108227803075) rotate(3.4589731772943146 25.406394833992202 29.627207371190323)"><g data-v-528fb24a="" transform=""><path data-v-528fb24a="" d="M14.765972647420849 14.231546928380606c0.06143890217940129 3.2471895593732323 6.059769451257783 2.892886693745574 6.4680547051583 0" stroke="#ffffee" fill="none" stroke-linecap="round"></path><!----></g><rect data-v-528fb24a="" x="9.781319299132067" y="9.15750782392442" width="2.8212327952865834" height="1.0367238487820063" rx="1" stroke="none" fill="#ffffee"></rect><rect data-v-528fb24a="" x="23.397447905581352" y="9.15750782392442" width="2.8212327952865834" height="1.0367238487820063" rx="1" stroke="none" fill="#ffffee"></rect></g></g></svg>