<svg data-v-528fb24a="" viewBox="0 0 36 36" fill="none" xmlns="http://www.w3.org/2000/svg" width="256" height="256" id="avatar"><title data-v-528fb24a="">Simple Avatar</title><desc data-v-528fb24a="">CREATED BY XUAN TANG, MORE INFO AT TXSTC55.GITHUB.IO</desc><rect data-v-528fb24a="" width="36" height="36" fill="#274c77"></rect><mask data-v-528fb24a="" id="mask__foreground" maskUnits="userSpaceOnUse" x="0" y="0" width="100" height="100"><rect data-v-528fb24a="" x="0" y="0" width="36" height="36" transform="translate(4.078286870746117 4.82030672407452) rotate(-5.126145851067347 31.461322477823213 5.277851963451889)scale(1.0824174779756242)" rx="16.52896560437201" fill="white"></rect><!----></mask><mask data-v-528fb24a="" id="mask__background" maskUnits="userSpaceOnUse" x="0" y="0" width="100" height="100"><rect data-v-528fb24a="" id="test" x="0" y="0" width="36" height="36" fill="white"></rect><rect data-v-528fb24a="" x="3" y="3" width="30" height="30" transform="translate(4.078286870746117 4.82030672407452) rotate(-5.126145851067347 31.461322477823213 5.277851963451889)scale(1.0824174779756242)" rx="16.52896560437201" fill="black"></rect><!----></mask><rect data-v-528fb24a="" x="0" y="0" width="36" height="36" fill="#471069" mask="url(#mask__foreground)"></rect><g data-v-528fb24a="" mask="url(#mask__foreground)"><g data-v-528fb24a="" transform="translate(3.3761716440260052 -1.213054586558071) rotate(-3.362703598924015 22.125394228863886 24.830277572768097)"><g data-v-528fb24a="" transform=""><path data-v-528fb24a="" d="M15.314567458311808 20.471606068934182c1.9542728770012658 1.5639257610922337 2.9695498930237143 1.337855533659648 5.370865083376383 0" stroke="#ffffee" fill="none" stroke-linecap="round"></path><!----></g><rect data-v-528fb24a="" x="6.727552693369037" y="9.045438962855185" width="5.12554087441413" height="2.797187685309616" rx="1" stroke="none" fill="#ffffee"></rect><rect data-v-528fb24a="" x="24.14690643221683" y="9.045438962855185" width="5.12554087441413" height="2.797187685309616" rx="1" stroke="none" fill="#ffffee"></rect></g></g><g data-v-528fb24a="" mask="url(#mask__background)"><g data-v-528fb24a="" transform="translate(3.3761716440260052 -1.213054586558071) rotate(-3.362703598924015 22.125394228863886 24.830277572768097)"><g data-v-528fb24a="" transform=""><path data-v-528fb24a="" d="M15.314567458311808 20.471606068934182c1.9542728770012658 1.5639257610922337 2.9695498930237143 1.337855533659648 5.370865083376383 0" stroke="#ffffee" fill="none" stroke-linecap="round"></path><!----></g><rect data-v-528fb24a="" x="6.727552693369037" y="9.045438962855185" width="5.12554087441413" height="2.797187685309616" rx="1" stroke="none" fill="#ffffee"></rect><rect data-v-528fb24a="" x="24.14690643221683" y="9.045438962855185" width="5.12554087441413" height="2.797187685309616" rx="1" stroke="none" fill="#ffffee"></rect></g></g></svg>