<svg data-v-528fb24a="" viewBox="0 0 36 36" fill="none" xmlns="http://www.w3.org/2000/svg" width="256" height="256" id="avatar"><title data-v-528fb24a="">Simple Avatar</title><desc data-v-528fb24a="">CREATED BY XUAN TANG, MORE INFO AT TXSTC55.GITHUB.IO</desc><rect data-v-528fb24a="" width="36" height="36" fill="#19376D"></rect><mask data-v-528fb24a="" id="mask__foreground" maskUnits="userSpaceOnUse" x="0" y="0" width="100" height="100"><rect data-v-528fb24a="" x="0" y="0" width="36" height="36" transform="translate(-2.384811079393121 3.7768355489920076) rotate(4.9457513909484945 25.098407374758303 6.638626147354959)scale(1.1181300649868988)" rx="32.328637519897825" fill="white"></rect><!----></mask><mask data-v-528fb24a="" id="mask__background" maskUnits="userSpaceOnUse" x="0" y="0" width="100" height="100"><rect data-v-528fb24a="" id="test" x="0" y="0" width="36" height="36" fill="white"></rect><rect data-v-528fb24a="" x="3" y="3" width="30" height="30" transform="translate(-2.384811079393121 3.7768355489920076) rotate(4.9457513909484945 25.098407374758303 6.638626147354959)scale(1.1181300649868988)" rx="32.328637519897825" fill="black"></rect><!----></mask><rect data-v-528fb24a="" x="0" y="0" width="36" height="36" fill="#fe7f2d" mask="url(#mask__foreground)"></rect><g data-v-528fb24a="" mask="url(#mask__foreground)"><g data-v-528fb24a="" transform="translate(1.7253285260355966 -2.8170637648462415) rotate(9.822741508921599 33.4985398723459 32.03285171870589)"><g data-v-528fb24a="" transform=""><!----><path data-v-528fb24a="" d="M13.873710462929232,19.9450892533014 a0.693906650220998, 0.7520561284256683 0 0,0 8.435936488092988, 1.2201612302318061" fill="#ffffee"></path></g><rect data-v-528fb24a="" x="10.18600445714456" y="12.382540967802012" width="4.906629870747879" height="2.7482298358970065" rx="1" stroke="none" fill="#ffffee"></rect><rect data-v-528fb24a="" x="20.907365672107563" y="12.382540967802012" width="4.906629870747879" height="2.7482298358970065" rx="1" stroke="none" fill="#ffffee"></rect></g></g><g data-v-528fb24a="" mask="url(#mask__background)"><g data-v-528fb24a="" transform="translate(1.7253285260355966 -2.8170637648462415) rotate(9.822741508921599 33.4985398723459 32.03285171870589)"><g data-v-528fb24a="" transform=""><!----><path data-v-528fb24a="" d="M13.873710462929232,19.9450892533014 a0.693906650220998, 0.7520561284256683 0 0,0 8.435936488092988, 1.2201612302318061" fill="#ffffee"></path></g><rect data-v-528fb24a="" x="10.18600445714456" y="12.382540967802012" width="4.906629870747879" height="2.7482298358970065" rx="1" stroke="none" fill="#ffffee"></rect><rect data-v-528fb24a="" x="20.907365672107563" y="12.382540967802012" width="4.906629870747879" height="2.7482298358970065" rx="1" stroke="none" fill="#ffffee"></rect></g></g></svg>