<svg data-v-528fb24a="" viewBox="0 0 36 36" fill="none" xmlns="http://www.w3.org/2000/svg" width="256" height="256" id="avatar"><title data-v-528fb24a="">Simple Avatar</title><desc data-v-528fb24a="">CREATED BY XUAN TANG, MORE INFO AT TXSTC55.GITHUB.IO</desc><rect data-v-528fb24a="" width="36" height="36" fill="#19376D"></rect><mask data-v-528fb24a="" id="mask__foreground" maskUnits="userSpaceOnUse" x="0" y="0" width="100" height="100"><rect data-v-528fb24a="" x="0" y="0" width="36" height="36" transform="translate(-2.620336412108575 1.551105091566627) rotate(17.782895165818445 3.7216199272463095 11.5945360812272)scale(1.166047492302597)" rx="16.19547998028083" fill="white"></rect><!----></mask><mask data-v-528fb24a="" id="mask__background" maskUnits="userSpaceOnUse" x="0" y="0" width="100" height="100"><rect data-v-528fb24a="" id="test" x="0" y="0" width="36" height="36" fill="white"></rect><rect data-v-528fb24a="" x="3" y="3" width="30" height="30" transform="translate(-2.620336412108575 1.551105091566627) rotate(17.782895165818445 3.7216199272463095 11.5945360812272)scale(1.166047492302597)" rx="16.19547998028083" fill="black"></rect><!----></mask><rect data-v-528fb24a="" x="0" y="0" width="36" height="36" fill="#031927" mask="url(#mask__foreground)"></rect><g data-v-528fb24a="" mask="url(#mask__foreground)"><g data-v-528fb24a="" transform="translate(2.0849042852306727 -0.11602234759138952) rotate(-7.8561214808209945 23.156178154283854 32.828398353211156)"><g data-v-528fb24a="" transform="rotate(180 18 23.133124740317854)"><!----><path data-v-528fb24a="" d="M12.960565683047157,22.048809383723487 a0.5609429305491108, 0.5104469118953103 0 0,0 8.236683280400582, 1.046744853286301" fill="#ffffee"></path></g><rect data-v-528fb24a="" x="8.98260783973026" y="16.193178358735405" width="3.0166041179942455" height="1.178577401076927" rx="1" stroke="none" fill="#ffffee"></rect><rect data-v-528fb24a="" x="24.000788042275495" y="16.193178358735405" width="3.0166041179942455" height="1.178577401076927" rx="1" stroke="none" fill="#ffffee"></rect></g></g><g data-v-528fb24a="" mask="url(#mask__background)"><g data-v-528fb24a="" transform="translate(2.0849042852306727 -0.11602234759138952) rotate(-7.8561214808209945 23.156178154283854 32.828398353211156)"><g data-v-528fb24a="" transform="rotate(180 18 23.133124740317854)"><!----><path data-v-528fb24a="" d="M12.960565683047157,22.048809383723487 a0.5609429305491108, 0.5104469118953103 0 0,0 8.236683280400582, 1.046744853286301" fill="#ffffee"></path></g><rect data-v-528fb24a="" x="8.98260783973026" y="16.193178358735405" width="3.0166041179942455" height="1.178577401076927" rx="1" stroke="none" fill="#ffffee"></rect><rect data-v-528fb24a="" x="24.000788042275495" y="16.193178358735405" width="3.0166041179942455" height="1.178577401076927" rx="1" stroke="none" fill="#ffffee"></rect></g></g></svg>