<svg data-v-528fb24a="" viewBox="0 0 36 36" fill="none" xmlns="http://www.w3.org/2000/svg" width="256" height="256" id="avatar"><title data-v-528fb24a="">Simple Avatar</title><desc data-v-528fb24a="">CREATED BY XUAN TANG, MORE INFO AT TXSTC55.GITHUB.IO</desc><rect data-v-528fb24a="" width="36" height="36" fill="#464249"></rect><mask data-v-528fb24a="" id="mask__foreground" maskUnits="userSpaceOnUse" x="0" y="0" width="100" height="100"><!----><path data-v-528fb24a="" stroke-width="9.479891383857952" stroke-linecap="round" stroke-linejoin="round" stroke="white" fill="white" d="M 18,7.75128869404 32,32 4,32 z" transform="translate(1.4792191734753812 -5.055987196516886) rotate(-28.466723340435387 18 18)"></path></mask><mask data-v-528fb24a="" id="mask__background" maskUnits="userSpaceOnUse" x="0" y="0" width="100" height="100"><rect data-v-528fb24a="" id="test" x="0" y="0" width="36" height="36" fill="white"></rect><!----><path data-v-528fb24a="" stroke-width="9.479891383857952" stroke-linecap="round" stroke-linejoin="round" stroke="black" fill="black" d="M 18,7.75128869404 32,32 4,32 z" transform="translate(1.4792191734753812 -5.055987196516886) rotate(-28.466723340435387 18 18)"></path></mask><rect data-v-528fb24a="" x="0" y="0" width="36" height="36" fill="#FF8400" mask="url(#mask__foreground)"></rect><g data-v-528fb24a="" mask="url(#mask__foreground)"><g data-v-528fb24a="" transform="translate(3.3434641962819427 -1.0044995446965332) rotate(-0.17644928408954286 25.646577642188017 18.90790654179101)"><g data-v-528fb24a="" transform=""><!----><path data-v-528fb24a="" d="M12.117029476982518,21.829708565881692 a0.6191741213206062, 0.5334321731496457 0 0,0 11.012033115165108, -1.2851091568355881" fill="#ffffee"></path></g><rect data-v-528fb24a="" x="6.670701891193415" y="11.390544179772574" width="4.5470067420897085" height="0.8569361091299578" rx="1" stroke="none" fill="#ffffee"></rect><rect data-v-528fb24a="" x="24.782291366716876" y="11.390544179772574" width="4.5470067420897085" height="0.8569361091299578" rx="1" stroke="none" fill="#ffffee"></rect></g></g><g data-v-528fb24a="" mask="url(#mask__background)"><g data-v-528fb24a="" transform="translate(3.3434641962819427 -1.0044995446965332) rotate(-0.17644928408954286 25.646577642188017 18.90790654179101)"><g data-v-528fb24a="" transform=""><!----><path data-v-528fb24a="" d="M12.117029476982518,21.829708565881692 a0.6191741213206062, 0.5334321731496457 0 0,0 11.012033115165108, -1.2851091568355881" fill="#ffffee"></path></g><rect data-v-528fb24a="" x="6.670701891193415" y="11.390544179772574" width="4.5470067420897085" height="0.8569361091299578" rx="1" stroke="none" fill="#ffffee"></rect><rect data-v-528fb24a="" x="24.782291366716876" y="11.390544179772574" width="4.5470067420897085" height="0.8569361091299578" rx="1" stroke="none" fill="#ffffee"></rect></g></g></svg>