<svg data-v-528fb24a="" viewBox="0 0 36 36" fill="none" xmlns="http://www.w3.org/2000/svg" width="256" height="256" id="avatar"><title data-v-528fb24a="">Simple Avatar</title><desc data-v-528fb24a="">CREATED BY XUAN TANG, MORE INFO AT TXSTC55.GITHUB.IO</desc><rect data-v-528fb24a="" width="36" height="36" fill="#FFF2CC"></rect><mask data-v-528fb24a="" id="mask__foreground" maskUnits="userSpaceOnUse" x="0" y="0" width="100" height="100"><rect data-v-528fb24a="" x="0" y="0" width="36" height="36" transform="translate(0.44039834099816666 4.1450323332339085) rotate(8.322815077770738 6.117528489984537 13.19712393730671)scale(1.0621708685343523)" rx="30.125704814563335" fill="white"></rect><!----></mask><mask data-v-528fb24a="" id="mask__background" maskUnits="userSpaceOnUse" x="0" y="0" width="100" height="100"><rect data-v-528fb24a="" id="test" x="0" y="0" width="36" height="36" fill="white"></rect><rect data-v-528fb24a="" x="3" y="3" width="30" height="30" transform="translate(0.44039834099816666 4.1450323332339085) rotate(8.322815077770738 6.117528489984537 13.19712393730671)scale(1.0621708685343523)" rx="30.125704814563335" fill="black"></rect><!----></mask><rect data-v-528fb24a="" x="0" y="0" width="36" height="36" fill="#F6F1E9" mask="url(#mask__foreground)"></rect><g data-v-528fb24a="" mask="url(#mask__foreground)"><g data-v-528fb24a="" transform="translate(-4.901693046179605 3.0107817311133083) rotate(0.6885177574968218 22.857201583304853 30.89720781143667)"><g data-v-528fb24a="" transform=""><!----><path data-v-528fb24a="" d="M14.378570893997281,21.309883453801916 a0.6920289330209657, 0.5906007681768062 0 0,0 6.738720664895399, -0.7177562934557664" fill="hsl(45, 66.66666666666667%, 100%)"></path></g><rect data-v-528fb24a="" x="5.655073498471743" y="9.07004250331941" width="5.687756045982325" height="1.1786026346232426" rx="1" stroke="none" fill="hsl(45, 66.66666666666667%, 100%)"></rect><rect data-v-528fb24a="" x="24.65717045554593" y="9.07004250331941" width="5.687756045982325" height="1.1786026346232426" rx="1" stroke="none" fill="hsl(45, 66.66666666666667%, 100%)"></rect></g></g><g data-v-528fb24a="" mask="url(#mask__background)"><g data-v-528fb24a="" transform="translate(-4.901693046179605 3.0107817311133083) rotate(0.6885177574968218 22.857201583304853 30.89720781143667)"><g data-v-528fb24a="" transform=""><!----><path data-v-528fb24a="" d="M14.378570893997281,21.309883453801916 a0.6920289330209657, 0.5906007681768062 0 0,0 6.738720664895399, -0.7177562934557664" fill="hsl(37, 27.933333333333334%, 100%)"></path></g><rect data-v-528fb24a="" x="5.655073498471743" y="9.07004250331941" width="5.687756045982325" height="1.1786026346232426" rx="1" stroke="none" fill="hsl(37, 27.933333333333334%, 100%)"></rect><rect data-v-528fb24a="" x="24.65717045554593" y="9.07004250331941" width="5.687756045982325" height="1.1786026346232426" rx="1" stroke="none" fill="hsl(37, 27.933333333333334%, 100%)"></rect></g></g></svg>