<svg data-v-528fb24a="" viewBox="0 0 36 36" fill="none" xmlns="http://www.w3.org/2000/svg" width="256" height="256" id="avatar"><title data-v-528fb24a="">Simple Avatar</title><desc data-v-528fb24a="">CREATED BY XUAN TANG, MORE INFO AT TXSTC55.GITHUB.IO</desc><rect data-v-528fb24a="" width="36" height="36" fill="#4F200D"></rect><mask data-v-528fb24a="" id="mask__foreground" maskUnits="userSpaceOnUse" x="0" y="0" width="100" height="100"><rect data-v-528fb24a="" x="0" y="0" width="36" height="36" transform="translate(2.8880867012075484 1.776119857683998) rotate(1.9042916729382497 12.407068380083253 3.7116872109036656)scale(1.1887445140431383)" rx="26.58099125829483" fill="white"></rect><!----></mask><mask data-v-528fb24a="" id="mask__background" maskUnits="userSpaceOnUse" x="0" y="0" width="100" height="100"><rect data-v-528fb24a="" id="test" x="0" y="0" width="36" height="36" fill="white"></rect><rect data-v-528fb24a="" x="3" y="3" width="30" height="30" transform="translate(2.8880867012075484 1.776119857683998) rotate(1.9042916729382497 12.407068380083253 3.7116872109036656)scale(1.1887445140431383)" rx="26.58099125829483" fill="black"></rect><!----></mask><rect data-v-528fb24a="" x="0" y="0" width="36" height="36" fill="#cc2936" mask="url(#mask__foreground)"></rect><g data-v-528fb24a="" mask="url(#mask__foreground)"><g data-v-528fb24a="" transform="translate(3.9782985710989855 3.940613160678195) rotate(-1.2249030040716669 29.701639363396502 21.23832646631889)"><g data-v-528fb24a="" transform="rotate(180 18 24.258460822230262)"><path data-v-528fb24a="" d="M9.203075858125965 22.884499075442086c0.7479234935763488 2.59824910387199 15.658968659893794 2.4289108665702805 17.59384828374807 0" stroke="#ffffee" fill="none" stroke-linecap="round"></path><!----></g><rect data-v-528fb24a="" x="6.6487114118390895" y="14.469957583462918" width="4.881689280440019" height="2.832205527726953" rx="1" stroke="none" fill="#ffffee"></rect><rect data-v-528fb24a="" x="24.46959930772089" y="14.469957583462918" width="4.881689280440019" height="2.832205527726953" rx="1" stroke="none" fill="#ffffee"></rect></g></g><g data-v-528fb24a="" mask="url(#mask__background)"><g data-v-528fb24a="" transform="translate(3.9782985710989855 3.940613160678195) rotate(-1.2249030040716669 29.701639363396502 21.23832646631889)"><g data-v-528fb24a="" transform="rotate(180 18 24.258460822230262)"><path data-v-528fb24a="" d="M9.203075858125965 22.884499075442086c0.7479234935763488 2.59824910387199 15.658968659893794 2.4289108665702805 17.59384828374807 0" stroke="#ffffee" fill="none" stroke-linecap="round"></path><!----></g><rect data-v-528fb24a="" x="6.6487114118390895" y="14.469957583462918" width="4.881689280440019" height="2.832205527726953" rx="1" stroke="none" fill="#ffffee"></rect><rect data-v-528fb24a="" x="24.46959930772089" y="14.469957583462918" width="4.881689280440019" height="2.832205527726953" rx="1" stroke="none" fill="#ffffee"></rect></g></g></svg>