<svg data-v-528fb24a="" viewBox="0 0 36 36" fill="none" xmlns="http://www.w3.org/2000/svg" width="256" height="256" id="avatar"><title data-v-528fb24a="">Simple Avatar</title><desc data-v-528fb24a="">CREATED BY XUAN TANG, MORE INFO AT TXSTC55.GITHUB.IO</desc><rect data-v-528fb24a="" width="36" height="36" fill="#30c5d2"></rect><mask data-v-528fb24a="" id="mask__foreground" maskUnits="userSpaceOnUse" x="0" y="0" width="100" height="100"><rect data-v-528fb24a="" x="0" y="0" width="36" height="36" transform="translate(-4.220353220005202 -0.5955362565724602) rotate(-14.838775354692535 28.775298848844205 33.22079375202802)scale(1.1650163162135223)" rx="4.729382437758915" fill="white"></rect><!----></mask><mask data-v-528fb24a="" id="mask__background" maskUnits="userSpaceOnUse" x="0" y="0" width="100" height="100"><rect data-v-528fb24a="" id="test" x="0" y="0" width="36" height="36" fill="white"></rect><rect data-v-528fb24a="" x="3" y="3" width="30" height="30" transform="translate(-4.220353220005202 -0.5955362565724602) rotate(-14.838775354692535 28.775298848844205 33.22079375202802)scale(1.1650163162135223)" rx="4.729382437758915" fill="black"></rect><!----></mask><rect data-v-528fb24a="" x="0" y="0" width="36" height="36" fill="#464249" mask="url(#mask__foreground)"></rect><g data-v-528fb24a="" mask="url(#mask__foreground)"><g data-v-528fb24a="" transform="translate(-0.8073934424504898 -1.566606646899762) rotate(0.7110946408555918 23.21430998629794 31.632799410594174)"><g data-v-528fb24a="" transform=""><!----><path data-v-528fb24a="" d="M10.458255437203519,21.393450767553887 a0.5500391479424774, 0.5591008690608914 0 0,0 16.976824817848247, 0.29942272357364574" fill="#ffffee"></path></g><rect data-v-528fb24a="" x="11.197320337757175" y="14.136379992982963" width="3.9943830809542273" height="2.7218767581915166" rx="1" stroke="none" fill="#ffffee"></rect><rect data-v-528fb24a="" x="20.808296581288598" y="14.136379992982963" width="3.9943830809542273" height="2.7218767581915166" rx="1" stroke="none" fill="#ffffee"></rect></g></g><g data-v-528fb24a="" mask="url(#mask__background)"><g data-v-528fb24a="" transform="translate(-0.8073934424504898 -1.566606646899762) rotate(0.7110946408555918 23.21430998629794 31.632799410594174)"><g data-v-528fb24a="" transform=""><!----><path data-v-528fb24a="" d="M10.458255437203519,21.393450767553887 a0.5500391479424774, 0.5591008690608914 0 0,0 16.976824817848247, 0.29942272357364574" fill="#ffffee"></path></g><rect data-v-528fb24a="" x="11.197320337757175" y="14.136379992982963" width="3.9943830809542273" height="2.7218767581915166" rx="1" stroke="none" fill="#ffffee"></rect><rect data-v-528fb24a="" x="20.808296581288598" y="14.136379992982963" width="3.9943830809542273" height="2.7218767581915166" rx="1" stroke="none" fill="#ffffee"></rect></g></g></svg>