<svg data-v-528fb24a="" viewBox="0 0 36 36" fill="none" xmlns="http://www.w3.org/2000/svg" width="256" height="256" id="avatar"><title data-v-528fb24a="">Simple Avatar</title><desc data-v-528fb24a="">CREATED BY XUAN TANG, MORE INFO AT TXSTC55.GITHUB.IO</desc><rect data-v-528fb24a="" width="36" height="36" fill="#031927"></rect><mask data-v-528fb24a="" id="mask__foreground" maskUnits="userSpaceOnUse" x="0" y="0" width="100" height="100"><rect data-v-528fb24a="" x="0" y="0" width="36" height="36" transform="translate(-3.1262868491053486 0.5810673380735061) rotate(-6.657505250513092 12.107768525449355 12.615524860161234)scale(1.1677997076319198)" rx="32.95091785341955" fill="white"></rect><!----></mask><mask data-v-528fb24a="" id="mask__background" maskUnits="userSpaceOnUse" x="0" y="0" width="100" height="100"><rect data-v-528fb24a="" id="test" x="0" y="0" width="36" height="36" fill="white"></rect><rect data-v-528fb24a="" x="3" y="3" width="30" height="30" transform="translate(-3.1262868491053486 0.5810673380735061) rotate(-6.657505250513092 12.107768525449355 12.615524860161234)scale(1.1677997076319198)" rx="32.95091785341955" fill="black"></rect><!----></mask><rect data-v-528fb24a="" x="0" y="0" width="36" height="36" fill="#023d67" mask="url(#mask__foreground)"></rect><g data-v-528fb24a="" mask="url(#mask__foreground)"><g data-v-528fb24a="" transform="translate(-1.5672976217375845 -0.8604836792772819) rotate(-3.9796746979372832 24.69399651315535 33.287657534786646)"><g data-v-528fb24a="" transform=""><!----><path data-v-528fb24a="" d="M10.114547154394995,23.005142569422713 a0.5400147848080995, 0.7365081367610967 0 0,0 16.1488086431413, -0.7775031576498359" fill="#ffffee"></path></g><rect data-v-528fb24a="" x="9.56129915338989" y="16.718612168938254" width="3.8720561048993645" height="1.275070567947636" rx="1" stroke="none" fill="#ffffee"></rect><rect data-v-528fb24a="" x="22.566644741710746" y="16.718612168938254" width="3.8720561048993645" height="1.275070567947636" rx="1" stroke="none" fill="#ffffee"></rect></g></g><g data-v-528fb24a="" mask="url(#mask__background)"><g data-v-528fb24a="" transform="translate(-1.5672976217375845 -0.8604836792772819) rotate(-3.9796746979372832 24.69399651315535 33.287657534786646)"><g data-v-528fb24a="" transform=""><!----><path data-v-528fb24a="" d="M10.114547154394995,23.005142569422713 a0.5400147848080995, 0.7365081367610967 0 0,0 16.1488086431413, -0.7775031576498359" fill="#ffffee"></path></g><rect data-v-528fb24a="" x="9.56129915338989" y="16.718612168938254" width="3.8720561048993645" height="1.275070567947636" rx="1" stroke="none" fill="#ffffee"></rect><rect data-v-528fb24a="" x="22.566644741710746" y="16.718612168938254" width="3.8720561048993645" height="1.275070567947636" rx="1" stroke="none" fill="#ffffee"></rect></g></g></svg>