<svg data-v-528fb24a="" viewBox="0 0 36 36" fill="none" xmlns="http://www.w3.org/2000/svg" width="256" height="256" id="avatar"><title data-v-528fb24a="">Simple Avatar</title><desc data-v-528fb24a="">CREATED BY XUAN TANG, MORE INFO AT TXSTC55.GITHUB.IO</desc><rect data-v-528fb24a="" width="36" height="36" fill="#4F200D"></rect><mask data-v-528fb24a="" id="mask__foreground" maskUnits="userSpaceOnUse" x="0" y="0" width="100" height="100"><rect data-v-528fb24a="" x="0" y="0" width="36" height="36" transform="translate(3.005963192853846 -2.0140952048105176) rotate(6.918140291628436 12.038692658950588 12.509877045504787)scale(1.0812055687068014)" rx="28.37777704007975" fill="white"></rect><!----></mask><mask data-v-528fb24a="" id="mask__background" maskUnits="userSpaceOnUse" x="0" y="0" width="100" height="100"><rect data-v-528fb24a="" id="test" x="0" y="0" width="36" height="36" fill="white"></rect><rect data-v-528fb24a="" x="3" y="3" width="30" height="30" transform="translate(3.005963192853846 -2.0140952048105176) rotate(6.918140291628436 12.038692658950588 12.509877045504787)scale(1.0812055687068014)" rx="28.37777704007975" fill="black"></rect><!----></mask><rect data-v-528fb24a="" x="0" y="0" width="36" height="36" fill="#471069" mask="url(#mask__foreground)"></rect><g data-v-528fb24a="" mask="url(#mask__foreground)"><g data-v-528fb24a="" transform="translate(3.9011417885647006 -4.396875912655034) rotate(-4.543100209285371 19.61458331285553 20.141057901330953)"><g data-v-528fb24a="" transform=""><!----><path data-v-528fb24a="" d="M11.10974896537513,20.207688950671844 a0.5002113591473475, 0.61179329765848 0 0,0 15.279798942375217, 1.4613962628910055" fill="#ffffee"></path></g><rect data-v-528fb24a="" x="9.117578005404932" y="10.452549817474045" width="4.3220518119520825" height="2.631116226956448" rx="1" stroke="none" fill="#ffffee"></rect><rect data-v-528fb24a="" x="22.560370182642984" y="10.452549817474045" width="4.3220518119520825" height="2.631116226956448" rx="1" stroke="none" fill="#ffffee"></rect></g></g><g data-v-528fb24a="" mask="url(#mask__background)"><g data-v-528fb24a="" transform="translate(3.9011417885647006 -4.396875912655034) rotate(-4.543100209285371 19.61458331285553 20.141057901330953)"><g data-v-528fb24a="" transform=""><!----><path data-v-528fb24a="" d="M11.10974896537513,20.207688950671844 a0.5002113591473475, 0.61179329765848 0 0,0 15.279798942375217, 1.4613962628910055" fill="#ffffee"></path></g><rect data-v-528fb24a="" x="9.117578005404932" y="10.452549817474045" width="4.3220518119520825" height="2.631116226956448" rx="1" stroke="none" fill="#ffffee"></rect><rect data-v-528fb24a="" x="22.560370182642984" y="10.452549817474045" width="4.3220518119520825" height="2.631116226956448" rx="1" stroke="none" fill="#ffffee"></rect></g></g></svg>