<svg data-v-528fb24a="" viewBox="0 0 36 36" fill="none" xmlns="http://www.w3.org/2000/svg" width="256" height="256" id="avatar"><title data-v-528fb24a="">Simple Avatar</title><desc data-v-528fb24a="">CREATED BY XUAN TANG, MORE INFO AT TXSTC55.GITHUB.IO</desc><rect data-v-528fb24a="" width="36" height="36" fill="#cc2936"></rect><mask data-v-528fb24a="" id="mask__foreground" maskUnits="userSpaceOnUse" x="0" y="0" width="100" height="100"><rect data-v-528fb24a="" x="0" y="0" width="36" height="36" transform="translate(1.4968027294653226 -0.0294760645995229) rotate(-18.917313227279344 18.21165405754021 17.365749770071066)scale(1.1399396249919789)" rx="34.73673339972334" fill="white"></rect><!----></mask><mask data-v-528fb24a="" id="mask__background" maskUnits="userSpaceOnUse" x="0" y="0" width="100" height="100"><rect data-v-528fb24a="" id="test" x="0" y="0" width="36" height="36" fill="white"></rect><rect data-v-528fb24a="" x="3" y="3" width="30" height="30" transform="translate(1.4968027294653226 -0.0294760645995229) rotate(-18.917313227279344 18.21165405754021 17.365749770071066)scale(1.1399396249919789)" rx="34.73673339972334" fill="black"></rect><!----></mask><rect data-v-528fb24a="" x="0" y="0" width="36" height="36" fill="#023d67" mask="url(#mask__foreground)"></rect><g data-v-528fb24a="" mask="url(#mask__foreground)"><g data-v-528fb24a="" transform="translate(4.572325504120936 -1.2072417621119413) rotate(6.573761107343575 25.780418567782924 22.450000453865307)"><g data-v-528fb24a="" transform=""><!----><path data-v-528fb24a="" d="M8.648031711602204,18.953199049888006 a0.7694750912837713, 0.7261059899097002 0 0,0 17.16467474265609, -0.11442385887208806" fill="#ffffee"></path></g><rect data-v-528fb24a="" x="10.26902082202601" y="11.209568645166271" width="3.2100671127493605" height="1.674615012493171" rx="1" stroke="none" fill="#ffffee"></rect><rect data-v-528fb24a="" x="22.52091206522463" y="11.209568645166271" width="3.2100671127493605" height="1.674615012493171" rx="1" stroke="none" fill="#ffffee"></rect></g></g><g data-v-528fb24a="" mask="url(#mask__background)"><g data-v-528fb24a="" transform="translate(4.572325504120936 -1.2072417621119413) rotate(6.573761107343575 25.780418567782924 22.450000453865307)"><g data-v-528fb24a="" transform=""><!----><path data-v-528fb24a="" d="M8.648031711602204,18.953199049888006 a0.7694750912837713, 0.7261059899097002 0 0,0 17.16467474265609, -0.11442385887208806" fill="#ffffee"></path></g><rect data-v-528fb24a="" x="10.26902082202601" y="11.209568645166271" width="3.2100671127493605" height="1.674615012493171" rx="1" stroke="none" fill="#ffffee"></rect><rect data-v-528fb24a="" x="22.52091206522463" y="11.209568645166271" width="3.2100671127493605" height="1.674615012493171" rx="1" stroke="none" fill="#ffffee"></rect></g></g></svg>