<svg data-v-528fb24a="" viewBox="0 0 36 36" fill="none" xmlns="http://www.w3.org/2000/svg" width="256" height="256" id="avatar"><title data-v-528fb24a="">Simple Avatar</title><desc data-v-528fb24a="">CREATED BY XUAN TANG, MORE INFO AT TXSTC55.GITHUB.IO</desc><rect data-v-528fb24a="" width="36" height="36" fill="#FFC1CF"></rect><mask data-v-528fb24a="" id="mask__foreground" maskUnits="userSpaceOnUse" x="0" y="0" width="100" height="100"><rect data-v-528fb24a="" x="0" y="0" width="36" height="36" transform="translate(-1.8008461296818057 -3.734226931452651) rotate(-11.913136201684704 30.854260473073875 11.201478420753517)scale(1.0132133606960787)" rx="31.13720521835669" fill="white"></rect><!----></mask><mask data-v-528fb24a="" id="mask__background" maskUnits="userSpaceOnUse" x="0" y="0" width="100" height="100"><rect data-v-528fb24a="" id="test" x="0" y="0" width="36" height="36" fill="white"></rect><rect data-v-528fb24a="" x="3" y="3" width="30" height="30" transform="translate(-1.8008461296818057 -3.734226931452651) rotate(-11.913136201684704 30.854260473073875 11.201478420753517)scale(1.0132133606960787)" rx="31.13720521835669" fill="black"></rect><!----></mask><rect data-v-528fb24a="" x="0" y="0" width="36" height="36" fill="#e7ecef" mask="url(#mask__foreground)"></rect><g data-v-528fb24a="" mask="url(#mask__foreground)"><g data-v-528fb24a="" transform="translate(-4.289735018430775 -2.703774494333544) rotate(6.169428583877796 21.5258276377996 28.31233069509501)"><g data-v-528fb24a="" transform=""><path data-v-528fb24a="" d="M15.020837731838256 24.16873831084018c1.071337077671899 4.470137370218417 3.882849864514898 3.093220282400696 5.95832453632349 0" stroke="hsl(346, 66.66666666666667%, 100%)" fill="none" stroke-linecap="round"></path><!----></g><rect data-v-528fb24a="" x="11.937978818839007" y="14.713697029040436" width="3.607462510198147" height="2.9877797306941334" rx="1" stroke="none" fill="hsl(346, 66.66666666666667%, 100%)"></rect><rect data-v-528fb24a="" x="20.454558670962847" y="14.713697029040436" width="3.607462510198147" height="2.9877797306941334" rx="1" stroke="none" fill="hsl(346, 66.66666666666667%, 100%)"></rect></g></g><g data-v-528fb24a="" mask="url(#mask__background)"><g data-v-528fb24a="" transform="translate(-4.289735018430775 -2.703774494333544) rotate(6.169428583877796 21.5258276377996 28.31233069509501)"><g data-v-528fb24a="" transform=""><path data-v-528fb24a="" d="M15.020837731838256 24.16873831084018c1.071337077671899 4.470137370218417 3.882849864514898 3.093220282400696 5.95832453632349 0" stroke="hsl(202, 13.333333333333334%, 100%)" fill="none" stroke-linecap="round"></path><!----></g><rect data-v-528fb24a="" x="11.937978818839007" y="14.713697029040436" width="3.607462510198147" height="2.9877797306941334" rx="1" stroke="none" fill="hsl(202, 13.333333333333334%, 100%)"></rect><rect data-v-528fb24a="" x="20.454558670962847" y="14.713697029040436" width="3.607462510198147" height="2.9877797306941334" rx="1" stroke="none" fill="hsl(202, 13.333333333333334%, 100%)"></rect></g></g></svg>