<svg data-v-528fb24a="" viewBox="0 0 36 36" fill="none" xmlns="http://www.w3.org/2000/svg" width="256" height="256" id="avatar"><title data-v-528fb24a="">Simple Avatar</title><desc data-v-528fb24a="">CREATED BY XUAN TANG, MORE INFO AT TXSTC55.GITHUB.IO</desc><rect data-v-528fb24a="" width="36" height="36" fill="#30c5d2"></rect><mask data-v-528fb24a="" id="mask__foreground" maskUnits="userSpaceOnUse" x="0" y="0" width="100" height="100"><rect data-v-528fb24a="" x="0" y="0" width="36" height="36" transform="translate(0.33518932966361703 -4.62063521905635) rotate(6.455212392829381 8.115719027495437 9.17101687258203)scale(1.177900662572628)" rx="22.1855362054497" fill="white"></rect><!----></mask><mask data-v-528fb24a="" id="mask__background" maskUnits="userSpaceOnUse" x="0" y="0" width="100" height="100"><rect data-v-528fb24a="" id="test" x="0" y="0" width="36" height="36" fill="white"></rect><rect data-v-528fb24a="" x="3" y="3" width="30" height="30" transform="translate(0.33518932966361703 -4.62063521905635) rotate(6.455212392829381 8.115719027495437 9.17101687258203)scale(1.177900662572628)" rx="22.1855362054497" fill="black"></rect><!----></mask><rect data-v-528fb24a="" x="0" y="0" width="36" height="36" fill="#0b3866" mask="url(#mask__foreground)"></rect><g data-v-528fb24a="" mask="url(#mask__foreground)"><g data-v-528fb24a="" transform="translate(1.8136700967356596 -0.5131061553915517) rotate(-8.344779521107446 25.458461639412334 25.98803699377249)"><g data-v-528fb24a="" transform=""><!----><path data-v-528fb24a="" d="M9.873663166147827,21.31590629613411 a0.7821915465062811, 0.6522585738856069 0 0,0 16.48570756353046, 0.7439721939525503" fill="#ffffee"></path></g><rect data-v-528fb24a="" x="12.281395853810654" y="15.031945018079213" width="2.509509880026365" height="0.9689701690359993" rx="1" stroke="none" fill="#ffffee"></rect><rect data-v-528fb24a="" x="21.20909426616298" y="15.031945018079213" width="2.509509880026365" height="0.9689701690359993" rx="1" stroke="none" fill="#ffffee"></rect></g></g><g data-v-528fb24a="" mask="url(#mask__background)"><g data-v-528fb24a="" transform="translate(1.8136700967356596 -0.5131061553915517) rotate(-8.344779521107446 25.458461639412334 25.98803699377249)"><g data-v-528fb24a="" transform=""><!----><path data-v-528fb24a="" d="M9.873663166147827,21.31590629613411 a0.7821915465062811, 0.6522585738856069 0 0,0 16.48570756353046, 0.7439721939525503" fill="#ffffee"></path></g><rect data-v-528fb24a="" x="12.281395853810654" y="15.031945018079213" width="2.509509880026365" height="0.9689701690359993" rx="1" stroke="none" fill="#ffffee"></rect><rect data-v-528fb24a="" x="21.20909426616298" y="15.031945018079213" width="2.509509880026365" height="0.9689701690359993" rx="1" stroke="none" fill="#ffffee"></rect></g></g></svg>