<svg data-v-528fb24a="" viewBox="0 0 36 36" fill="none" xmlns="http://www.w3.org/2000/svg" width="256" height="256" id="avatar"><title data-v-528fb24a="">Simple Avatar</title><desc data-v-528fb24a="">CREATED BY XUAN TANG, MORE INFO AT TXSTC55.GITHUB.IO</desc><rect data-v-528fb24a="" width="36" height="36" fill="#245953"></rect><mask data-v-528fb24a="" id="mask__foreground" maskUnits="userSpaceOnUse" x="0" y="0" width="100" height="100"><!----><path data-v-528fb24a="" stroke-width="9.382024891804335" stroke-linecap="round" stroke-linejoin="round" stroke="white" fill="white" d="M 18,7.75128869404 32,32 4,32 z" transform="translate(-4.449884683867875 -7.408477498634678) rotate(19.73599354387558 18 18)"></path></mask><mask data-v-528fb24a="" id="mask__background" maskUnits="userSpaceOnUse" x="0" y="0" width="100" height="100"><rect data-v-528fb24a="" id="test" x="0" y="0" width="36" height="36" fill="white"></rect><!----><path data-v-528fb24a="" stroke-width="9.382024891804335" stroke-linecap="round" stroke-linejoin="round" stroke="black" fill="black" d="M 18,7.75128869404 32,32 4,32 z" transform="translate(-4.449884683867875 -7.408477498634678) rotate(19.73599354387558 18 18)"></path></mask><rect data-v-528fb24a="" x="0" y="0" width="36" height="36" fill="#FF8400" mask="url(#mask__foreground)"></rect><g data-v-528fb24a="" mask="url(#mask__foreground)"><g data-v-528fb24a="" transform="translate(2.4064903346327338 -1.8351802571287412) rotate(-4.947849100378843 18.985589769661605 32.65757193193063)"><g data-v-528fb24a="" transform="rotate(180 18 23.95050139914052)"><!----><path data-v-528fb24a="" d="M9.513616656833564,23.139641043711634 a0.5310731680784538, 0.5208462598601733 0 0,0 17.29351427453447, 0.5595743747008664" fill="#ffffee"></path></g><rect data-v-528fb24a="" x="8.922485942837344" y="12.51400749328879" width="2.081116880932213" height="1.4150302533940058" rx="1" stroke="none" fill="#ffffee"></rect><rect data-v-528fb24a="" x="24.99639717623044" y="12.51400749328879" width="2.081116880932213" height="1.4150302533940058" rx="1" stroke="none" fill="#ffffee"></rect></g></g><g data-v-528fb24a="" mask="url(#mask__background)"><g data-v-528fb24a="" transform="translate(2.4064903346327338 -1.8351802571287412) rotate(-4.947849100378843 18.985589769661605 32.65757193193063)"><g data-v-528fb24a="" transform="rotate(180 18 23.95050139914052)"><!----><path data-v-528fb24a="" d="M9.513616656833564,23.139641043711634 a0.5310731680784538, 0.5208462598601733 0 0,0 17.29351427453447, 0.5595743747008664" fill="#ffffee"></path></g><rect data-v-528fb24a="" x="8.922485942837344" y="12.51400749328879" width="2.081116880932213" height="1.4150302533940058" rx="1" stroke="none" fill="#ffffee"></rect><rect data-v-528fb24a="" x="24.99639717623044" y="12.51400749328879" width="2.081116880932213" height="1.4150302533940058" rx="1" stroke="none" fill="#ffffee"></rect></g></g></svg>