<svg data-v-528fb24a="" viewBox="0 0 36 36" fill="none" xmlns="http://www.w3.org/2000/svg" width="256" height="256" id="avatar"><title data-v-528fb24a="">Simple Avatar</title><desc data-v-528fb24a="">CREATED BY XUAN TANG, MORE INFO AT TXSTC55.GITHUB.IO</desc><rect data-v-528fb24a="" width="36" height="36" fill="#000000"></rect><mask data-v-528fb24a="" id="mask__foreground" maskUnits="userSpaceOnUse" x="0" y="0" width="100" height="100"><rect data-v-528fb24a="" x="0" y="0" width="36" height="36" transform="translate(3.628489524717267 -1.12410945512748) rotate(-16.91765940974431 8.923169999727605 3.6299824082384404)scale(1.1269873980604255)" rx="8.362036134944859" fill="white"></rect><!----></mask><mask data-v-528fb24a="" id="mask__background" maskUnits="userSpaceOnUse" x="0" y="0" width="100" height="100"><rect data-v-528fb24a="" id="test" x="0" y="0" width="36" height="36" fill="white"></rect><rect data-v-528fb24a="" x="3" y="3" width="30" height="30" transform="translate(3.628489524717267 -1.12410945512748) rotate(-16.91765940974431 8.923169999727605 3.6299824082384404)scale(1.1269873980604255)" rx="8.362036134944859" fill="black"></rect><!----></mask><rect data-v-528fb24a="" x="0" y="0" width="36" height="36" fill="#e63946" mask="url(#mask__foreground)"></rect><g data-v-528fb24a="" mask="url(#mask__foreground)"><g data-v-528fb24a="" transform="translate(4.978860922231181 4.19434372380594) rotate(-9.985952188891144 19.780297878304186 31.202179603860767)"><g data-v-528fb24a="" transform="rotate(180 18 21.95162687562126)"><!----><path data-v-528fb24a="" d="M11.612820059291854,21.962713912578113 a0.5568503693909951, 0.5778379368102098 0 0,0 13.853839551986198, -1.1778499276820935" fill="#ffffee"></path></g><rect data-v-528fb24a="" x="7.264485862707838" y="11.67768565871804" width="3.766234525631921" height="2.580237400394132" rx="1" stroke="none" fill="#ffffee"></rect><rect data-v-528fb24a="" x="24.96927961166024" y="11.67768565871804" width="3.766234525631921" height="2.580237400394132" rx="1" stroke="none" fill="#ffffee"></rect></g></g><g data-v-528fb24a="" mask="url(#mask__background)"><g data-v-528fb24a="" transform="translate(4.978860922231181 4.19434372380594) rotate(-9.985952188891144 19.780297878304186 31.202179603860767)"><g data-v-528fb24a="" transform="rotate(180 18 21.95162687562126)"><!----><path data-v-528fb24a="" d="M11.612820059291854,21.962713912578113 a0.5568503693909951, 0.5778379368102098 0 0,0 13.853839551986198, -1.1778499276820935" fill="#ffffee"></path></g><rect data-v-528fb24a="" x="7.264485862707838" y="11.67768565871804" width="3.766234525631921" height="2.580237400394132" rx="1" stroke="none" fill="#ffffee"></rect><rect data-v-528fb24a="" x="24.96927961166024" y="11.67768565871804" width="3.766234525631921" height="2.580237400394132" rx="1" stroke="none" fill="#ffffee"></rect></g></g></svg>