<svg data-v-528fb24a="" viewBox="0 0 36 36" fill="none" xmlns="http://www.w3.org/2000/svg" width="256" height="256" id="avatar"><title data-v-528fb24a="">Simple Avatar</title><desc data-v-528fb24a="">CREATED BY XUAN TANG, MORE INFO AT TXSTC55.GITHUB.IO</desc><rect data-v-528fb24a="" width="36" height="36" fill="#30c5d2"></rect><mask data-v-528fb24a="" id="mask__foreground" maskUnits="userSpaceOnUse" x="0" y="0" width="100" height="100"><rect data-v-528fb24a="" x="0" y="0" width="36" height="36" transform="translate(-2.534285896583335 -3.0804577627703678) rotate(-15.876092531816672 19.137220736333724 9.812917679082982)scale(1.1858193171654734)" rx="21.272861990153487" fill="white"></rect><!----></mask><mask data-v-528fb24a="" id="mask__background" maskUnits="userSpaceOnUse" x="0" y="0" width="100" height="100"><rect data-v-528fb24a="" id="test" x="0" y="0" width="36" height="36" fill="white"></rect><rect data-v-528fb24a="" x="3" y="3" width="30" height="30" transform="translate(-2.534285896583335 -3.0804577627703678) rotate(-15.876092531816672 19.137220736333724 9.812917679082982)scale(1.1858193171654734)" rx="21.272861990153487" fill="black"></rect><!----></mask><rect data-v-528fb24a="" x="0" y="0" width="36" height="36" fill="#08415c" mask="url(#mask__foreground)"></rect><g data-v-528fb24a="" mask="url(#mask__foreground)"><g data-v-528fb24a="" transform="translate(1.252721412555755 -3.073314011106847) rotate(-4.263844860866413 27.998773014527814 30.31038753195223)"><g data-v-528fb24a="" transform=""><path data-v-528fb24a="" d="M13.372653320200541 19.80081979310634c3.890268402041727 2.8678139126868905 6.719958631937877 3.7133385657799387 9.254693359598916 0" stroke="#ffffee" fill="none" stroke-linecap="round"></path><!----></g><rect data-v-528fb24a="" x="7.927662335286842" y="12.780610789346564" width="3.8243708297921053" height="1.3744713181226964" rx="1" stroke="none" fill="#ffffee"></rect><rect data-v-528fb24a="" x="24.24796683492105" y="12.780610789346564" width="3.8243708297921053" height="1.3744713181226964" rx="1" stroke="none" fill="#ffffee"></rect></g></g><g data-v-528fb24a="" mask="url(#mask__background)"><g data-v-528fb24a="" transform="translate(1.252721412555755 -3.073314011106847) rotate(-4.263844860866413 27.998773014527814 30.31038753195223)"><g data-v-528fb24a="" transform=""><path data-v-528fb24a="" d="M13.372653320200541 19.80081979310634c3.890268402041727 2.8678139126868905 6.719958631937877 3.7133385657799387 9.254693359598916 0" stroke="#ffffee" fill="none" stroke-linecap="round"></path><!----></g><rect data-v-528fb24a="" x="7.927662335286842" y="12.780610789346564" width="3.8243708297921053" height="1.3744713181226964" rx="1" stroke="none" fill="#ffffee"></rect><rect data-v-528fb24a="" x="24.24796683492105" y="12.780610789346564" width="3.8243708297921053" height="1.3744713181226964" rx="1" stroke="none" fill="#ffffee"></rect></g></g></svg>