<svg data-v-528fb24a="" viewBox="0 0 36 36" fill="none" xmlns="http://www.w3.org/2000/svg" width="256" height="256" id="avatar"><title data-v-528fb24a="">Simple Avatar</title><desc data-v-528fb24a="">CREATED BY XUAN TANG, MORE INFO AT TXSTC55.GITHUB.IO</desc><rect data-v-528fb24a="" width="36" height="36" fill="#95f9c3"></rect><mask data-v-528fb24a="" id="mask__foreground" maskUnits="userSpaceOnUse" x="0" y="0" width="100" height="100"><rect data-v-528fb24a="" x="0" y="0" width="36" height="36" transform="translate(2.215948621570643 1.9452609915441617) rotate(-9.527853532667132 8.785370920257972 0.6545897884477521)scale(1.0607395044884027)" rx="19.832856054486662" fill="white"></rect><!----></mask><mask data-v-528fb24a="" id="mask__background" maskUnits="userSpaceOnUse" x="0" y="0" width="100" height="100"><rect data-v-528fb24a="" id="test" x="0" y="0" width="36" height="36" fill="white"></rect><rect data-v-528fb24a="" x="3" y="3" width="30" height="30" transform="translate(2.215948621570643 1.9452609915441617) rotate(-9.527853532667132 8.785370920257972 0.6545897884477521)scale(1.0607395044884027)" rx="19.832856054486662" fill="black"></rect><!----></mask><rect data-v-528fb24a="" x="0" y="0" width="36" height="36" fill="#FFC1CF" mask="url(#mask__foreground)"></rect><g data-v-528fb24a="" mask="url(#mask__foreground)"><g data-v-528fb24a="" transform="translate(-0.26439777837935097 -0.44417606944878507) rotate(8.515963262004647 25.49016941744294 31.089875738223036)"><g data-v-528fb24a="" transform=""><path data-v-528fb24a="" d="M10.828001682145173 22.31153231021542c3.731039598903169 4.247817829155853 11.683980102030386 2.118464956437462 14.343996635709654 0" stroke="hsl(148, 59.53333333333333%, 100%)" fill="none" stroke-linecap="round"></path><!----></g><rect data-v-528fb24a="" x="12.345194060658919" y="16.184759277842144" width="2.223611952571141" height="1.4345220107790886" rx="1" stroke="none" fill="hsl(148, 59.53333333333333%, 100%)"></rect><rect data-v-528fb24a="" x="21.43119398676994" y="16.184759277842144" width="2.223611952571141" height="1.4345220107790886" rx="1" stroke="none" fill="hsl(148, 59.53333333333333%, 100%)"></rect></g></g><g data-v-528fb24a="" mask="url(#mask__background)"><g data-v-528fb24a="" transform="translate(-0.26439777837935097 -0.44417606944878507) rotate(8.515963262004647 25.49016941744294 31.089875738223036)"><g data-v-528fb24a="" transform=""><path data-v-528fb24a="" d="M10.828001682145173 22.31153231021542c3.731039598903169 4.247817829155853 11.683980102030386 2.118464956437462 14.343996635709654 0" stroke="hsl(346, 66.66666666666667%, 100%)" fill="none" stroke-linecap="round"></path><!----></g><rect data-v-528fb24a="" x="12.345194060658919" y="16.184759277842144" width="2.223611952571141" height="1.4345220107790886" rx="1" stroke="none" fill="hsl(346, 66.66666666666667%, 100%)"></rect><rect data-v-528fb24a="" x="21.43119398676994" y="16.184759277842144" width="2.223611952571141" height="1.4345220107790886" rx="1" stroke="none" fill="hsl(346, 66.66666666666667%, 100%)"></rect></g></g></svg>