<svg data-v-528fb24a="" viewBox="0 0 36 36" fill="none" xmlns="http://www.w3.org/2000/svg" width="256" height="256" id="avatar"><title data-v-528fb24a="">Simple Avatar</title><desc data-v-528fb24a="">CREATED BY XUAN TANG, MORE INFO AT TXSTC55.GITHUB.IO</desc><rect data-v-528fb24a="" width="36" height="36" fill="#245953"></rect><mask data-v-528fb24a="" id="mask__foreground" maskUnits="userSpaceOnUse" x="0" y="0" width="100" height="100"><rect data-v-528fb24a="" x="0" y="0" width="36" height="36" transform="translate(-2.8311760991783963 -1.635312833998117) rotate(18.482430427022514 22.40165196434291 15.08419422150608)scale(1.059453194596749)" rx="22.745455543324546" fill="white"></rect><!----></mask><mask data-v-528fb24a="" id="mask__background" maskUnits="userSpaceOnUse" x="0" y="0" width="100" height="100"><rect data-v-528fb24a="" id="test" x="0" y="0" width="36" height="36" fill="white"></rect><rect data-v-528fb24a="" x="3" y="3" width="30" height="30" transform="translate(-2.8311760991783963 -1.635312833998117) rotate(18.482430427022514 22.40165196434291 15.08419422150608)scale(1.059453194596749)" rx="22.745455543324546" fill="black"></rect><!----></mask><rect data-v-528fb24a="" x="0" y="0" width="36" height="36" fill="#19376D" mask="url(#mask__foreground)"></rect><g data-v-528fb24a="" mask="url(#mask__foreground)"><g data-v-528fb24a="" transform="translate(-4.467961056130343 -1.084238975379448) rotate(-6.438659986400577 34.77277705086402 27.67630997160896)"><g data-v-528fb24a="" transform=""><!----><path data-v-528fb24a="" d="M12.385333300435821,17.642630064976203 a0.7088027445355445, 0.6871847792481187 0 0,0 11.57922692999048, -0.617381630881872" fill="#ffffee"></path></g><rect data-v-528fb24a="" x="9.488998473119775" y="10.538890414534283" width="3.7472507332135283" height="0.6008163943295631" rx="1" stroke="none" fill="#ffffee"></rect><rect data-v-528fb24a="" x="22.763750793666695" y="10.538890414534283" width="3.7472507332135283" height="0.6008163943295631" rx="1" stroke="none" fill="#ffffee"></rect></g></g><g data-v-528fb24a="" mask="url(#mask__background)"><g data-v-528fb24a="" transform="translate(-4.467961056130343 -1.084238975379448) rotate(-6.438659986400577 34.77277705086402 27.67630997160896)"><g data-v-528fb24a="" transform=""><!----><path data-v-528fb24a="" d="M12.385333300435821,17.642630064976203 a0.7088027445355445, 0.6871847792481187 0 0,0 11.57922692999048, -0.617381630881872" fill="#ffffee"></path></g><rect data-v-528fb24a="" x="9.488998473119775" y="10.538890414534283" width="3.7472507332135283" height="0.6008163943295631" rx="1" stroke="none" fill="#ffffee"></rect><rect data-v-528fb24a="" x="22.763750793666695" y="10.538890414534283" width="3.7472507332135283" height="0.6008163943295631" rx="1" stroke="none" fill="#ffffee"></rect></g></g></svg>