<svg data-v-528fb24a="" viewBox="0 0 36 36" fill="none" xmlns="http://www.w3.org/2000/svg" width="256" height="256" id="avatar"><title data-v-528fb24a="">Simple Avatar</title><desc data-v-528fb24a="">CREATED BY XUAN TANG, MORE INFO AT TXSTC55.GITHUB.IO</desc><rect data-v-528fb24a="" width="36" height="36" fill="#9DD1F1"></rect><mask data-v-528fb24a="" id="mask__foreground" maskUnits="userSpaceOnUse" x="0" y="0" width="100" height="100"><rect data-v-528fb24a="" x="0" y="0" width="36" height="36" transform="translate(2.222121390758489 1.125199078353969) rotate(3.965061852702128 27.234166570272492 10.718747013319465)scale(1.0505416107493444)" rx="27.17371258013703" fill="white"></rect><!----></mask><mask data-v-528fb24a="" id="mask__background" maskUnits="userSpaceOnUse" x="0" y="0" width="100" height="100"><rect data-v-528fb24a="" id="test" x="0" y="0" width="36" height="36" fill="white"></rect><rect data-v-528fb24a="" x="3" y="3" width="30" height="30" transform="translate(2.222121390758489 1.125199078353969) rotate(3.965061852702128 27.234166570272492 10.718747013319465)scale(1.0505416107493444)" rx="27.17371258013703" fill="black"></rect><!----></mask><rect data-v-528fb24a="" x="0" y="0" width="36" height="36" fill="#FFC1CF" mask="url(#mask__foreground)"></rect><g data-v-528fb24a="" mask="url(#mask__foreground)"><g data-v-528fb24a="" transform="translate(-1.5386797934361485 2.2598884572188656) rotate(-4.002924733604827 26.519930822654274 28.42776481683778)"><g data-v-528fb24a="" transform="rotate(180 18 24.240819644518112)"><path data-v-528fb24a="" d="M12.13874987667928 21.506798311367866c3.4680426663004944 3.820441154528884 11.425917890584614 3.1189846591976016 11.722500246641442 0" stroke="hsl(203, 50%, 100%)" fill="none" stroke-linecap="round"></path><!----></g><rect data-v-528fb24a="" x="10.533597791593712" y="15.143609203773376" width="2.2231974149573066" height="2.378827563782797" rx="1" stroke="none" fill="hsl(203, 50%, 100%)"></rect><rect data-v-528fb24a="" x="23.24320479344898" y="15.143609203773376" width="2.2231974149573066" height="2.378827563782797" rx="1" stroke="none" fill="hsl(203, 50%, 100%)"></rect></g></g><g data-v-528fb24a="" mask="url(#mask__background)"><g data-v-528fb24a="" transform="translate(-1.5386797934361485 2.2598884572188656) rotate(-4.002924733604827 26.519930822654274 28.42776481683778)"><g data-v-528fb24a="" transform="rotate(180 18 24.240819644518112)"><path data-v-528fb24a="" d="M12.13874987667928 21.506798311367866c3.4680426663004944 3.820441154528884 11.425917890584614 3.1189846591976016 11.722500246641442 0" stroke="hsl(346, 66.66666666666667%, 100%)" fill="none" stroke-linecap="round"></path><!----></g><rect data-v-528fb24a="" x="10.533597791593712" y="15.143609203773376" width="2.2231974149573066" height="2.378827563782797" rx="1" stroke="none" fill="hsl(346, 66.66666666666667%, 100%)"></rect><rect data-v-528fb24a="" x="23.24320479344898" y="15.143609203773376" width="2.2231974149573066" height="2.378827563782797" rx="1" stroke="none" fill="hsl(346, 66.66666666666667%, 100%)"></rect></g></g></svg>