<svg data-v-528fb24a="" viewBox="0 0 36 36" fill="none" xmlns="http://www.w3.org/2000/svg" width="256" height="256" id="avatar"><title data-v-528fb24a="">Simple Avatar</title><desc data-v-528fb24a="">CREATED BY XUAN TANG, MORE INFO AT TXSTC55.GITHUB.IO</desc><rect data-v-528fb24a="" width="36" height="36" fill="#4F200D"></rect><mask data-v-528fb24a="" id="mask__foreground" maskUnits="userSpaceOnUse" x="0" y="0" width="100" height="100"><!----><path data-v-528fb24a="" stroke-width="9.47149401949138" stroke-linecap="round" stroke-linejoin="round" stroke="white" fill="white" d="M 18,7.75128869404 32,32 4,32 z" transform="translate(-1.5589965675005923 -5.80700278017269) rotate(25.415433180636285 18 18)"></path></mask><mask data-v-528fb24a="" id="mask__background" maskUnits="userSpaceOnUse" x="0" y="0" width="100" height="100"><rect data-v-528fb24a="" id="test" x="0" y="0" width="36" height="36" fill="white"></rect><!----><path data-v-528fb24a="" stroke-width="9.47149401949138" stroke-linecap="round" stroke-linejoin="round" stroke="black" fill="black" d="M 18,7.75128869404 32,32 4,32 z" transform="translate(-1.5589965675005923 -5.80700278017269) rotate(25.415433180636285 18 18)"></path></mask><rect data-v-528fb24a="" x="0" y="0" width="36" height="36" fill="#000000" mask="url(#mask__foreground)"></rect><g data-v-528fb24a="" mask="url(#mask__foreground)"><g data-v-528fb24a="" transform="translate(0.962186761436219 -1.6360722351910995) rotate(1.8495114991677362 35.49443197757739 27.138146492906813)"><g data-v-528fb24a="" transform=""><!----><path data-v-528fb24a="" d="M12.270119026738751,21.212522497423482 a0.686624092686095, 0.7547502057513293 0 0,0 13.267936169439636, -0.14280029671670413" fill="#ffffee"></path></g><rect data-v-528fb24a="" x="7.900769526260096" y="14.947561361914032" width="3.122096893577381" height="2.804248607994974" rx="1" stroke="none" fill="#ffffee"></rect><rect data-v-528fb24a="" x="24.977133580162523" y="14.947561361914032" width="3.122096893577381" height="2.804248607994974" rx="1" stroke="none" fill="#ffffee"></rect></g></g><g data-v-528fb24a="" mask="url(#mask__background)"><g data-v-528fb24a="" transform="translate(0.962186761436219 -1.6360722351910995) rotate(1.8495114991677362 35.49443197757739 27.138146492906813)"><g data-v-528fb24a="" transform=""><!----><path data-v-528fb24a="" d="M12.270119026738751,21.212522497423482 a0.686624092686095, 0.7547502057513293 0 0,0 13.267936169439636, -0.14280029671670413" fill="#ffffee"></path></g><rect data-v-528fb24a="" x="7.900769526260096" y="14.947561361914032" width="3.122096893577381" height="2.804248607994974" rx="1" stroke="none" fill="#ffffee"></rect><rect data-v-528fb24a="" x="24.977133580162523" y="14.947561361914032" width="3.122096893577381" height="2.804248607994974" rx="1" stroke="none" fill="#ffffee"></rect></g></g></svg>