<svg data-v-528fb24a="" viewBox="0 0 36 36" fill="none" xmlns="http://www.w3.org/2000/svg" width="256" height="256" id="avatar"><title data-v-528fb24a="">Simple Avatar</title><desc data-v-528fb24a="">CREATED BY XUAN TANG, MORE INFO AT TXSTC55.GITHUB.IO</desc><rect data-v-528fb24a="" width="36" height="36" fill="#508AA8"></rect><mask data-v-528fb24a="" id="mask__foreground" maskUnits="userSpaceOnUse" x="0" y="0" width="100" height="100"><rect data-v-528fb24a="" x="0" y="0" width="36" height="36" transform="translate(4.507301596758547 -4.786366423544182) rotate(-12.636471516816483 27.269550936830232 6.342770998019665)scale(1.0472585157075733)" rx="11.099037791478345" fill="white"></rect><!----></mask><mask data-v-528fb24a="" id="mask__background" maskUnits="userSpaceOnUse" x="0" y="0" width="100" height="100"><rect data-v-528fb24a="" id="test" x="0" y="0" width="36" height="36" fill="white"></rect><rect data-v-528fb24a="" x="3" y="3" width="30" height="30" transform="translate(4.507301596758547 -4.786366423544182) rotate(-12.636471516816483 27.269550936830232 6.342770998019665)scale(1.0472585157075733)" rx="11.099037791478345" fill="black"></rect><!----></mask><rect data-v-528fb24a="" x="0" y="0" width="36" height="36" fill="#fe7f2d" mask="url(#mask__foreground)"></rect><g data-v-528fb24a="" mask="url(#mask__foreground)"><g data-v-528fb24a="" transform="translate(4.024072968360507 1.6226333404891609) rotate(4.615754984369804 19.097058062596876 27.247008308284844)"><g data-v-528fb24a="" transform=""><!----><path data-v-528fb24a="" d="M12.722128568618942,19.727334223787565 a0.6128120048765222, 0.7414254142487836 0 0,0 9.955198429275956, -1.0877081281072034" fill="#ffffee"></path></g><rect data-v-528fb24a="" x="12.019277323879848" y="12.725301709916335" width="2.8545143377340025" height="1.783762071732994" rx="1" stroke="none" fill="#ffffee"></rect><rect data-v-528fb24a="" x="21.12620833838615" y="12.725301709916335" width="2.8545143377340025" height="1.783762071732994" rx="1" stroke="none" fill="#ffffee"></rect></g></g><g data-v-528fb24a="" mask="url(#mask__background)"><g data-v-528fb24a="" transform="translate(4.024072968360507 1.6226333404891609) rotate(4.615754984369804 19.097058062596876 27.247008308284844)"><g data-v-528fb24a="" transform=""><!----><path data-v-528fb24a="" d="M12.722128568618942,19.727334223787565 a0.6128120048765222, 0.7414254142487836 0 0,0 9.955198429275956, -1.0877081281072034" fill="#ffffee"></path></g><rect data-v-528fb24a="" x="12.019277323879848" y="12.725301709916335" width="2.8545143377340025" height="1.783762071732994" rx="1" stroke="none" fill="#ffffee"></rect><rect data-v-528fb24a="" x="21.12620833838615" y="12.725301709916335" width="2.8545143377340025" height="1.783762071732994" rx="1" stroke="none" fill="#ffffee"></rect></g></g></svg>