<svg data-v-528fb24a="" viewBox="0 0 36 36" fill="none" xmlns="http://www.w3.org/2000/svg" width="256" height="256" id="avatar"><title data-v-528fb24a="">Simple Avatar</title><desc data-v-528fb24a="">CREATED BY XUAN TANG, MORE INFO AT TXSTC55.GITHUB.IO</desc><rect data-v-528fb24a="" width="36" height="36" fill="#C8E0F4"></rect><mask data-v-528fb24a="" id="mask__foreground" maskUnits="userSpaceOnUse" x="0" y="0" width="100" height="100"><!----><path data-v-528fb24a="" stroke-width="9.404029268817688" stroke-linecap="round" stroke-linejoin="round" stroke="white" fill="white" d="M 18,7.75128869404 32,32 4,32 z" transform="translate(-0.622634280920038 1.89174284671145) rotate(5.434602572480074 18 18)"></path></mask><mask data-v-528fb24a="" id="mask__background" maskUnits="userSpaceOnUse" x="0" y="0" width="100" height="100"><rect data-v-528fb24a="" id="test" x="0" y="0" width="36" height="36" fill="white"></rect><!----><path data-v-528fb24a="" stroke-width="9.404029268817688" stroke-linecap="round" stroke-linejoin="round" stroke="black" fill="black" d="M 18,7.75128869404 32,32 4,32 z" transform="translate(-0.622634280920038 1.89174284671145) rotate(5.434602572480074 18 18)"></path></mask><rect data-v-528fb24a="" x="0" y="0" width="36" height="36" fill="#FFC1CF" mask="url(#mask__foreground)"></rect><g data-v-528fb24a="" mask="url(#mask__foreground)"><g data-v-528fb24a="" transform="translate(-3.7993125365036584 2.9030814946824552) rotate(-6.344139630432655 30.86431500868224 21.725029724553366)"><g data-v-528fb24a="" transform=""><!----><path data-v-528fb24a="" d="M14.167239145313467,21.698226418834018 a0.5581914768049598, 0.6374393141414488 0 0,0 6.118144309221785, -0.2509393753350928" fill="hsl(207, 44.46666666666667%, 100%)"></path></g><rect data-v-528fb24a="" x="11.23279108039825" y="11.97237730715484" width="2.5197729222459566" height="1.3455675947749137" rx="1" stroke="none" fill="hsl(207, 44.46666666666667%, 100%)"></rect><rect data-v-528fb24a="" x="22.247435997355794" y="11.97237730715484" width="2.5197729222459566" height="1.3455675947749137" rx="1" stroke="none" fill="hsl(207, 44.46666666666667%, 100%)"></rect></g></g><g data-v-528fb24a="" mask="url(#mask__background)"><g data-v-528fb24a="" transform="translate(-3.7993125365036584 2.9030814946824552) rotate(-6.344139630432655 30.86431500868224 21.725029724553366)"><g data-v-528fb24a="" transform=""><!----><path data-v-528fb24a="" d="M14.167239145313467,21.698226418834018 a0.5581914768049598, 0.6374393141414488 0 0,0 6.118144309221785, -0.2509393753350928" fill="hsl(346, 66.66666666666667%, 100%)"></path></g><rect data-v-528fb24a="" x="11.23279108039825" y="11.97237730715484" width="2.5197729222459566" height="1.3455675947749137" rx="1" stroke="none" fill="hsl(346, 66.66666666666667%, 100%)"></rect><rect data-v-528fb24a="" x="22.247435997355794" y="11.97237730715484" width="2.5197729222459566" height="1.3455675947749137" rx="1" stroke="none" fill="hsl(346, 66.66666666666667%, 100%)"></rect></g></g></svg>